<?xml version="1.0" encoding="UTF-8"?>
<svg version="1.1" xmlns="http://www.w3.org/2000/svg" width="576" height="576" viewBox="0 0 576 576">
<path d="M0 0 C0.91808441 -0.00692368 1.83616882 -0.01384735 2.78207397 -0.02098083 C5.72845784 -0.03816178 8.67466217 -0.04456675 11.62109375 -0.046875 C12.62326935 -0.04821442 13.62544495 -0.04955383 14.6579895 -0.05093384 C26.49652085 -0.04749788 38.23002778 0.08058305 49.99609375 1.515625 C50.96297119 1.63325195 51.92984863 1.75087891 52.92602539 1.87207031 C59.15163456 2.76576951 64.1238833 4.01384738 68.43359375 8.890625 C70.34429903 12.78552422 71.12232381 15.94820476 70.05859375 20.203125 C67.05575639 26.06730477 62.96992014 28.45712327 57.43359375 31.578125 C51.10577332 35.27337407 45.35605474 39.03397043 39.80859375 43.83984375 C38.05859375 45.203125 38.05859375 45.203125 36.05859375 45.203125 C36.05859375 45.863125 36.05859375 46.523125 36.05859375 47.203125 C34.30078125 48.68359375 34.30078125 48.68359375 31.93359375 50.390625 C27.65846644 53.61207101 24.40777705 57.06529609 21.05859375 61.203125 C18.80859375 63.640625 18.80859375 63.640625 17.05859375 65.203125 C16.39859375 65.203125 15.73859375 65.203125 15.05859375 65.203125 C14.81496094 65.75742188 14.57132813 66.31171875 14.3203125 66.8828125 C12.79883349 69.68082654 10.92955651 71.8976509 8.87109375 74.328125 C-7.70354237 94.38660183 -19.46597562 117.35004327 -26.94140625 142.203125 C-27.32167969 143.44578125 -27.70195312 144.6884375 -28.09375 145.96875 C-41.71565769 193.46551493 -35.75371975 247.8488204 -11.94140625 291.203125 C-6.81251147 300.00653032 -1.36100897 308.56942005 4.95263672 316.57202148 C6.05859375 318.203125 6.05859375 318.203125 6.05859375 320.203125 C6.71859375 320.203125 7.37859375 320.203125 8.05859375 320.203125 C9.48193359 321.85766602 9.48193359 321.85766602 11.14453125 324.14453125 C14.97150046 329.20067946 19.18745635 333.67784245 23.68359375 338.140625 C24.47483643 338.92695313 25.2660791 339.71328125 26.08129883 340.5234375 C32.38462963 346.70229746 38.8142866 352.15782418 46.05859375 357.203125 C46.63109863 357.60934082 47.20360352 358.01555664 47.79345703 358.43408203 C77.01251236 379.09426029 113.81200758 393.31816164 149.94140625 393.37109375 C150.75874237 393.37442215 151.57607849 393.37775055 152.41818237 393.38117981 C154.13750655 393.38620707 155.85684035 393.38858945 157.57617188 393.38842773 C160.15642099 393.3906021 162.73623313 393.40876976 165.31640625 393.42773438 C174.34426626 393.45758633 183.05075779 393.05975652 191.97558594 391.66455078 C197.19807574 390.88291428 201.97476882 390.29711416 206.93359375 392.453125 C209.86504504 394.86726136 211.7503866 396.8906238 212.6328125 400.6484375 C212.93907776 407.8931951 211.11123477 411.48749332 206.296875 416.83203125 C205.55824219 417.61449219 204.81960938 418.39695312 204.05859375 419.203125 C202.76438471 420.742658 201.47250061 422.28415026 200.18359375 423.828125 C198.50390625 425.8046875 198.50390625 425.8046875 197.05859375 427.203125 C196.39859375 427.203125 195.73859375 427.203125 195.05859375 427.203125 C194.79046875 427.8425 194.52234375 428.481875 194.24609375 429.140625 C193.05859375 431.203125 193.05859375 431.203125 190.05859375 432.203125 C189.36249339 433.52133079 188.69834562 434.85667048 188.05859375 436.203125 C185.62453041 438.78158193 182.78902587 440.94617822 180.05859375 443.203125 C179.51396484 443.66396484 178.96933594 444.12480469 178.40820312 444.59960938 C136.55898308 480.01048788 82.00939865 504.14662638 26.57421875 504.40625 C25.59733093 504.41195007 24.62044312 504.41765015 23.61395264 504.42352295 C21.55335551 504.43291334 19.49274378 504.439483 17.43212891 504.44335938 C14.35811295 504.45297018 11.2847945 504.48401214 8.2109375 504.515625 C-9.67295123 504.61224273 -27.13312424 502.84379148 -44.50390625 498.453125 C-45.53781494 498.19708496 -46.57172363 497.94104492 -47.63696289 497.67724609 C-87.52964722 487.53830112 -124.75076899 468.31917959 -154.94140625 440.203125 C-156.29146789 439.03171046 -157.64548139 437.8648308 -159.00390625 436.703125 C-197.43436791 403.15395182 -223.17542956 354.38518525 -233.75390625 304.953125 C-234.046604 303.58969971 -234.046604 303.58969971 -234.34521484 302.19873047 C-237.48389546 286.53302977 -238.29199418 270.96571491 -238.25708008 255.02807617 C-238.25392763 252.03592151 -238.27746341 249.04476745 -238.30273438 246.05273438 C-238.3662693 226.44613712 -236.24550686 207.11224367 -230.94140625 188.203125 C-230.67199219 187.24035645 -230.40257812 186.27758789 -230.125 185.28564453 C-224.647904 166.02985842 -218.0855955 147.49714037 -207.7734375 130.26953125 C-206.05655231 127.39585348 -204.48955841 124.4825689 -202.94140625 121.515625 C-200.37247491 116.77829462 -197.40089736 112.5017232 -194.16796875 108.1953125 C-192.49747513 105.95040354 -190.87477606 103.6943886 -189.27734375 101.3984375 C-188.82713867 100.75430908 -188.37693359 100.11018066 -187.91308594 99.4465332 C-187.02621049 98.1749056 -186.14391912 96.90006665 -185.26660156 95.62182617 C-184.20741907 94.11314625 -183.07999447 92.65281446 -181.94140625 91.203125 C-181.28140625 91.203125 -180.62140625 91.203125 -179.94140625 91.203125 C-179.71195313 90.6565625 -179.4825 90.11 -179.24609375 89.546875 C-171.78714334 76.14756288 -155.89205513 63.45674028 -143.94140625 54.203125 C-143.37502441 53.75501465 -142.80864258 53.3069043 -142.22509766 52.84521484 C-126.71255137 40.59192046 -109.86038247 30.52893172 -91.94140625 22.203125 C-91.28188965 21.89536133 -90.62237305 21.58759766 -89.94287109 21.27050781 C-62.17252074 8.42864973 -30.70077866 0.15776593 0 0 Z " transform="translate(273.94140625,35.796875)"/>
</svg>
