<?xml version="1.0" encoding="UTF-8"?>
<svg version="1.1" xmlns="http://www.w3.org/2000/svg" width="576" height="576" viewBox="0 0 576 576">
<path d="M0 0 C7.35979941 5.18826849 11.12379966 11.60060699 13.25 20.25 C13.64441309 24.08539823 13.63078005 27.88375689 13.59057617 31.73657227 C13.59101425 32.84979355 13.59145233 33.96301483 13.59190369 35.10997009 C13.58982609 38.76229853 13.56654306 42.41415874 13.54296875 46.06640625 C13.53736915 48.60944874 13.53310077 51.15249449 13.53010559 53.69554138 C13.51985059 59.68771601 13.49624516 65.67969196 13.46605712 71.6717872 C13.43241565 78.49892835 13.41600273 85.32607781 13.40097082 92.15328133 C13.36969235 106.18561248 13.31699308 120.21779712 13.25 134.25 C14.11469595 134.24308655 14.11469595 134.24308655 14.9968605 134.23603344 C29.07098642 134.12525916 43.14504637 134.04270094 57.21951675 133.99093914 C64.0260618 133.96523738 70.83231454 133.93024257 77.63867188 133.87280273 C84.21334471 133.81734492 90.7878286 133.78853545 97.3627243 133.77561378 C99.8648327 133.76641109 102.36692546 133.74844062 104.86890411 133.72134972 C108.38724437 133.68478629 111.90435038 133.68006626 115.42285156 133.68237305 C116.95711288 133.65540848 116.95711288 133.65540848 118.52236938 133.62789917 C129.27349663 133.70363478 138.56586702 137.55010173 146.34375 145.00390625 C149.5005771 148.72352834 151.43023921 152.75412041 153.25 157.25 C153.683125 158.19875 154.11625 159.1475 154.5625 160.125 C157.17260574 171.989117 154.27171143 181.92277258 148.00390625 192.0078125 C145.34982512 195.40078036 142.19750756 197.56075127 138.25 199.25 C137.59 199.25 136.93 199.25 136.25 199.25 C136.25 199.91 136.25 200.57 136.25 201.25 C128.94526566 203.88965433 122.47624206 204.67230932 114.74169922 204.59057617 C113.08627861 204.59123329 113.08627861 204.59123329 111.39741516 204.59190369 C107.78298683 204.58982902 104.16903388 204.56656013 100.5546875 204.54296875 C98.03549452 204.53736811 95.51629826 204.53310022 92.99710083 204.53010559 C87.06518364 204.51985751 81.13341663 204.49626127 75.20157635 204.46605712 C68.44212567 204.43239426 61.68266648 204.4159974 54.92315269 204.40097082 C41.03200913 204.36970777 27.14101381 204.317022 13.25 204.25 C13.25368717 204.82738576 13.25737434 205.40477152 13.26117325 205.99965382 C13.34975632 220.0901529 13.41582191 234.18060991 13.45724869 248.27132893 C13.47781818 255.08569187 13.50583023 261.89986821 13.55175781 268.71411133 C13.59609304 275.29527028 13.61916561 281.87628694 13.62950897 288.45760155 C13.6368763 290.96331004 13.65126281 293.46900844 13.67292023 295.97463417 C13.70213079 299.49544438 13.7059485 303.01546427 13.70410156 306.53637695 C13.71848267 307.56281311 13.73286377 308.58924927 13.74768066 309.64678955 C13.70170684 317.79312468 12.08245467 325.95981198 7 332.5625 C-1.02035913 340.40057824 -9.17287867 344.87735469 -20.5625 345.4375 C-29.93047159 345.27931661 -38.89519433 341.67638031 -45.75 335.25 C-45.75 334.59 -45.75 333.93 -45.75 333.25 C-46.35457031 333.03085937 -46.95914063 332.81171875 -47.58203125 332.5859375 C-50.48486568 330.79716385 -51.11482049 328.98767798 -52.4375 325.875 C-52.85386719 324.91851562 -53.27023437 323.96203125 -53.69921875 322.9765625 C-55.21828483 319.03489661 -55.87499392 315.74457721 -55.87025452 311.51702881 C-55.87231651 310.09520294 -55.87231651 310.09520294 -55.87442017 308.64465332 C-55.87082489 307.61175171 -55.86722961 306.5788501 -55.86352539 305.51464844 C-55.86367142 304.42166443 -55.86381744 303.32868042 -55.8639679 302.20257568 C-55.86327096 298.5881553 -55.85548876 294.97378639 -55.84765625 291.359375 C-55.84579129 288.85402454 -55.84436776 286.34867371 -55.84336853 283.84332275 C-55.83993987 277.92189789 -55.83205751 272.00048956 -55.82201904 266.07907319 C-55.80974001 258.67511458 -55.80437302 251.27115368 -55.79882812 243.8671875 C-55.7881016 230.66144894 -55.77122457 217.45572564 -55.75 204.25 C-56.60200013 204.25414807 -56.60200013 204.25414807 -57.47121239 204.25837994 C-71.32772191 204.32479491 -85.18420334 204.37416391 -99.04083824 204.40543652 C-105.74196917 204.42086863 -112.4429778 204.44226595 -119.14404297 204.47631836 C-125.61498771 204.50899435 -132.0858219 204.52687052 -138.5568428 204.53463173 C-141.02149825 204.54016041 -143.48614788 204.55095652 -145.95075607 204.56719017 C-149.41180084 204.5890735 -152.87239291 204.59196231 -156.33349609 204.59057617 C-157.34482605 204.601362 -158.35615601 204.61214783 -159.39813232 204.6232605 C-165.979468 204.59487385 -171.55985733 203.48284147 -177.75 201.25 C-177.75 200.59 -177.75 199.93 -177.75 199.25 C-178.4925 198.96125 -179.235 198.6725 -180 198.375 C-182.31739797 197.42697356 -184.52917115 196.40154089 -186.75 195.25 C-186.75 194.59 -186.75 193.93 -186.75 193.25 C-187.41 193.25 -188.07 193.25 -188.75 193.25 C-199.44152868 173.83963927 -199.44152868 173.83963927 -197.125 162.1875 C-194.12171184 152.37138368 -189.33949444 144.0686725 -180.25 139 C-170.67357184 133.99658529 -170.67357184 133.99658529 -164.82084656 134.00949097 C-163.37171623 134.00536697 -163.37171623 134.00536697 -161.89331055 134.00115967 C-160.84530273 134.00835022 -159.79729492 134.01554077 -158.7175293 134.02294922 C-157.04857353 134.02251114 -157.04857353 134.02251114 -155.34590149 134.02206421 C-151.67192764 134.02345643 -147.99815713 134.03901285 -144.32421875 134.0546875 C-141.77545787 134.05841801 -139.22669556 134.0612648 -136.67793274 134.06326294 C-130.65734413 134.07011639 -124.63684267 134.0858759 -118.61628896 134.10596192 C-111.76020733 134.12833762 -104.90412216 134.13931855 -98.04801309 134.14935279 C-83.94863509 134.17024264 -69.84932154 134.20540817 -55.75 134.25 C-55.75276538 133.68199991 -55.75553076 133.11399982 -55.75837994 132.52878761 C-55.82479491 118.67227809 -55.87416391 104.81579666 -55.90543652 90.95916176 C-55.92086863 84.25803083 -55.94226595 77.5570222 -55.97631836 70.85595703 C-56.00899435 64.38501229 -56.02687052 57.9141781 -56.03463173 51.4431572 C-56.04016041 48.97850175 -56.05095652 46.51385212 -56.06719017 44.04924393 C-56.0890735 40.58819916 -56.09196231 37.12760709 -56.09057617 33.66650391 C-56.101362 32.65517395 -56.11214783 31.64384399 -56.1232605 30.60186768 C-56.07512513 19.44186854 -53.20672554 10.98112465 -45.625 2.6875 C-32.4194979 -10.17574286 -14.85122119 -9.05924493 0 0 Z " transform="translate(311.75,34.75)"/>
<path d="M0 0 C0.69480469 0.44472656 1.38960937 0.88945312 2.10546875 1.34765625 C3.01683594 1.92644531 3.92820313 2.50523437 4.8671875 3.1015625 C9.81916643 6.40978831 9.81916643 6.40978831 12.10546875 8.34765625 C12.10546875 9.00765625 12.10546875 9.66765625 12.10546875 10.34765625 C12.76546875 10.34765625 13.42546875 10.34765625 14.10546875 10.34765625 C15.81905518 11.96604344 17.47624135 13.64437306 19.10546875 15.34765625 C20.20958643 16.41020715 21.31375287 17.4727074 22.41796875 18.53515625 C25.10546875 21.34765625 25.10546875 21.34765625 25.10546875 23.34765625 C25.66234375 23.59515625 26.21921875 23.84265625 26.79296875 24.09765625 C30.82549003 26.27739748 33.91190894 29.00162113 36.79296875 32.53515625 C38.79937126 35.36412858 38.79937126 35.36412858 41.10546875 36.34765625 C41.10546875 37.00765625 41.10546875 37.66765625 41.10546875 38.34765625 C41.66234375 38.57453125 42.21921875 38.80140625 42.79296875 39.03515625 C45.75614797 40.71696067 47.72665065 42.9093677 50.10546875 45.34765625 C56.85031361 52.23898056 56.85031361 52.23898056 63.98046875 58.72265625 C67.53833154 61.76196414 70.8198796 65.02130297 74.10546875 68.34765625 C77.30889506 71.59063103 80.49654142 74.77701812 83.98046875 77.72265625 C88.59034686 81.63524187 92.77952006 85.97051984 97.00732422 90.28662109 C99.74900348 93.0685168 102.48410264 95.70971139 105.53515625 98.15234375 C106.38335937 98.87679687 107.2315625 99.60125 108.10546875 100.34765625 C108.10546875 101.00765625 108.10546875 101.66765625 108.10546875 102.34765625 C109.09546875 102.67765625 110.08546875 103.00765625 111.10546875 103.34765625 C111.10546875 104.00765625 111.10546875 104.66765625 111.10546875 105.34765625 C112.42546875 106.00765625 113.74546875 106.66765625 115.10546875 107.34765625 C115.10546875 108.00765625 115.10546875 108.66765625 115.10546875 109.34765625 C115.97365234 109.74210937 115.97365234 109.74210937 116.859375 110.14453125 C121.92566466 112.85830032 126.24643643 117.10837483 129.79296875 121.59765625 C132.06169331 124.29559897 133.995641 125.74831626 137.10546875 127.34765625 C137.10546875 126.68765625 137.10546875 126.02765625 137.10546875 125.34765625 C138.57421875 123.90234375 138.57421875 123.90234375 140.60546875 122.22265625 C143.64116784 119.64902817 146.50533922 117.00088348 149.29296875 114.16015625 C152.08892488 111.32051331 154.96643871 108.80797709 158.10546875 106.34765625 C159.79309726 104.70221845 161.45950365 103.03477048 163.10546875 101.34765625 C167.15909249 97.23156229 171.36582113 93.33002732 175.64453125 89.453125 C179.49785318 85.94561401 183.24039188 82.35088696 186.79296875 78.53515625 C188.10546875 77.34765625 188.10546875 77.34765625 190.10546875 77.34765625 C190.35167969 76.76242187 190.59789062 76.1771875 190.8515625 75.57421875 C192.29920643 73.00363608 193.89789357 71.59309932 196.16796875 69.72265625 C199.08422587 67.39280073 199.08422587 67.39280073 201.10546875 64.34765625 C201.76546875 64.34765625 202.42546875 64.34765625 203.10546875 64.34765625 C203.43546875 63.35765625 203.76546875 62.36765625 204.10546875 61.34765625 C205.6640625 59.7421875 205.6640625 59.7421875 207.54296875 58.16015625 C208.16042969 57.63035156 208.77789062 57.10054688 209.4140625 56.5546875 C211.10546875 55.34765625 211.10546875 55.34765625 213.10546875 55.34765625 C213.35167969 54.76242187 213.59789062 54.1771875 213.8515625 53.57421875 C215.29920643 51.00363608 216.89789357 49.59309932 219.16796875 47.72265625 C222.08422587 45.39280073 222.08422587 45.39280073 224.10546875 42.34765625 C224.76546875 42.34765625 225.42546875 42.34765625 226.10546875 42.34765625 C226.10546875 41.68765625 226.10546875 41.02765625 226.10546875 40.34765625 C227.57421875 38.8671875 227.57421875 38.8671875 229.60546875 37.16015625 C230.69794922 36.22816406 230.69794922 36.22816406 231.8125 35.27734375 C232.56917969 34.64054687 233.32585937 34.00375 234.10546875 33.34765625 C237.86368236 30.17344292 241.44903183 27.13538055 244.60546875 23.34765625 C247.25152634 20.17238715 250.10096506 17.62890609 253.2421875 14.9609375 C255.24761311 13.27058991 255.24761311 13.27058991 257.48046875 10.91015625 C259.10546875 9.34765625 259.10546875 9.34765625 261.10546875 9.34765625 C261.10546875 8.68765625 261.10546875 8.02765625 261.10546875 7.34765625 C263.046875 5.7265625 263.046875 5.7265625 265.66796875 3.91015625 C266.51488281 3.31332031 267.36179687 2.71648437 268.234375 2.1015625 C274.25217493 -1.57461732 279.3331296 -3.23712033 286.29296875 -3.21484375 C287.03256836 -3.21387695 287.77216797 -3.21291016 288.53417969 -3.21191406 C297.86226791 -2.91700266 305.16176669 1.307665 312.10546875 7.34765625 C320.25258452 17.13155149 320.92071675 26.97192436 320.10546875 39.34765625 C318.46427337 50.23479391 309.9719643 57.98942327 301.890625 64.75390625 C300.0058329 66.23911459 300.0058329 66.23911459 299.10546875 68.34765625 C298.44546875 68.34765625 297.78546875 68.34765625 297.10546875 68.34765625 C297.10546875 69.00765625 297.10546875 69.66765625 297.10546875 70.34765625 C292.63488051 74.34765625 292.63488051 74.34765625 290.10546875 74.34765625 C289.87988281 74.91226563 289.65429688 75.476875 289.421875 76.05859375 C287.73240443 78.9963675 285.60720492 80.76630628 283.04296875 82.97265625 C279.5889575 85.77857716 279.5889575 85.77857716 277.10546875 89.34765625 C276.44546875 89.34765625 275.78546875 89.34765625 275.10546875 89.34765625 C275.10546875 90.00765625 275.10546875 90.66765625 275.10546875 91.34765625 C271.64393029 94.34765625 271.64393029 94.34765625 269.10546875 94.34765625 C268.88632812 94.90582031 268.6671875 95.46398437 268.44140625 96.0390625 C266.67271733 99.09548106 264.39060889 100.97090565 261.73046875 103.28515625 C258.11511203 106.43763037 255.0433478 109.55933853 252.10546875 113.34765625 C248.58822737 116.34765625 248.58822737 116.34765625 246.10546875 116.34765625 C245.87472656 116.91613281 245.64398438 117.48460937 245.40625 118.0703125 C243.7742567 120.927526 241.77867808 122.63484997 239.29296875 124.78515625 C236.49272152 127.23436385 233.73133744 129.65061496 231.16796875 132.34765625 C229.10546875 134.34765625 229.10546875 134.34765625 226.10546875 135.34765625 C225.77546875 136.33765625 225.44546875 137.32765625 225.10546875 138.34765625 C224.44546875 138.34765625 223.78546875 138.34765625 223.10546875 138.34765625 C222.84378906 138.94835937 222.58210938 139.5490625 222.3125 140.16796875 C221.03124076 142.48169902 219.85739793 143.60223955 217.79296875 145.22265625 C215.42496482 147.16675824 213.64967381 148.89694759 211.66796875 151.28515625 C209.03098105 154.43667813 206.22402334 156.95130746 203.1015625 159.6015625 C201.21244704 161.25407642 199.47000218 162.97757261 197.73046875 164.78515625 C195.10546875 167.34765625 195.10546875 167.34765625 193.10546875 167.34765625 C193.10546875 168.00765625 193.10546875 168.66765625 193.10546875 169.34765625 C191.6015625 170.828125 191.6015625 170.828125 189.54296875 172.53515625 C184.93514846 176.44853554 180.63471685 180.61129851 176.53125 185.05078125 C175.10546875 186.34765625 175.10546875 186.34765625 173.10546875 186.34765625 C172.77546875 187.33765625 172.44546875 188.32765625 172.10546875 189.34765625 C170.5390625 190.92578125 170.5390625 190.92578125 168.54296875 192.59765625 C165.68509921 195.01232677 162.87679726 197.45925337 160.10546875 199.97265625 C149.8356216 208.94866439 141.40221816 210.02579047 128.10546875 209.34765625 C118.43002153 207.91832882 109.35703599 199.42813101 103.51171875 192.01953125 C101.36447742 189.46669989 98.85411866 187.39760934 96.3203125 185.23828125 C90.37809327 180.16591069 84.55689897 174.94642243 79.10546875 169.34765625 C78.49445313 168.75855469 77.8834375 168.16945313 77.25390625 167.5625 C76.60679687 166.93472656 75.9596875 166.30695313 75.29296875 165.66015625 C74.38611328 164.78810547 74.38611328 164.78810547 73.4609375 163.8984375 C72.10546875 162.34765625 72.10546875 162.34765625 72.10546875 160.34765625 C71.54859375 160.10015625 70.99171875 159.85265625 70.41796875 159.59765625 C66.75561414 157.61800511 63.86608025 155.31809161 61.29296875 152.03515625 C58.80609851 148.97985852 56.03858274 146.59137263 53.05078125 144.0390625 C50.61690685 141.92286247 48.38553532 139.62772282 46.10546875 137.34765625 C44.94623846 136.33904521 43.77905524 135.33952613 42.60546875 134.34765625 C39.61618387 131.81677142 36.84165221 129.15399826 34.10546875 126.34765625 C33.5640625 125.82816406 33.02265625 125.30867188 32.46484375 124.7734375 C30.97473026 123.33554761 29.53605581 121.84478224 28.10546875 120.34765625 C28.10546875 119.68765625 28.10546875 119.02765625 28.10546875 118.34765625 C27.48671875 118.03828125 26.86796875 117.72890625 26.23046875 117.41015625 C24.85546875 116.72265625 23.48046875 116.03515625 22.10546875 115.34765625 C22.10546875 114.68765625 22.10546875 114.02765625 22.10546875 113.34765625 C21.46609375 113.07953125 20.82671875 112.81140625 20.16796875 112.53515625 C18.10546875 111.34765625 18.10546875 111.34765625 17.10546875 108.34765625 C16.55117187 108.08082031 15.996875 107.81398438 15.42578125 107.5390625 C11.98280695 105.77120533 9.64393852 103.05555363 6.98046875 100.28515625 C3.40993509 96.34316685 3.40993509 96.34316685 -0.89453125 93.34765625 C-0.89453125 92.68765625 -0.89453125 92.02765625 -0.89453125 91.34765625 C-1.88453125 91.01765625 -2.87453125 90.68765625 -3.89453125 90.34765625 C-3.89453125 89.68765625 -3.89453125 89.02765625 -3.89453125 88.34765625 C-5.21453125 87.68765625 -6.53453125 87.02765625 -7.89453125 86.34765625 C-7.89453125 85.68765625 -7.89453125 85.02765625 -7.89453125 84.34765625 C-8.78990601 83.94232666 -8.78990601 83.94232666 -9.70336914 83.52880859 C-11.87797247 82.35658231 -13.24602207 81.21476305 -14.953125 79.44921875 C-15.50419922 78.8871875 -16.05527344 78.32515625 -16.62304688 77.74609375 C-17.18701172 77.16085937 -17.75097656 76.575625 -18.33203125 75.97265625 C-21.38867972 72.82103712 -24.34828985 69.77731727 -27.8046875 67.05859375 C-28.83916016 66.21167969 -28.83916016 66.21167969 -29.89453125 65.34765625 C-29.89453125 64.68765625 -29.89453125 64.02765625 -29.89453125 63.34765625 C-30.4771875 63.08984375 -31.05984375 62.83203125 -31.66015625 62.56640625 C-34.07482155 61.24931608 -35.71193302 59.79677241 -37.64453125 57.84765625 C-38.56492187 56.935 -38.56492187 56.935 -39.50390625 56.00390625 C-40.89453125 54.34765625 -40.89453125 54.34765625 -40.89453125 52.34765625 C-41.55453125 52.34765625 -42.21453125 52.34765625 -42.89453125 52.34765625 C-44.92888656 48.61800486 -45.89453125 46.67860583 -45.89453125 42.34765625 C-46.55453125 42.34765625 -47.21453125 42.34765625 -47.89453125 42.34765625 C-50.51244408 34.49391776 -50.11775456 25.07264665 -46.74389648 17.52416992 C-43.72730531 11.56448417 -40.49066835 7.00069019 -34.89453125 3.34765625 C-33.88390625 2.60515625 -32.87328125 1.86265625 -31.83203125 1.09765625 C-22.89784134 -4.22483986 -9.29836638 -5.0178805 0 0 Z " transform="translate(152.89453125,340.65234375)"/>
<path d="M0 0 C0.99 0 1.98 0 3 0 C3 0.66 3 1.32 3 2 C2.01 2 1.02 2 0 2 C0 1.34 0 0.68 0 0 Z " transform="translate(285,560)"/>
</svg>
