<?xml version="1.0" encoding="UTF-8"?>
<svg version="1.1" xmlns="http://www.w3.org/2000/svg" width="576" height="576" viewBox="0 0 576 576">
<path d="M0 0 C1.17705291 -0.00384115 2.35410582 -0.00768229 3.566827 -0.01163983 C4.871367 -0.01077335 6.17590701 -0.00990687 7.51997852 -0.00901413 C8.91089915 -0.01159637 10.30181903 -0.01460914 11.69273788 -0.01801753 C15.52844054 -0.02610756 19.36412452 -0.02787822 23.1998347 -0.028615 C27.33153817 -0.03046212 31.46323186 -0.03800779 35.5949297 -0.04475021 C44.6363139 -0.05834899 53.67769368 -0.06436085 62.71908641 -0.06876087 C68.36255503 -0.07152108 74.00602194 -0.07575807 79.6494894 -0.08026505 C95.26817403 -0.09246048 110.88685728 -0.10275876 126.50554657 -0.10614014 C127.505768 -0.1063597 128.50598942 -0.10657927 129.53652059 -0.10680549 C130.53916859 -0.10702377 131.5418166 -0.10724204 132.57484788 -0.10746694 C134.60667304 -0.10791041 136.63849821 -0.10835697 138.67032337 -0.10880661 C140.1821143 -0.10913875 140.1821143 -0.10913875 141.72444645 -0.10947761 C158.0540568 -0.11342529 174.38362251 -0.13087716 190.71321561 -0.15416613 C207.4702684 -0.17787219 224.22729879 -0.19034167 240.98436862 -0.19150805 C250.39613194 -0.19242532 259.80783714 -0.19819033 269.21958447 -0.21632767 C277.23464183 -0.23171869 285.24962312 -0.23685508 293.26469245 -0.22858956 C297.35464405 -0.22467931 301.44444239 -0.22563084 305.53437519 -0.23964691 C309.27939059 -0.25236361 313.02413723 -0.25120808 316.76915214 -0.2390562 C318.76412162 -0.23616709 320.75909563 -0.24805197 322.7540285 -0.26047826 C329.13609869 -0.22513909 333.86210344 0.05257321 339.49478626 3.13142776 C340.78314387 3.53790221 342.07422944 3.93601875 343.36978626 4.31892776 C348.63750579 6.24009606 352.74377961 10.04178857 356.49478626 14.13142776 C356.49478626 14.79142776 356.49478626 15.45142776 356.49478626 16.13142776 C357.15478626 16.13142776 357.81478626 16.13142776 358.49478626 16.13142776 C363.3385116 24.95392749 367.61014575 34.9072991 366.49478626 45.13142776 C366.02492298 46.05181839 366.02492298 46.05181839 365.54556751 46.99080276 C364.28020285 49.56857166 363.85580454 52.00270974 363.30728626 54.81892776 C361.43399072 62.63706938 357.24435336 68.68253446 350.49478626 73.13142776 C349.83478626 73.13142776 349.17478626 73.13142776 348.49478626 73.13142776 C348.49478626 73.79142776 348.49478626 74.45142776 348.49478626 75.13142776 C338.0933919 80.82275676 328.48142857 82.58379688 316.67960072 82.47200394 C315.44904453 82.47244202 314.21848835 82.4728801 312.95064259 82.47333145 C309.61233276 82.47161302 306.2745959 82.45668251 302.9363873 82.43560958 C299.43440206 82.41671548 295.93240726 82.4150824 292.43037891 82.41153336 C285.81497032 82.40224996 279.19971241 82.37768704 272.58436984 82.34748489 C265.04619004 82.31382468 257.50800263 82.29742581 249.96976626 82.28239858 C234.47801933 82.25113363 218.98642231 82.19844622 203.49478626 82.13142776 C203.49755164 82.78796309 203.50031702 83.44449842 203.5031662 84.12092876 C203.5695207 100.12181816 203.61911278 116.12265945 203.65022278 132.12365246 C203.66566857 139.86172755 203.68671413 147.59971059 203.72110462 155.33772659 C203.75107727 162.08494508 203.77037788 168.83209688 203.77705175 175.5793801 C203.78095074 179.14953182 203.79006569 182.71949282 203.81197643 186.28958321 C203.83628135 190.28244104 203.83675123 194.27497073 203.83536243 198.26790237 C203.84614826 199.44179016 203.85693409 200.61567795 203.86804676 201.82513809 C203.82597461 213.02465106 201.09966739 222.29462052 193.22916126 230.49080276 C184.50284896 238.68175848 176.13591635 243.13142776 163.99088001 243.13142776 C152.75576849 242.5595451 144.44635501 238.94577075 135.49478626 232.13142776 C135.16478626 231.14142776 134.83478626 230.15142776 134.49478626 229.13142776 C133.86830189 228.82334183 133.24181751 228.51525589 132.59634876 228.19783401 C129.9814003 226.87091779 129.26595331 225.62256233 127.86978626 223.06892776 C127.46502064 222.3560762 127.06025501 221.64322464 126.64322376 220.90877151 C123.34465657 212.93162432 123.21463236 204.98269071 123.26773548 196.45149612 C123.26744343 195.21147842 123.26715137 193.97146072 123.26685047 192.69386673 C123.26799862 189.32044232 123.27797464 185.94726782 123.29199839 182.57388759 C123.3045676 179.03851491 123.3056811 175.50313831 123.3080492 171.96774673 C123.31424588 165.28502175 123.33063196 158.60236283 123.35074818 151.91966683 C123.37316384 144.30655304 123.38411481 136.69343597 123.39413905 129.08029735 C123.41499996 113.43063601 123.45014039 97.78104043 123.49478626 82.13142776 C122.86439662 82.13511494 122.23400698 82.13880211 121.58451462 82.14260101 C106.18239078 82.2312825 90.78035685 82.29729696 75.37804031 82.33867645 C67.929313 82.35922373 60.48075704 82.38719254 53.03213978 82.43318558 C46.53316959 82.47329539 40.03432362 82.49891737 33.53523308 82.50778174 C30.10007458 82.51295611 26.66527114 82.52494954 23.23022747 82.55434799 C-4.30411148 82.76384976 -4.30411148 82.76384976 -16.50521374 78.13142776 C-16.50521374 77.47142776 -16.50521374 76.81142776 -16.50521374 76.13142776 C-17.22708874 75.86330276 -17.94896374 75.59517776 -18.69271374 75.31892776 C-21.50287757 74.13241415 -23.9893793 72.85657138 -26.50521374 71.13142776 C-26.50521374 70.47142776 -26.50521374 69.81142776 -26.50521374 69.13142776 C-27.49521374 68.80142776 -28.48521374 68.47142776 -29.50521374 68.13142776 C-30.56429577 66.58089066 -30.56429577 66.58089066 -31.51302624 64.60408401 C-31.85978405 63.89445511 -32.20654186 63.1848262 -32.56380749 62.45369339 C-32.91572155 61.70797073 -33.26763561 60.96224808 -33.63021374 60.19392776 C-33.98986217 59.4520723 -34.34951061 58.71021683 -34.72005749 57.94588089 C-35.38621884 56.56989592 -36.04826363 55.1919053 -36.70492077 53.81135941 C-37.29221847 52.57853589 -37.89451374 51.35282775 -38.50521374 50.13142776 C-39.97708351 35.41273 -37.62860647 24.60877101 -28.69661999 12.72517776 C-22.8250476 6.32475705 -16.01563468 3.73931497 -7.50521374 3.13142776 C-7.50521374 2.47142776 -7.50521374 1.81142776 -7.50521374 1.13142776 C-4.87959699 -0.18138061 -2.94192951 0.00358743 0 0 Z " transform="translate(125.5052137374878,71.86857223510742)"/>
<path d="M0 0 C6.86475976 4.53425183 6.86475976 4.53425183 8.28125 7.41015625 C9.54171685 9.89042973 10.75436004 10.15502495 13.25 11.31640625 C15.02005176 12.72483453 16.74711758 14.18828924 18.4375 15.69140625 C19.75814453 16.84769531 19.75814453 16.84769531 21.10546875 18.02734375 C23.26729021 20.33486174 23.66681482 21.33495392 24.25 24.31640625 C26.64068734 25.4227702 26.64068734 25.4227702 29.25 26.31640625 C31.0625 27.81640625 31.0625 27.81640625 32.25 29.31640625 C32.25 29.97640625 32.25 30.63640625 32.25 31.31640625 C33.178125 31.68765625 33.178125 31.68765625 34.125 32.06640625 C36.60068687 33.52269264 37.20125002 34.69453131 38.25 37.31640625 C38.91 37.31640625 39.57 37.31640625 40.25 37.31640625 C40.25 37.97640625 40.25 38.63640625 40.25 39.31640625 C40.86875 39.62578125 41.4875 39.93515625 42.125 40.25390625 C43.5 40.94140625 44.875 41.62890625 46.25 42.31640625 C46.25 42.97640625 46.25 43.63640625 46.25 44.31640625 C46.91 44.31640625 47.57 44.31640625 48.25 44.31640625 C49.39353517 45.39063626 50.52635494 46.47806746 51.609375 47.61328125 C52.90733753 48.96068998 54.23733356 50.27723421 55.578125 51.58203125 C56.39796875 52.38125 57.2178125 53.18046875 58.0625 54.00390625 C58.85269531 54.77089844 59.64289063 55.53789062 60.45703125 56.328125 C62.25 58.31640625 62.25 58.31640625 62.25 60.31640625 C62.82878906 60.57808594 63.40757812 60.83976562 64.00390625 61.109375 C66.38570631 62.38933364 68.17316646 63.82996679 70.1875 65.62890625 C70.83589844 66.20253906 71.48429688 66.77617187 72.15234375 67.3671875 C75.09802776 70.1044246 77.91322954 72.9638601 80.73950195 75.82348633 C82.30413234 77.40582116 83.87078537 78.98613537 85.4375 80.56640625 C85.97052734 81.1078125 86.50355469 81.64921875 87.05273438 82.20703125 C89.87507537 85.12397726 89.87507537 85.12397726 93.25 87.31640625 C93.25 87.97640625 93.25 88.63640625 93.25 89.31640625 C93.84006836 89.57977783 94.43013672 89.84314941 95.03808594 90.11450195 C97.34572815 91.36842277 98.81727394 92.66835886 100.640625 94.546875 C101.26420898 95.18206055 101.88779297 95.81724609 102.53027344 96.47167969 C103.1802832 97.14231445 103.83029297 97.81294922 104.5 98.50390625 C109.10492366 103.18879964 113.69398623 107.79650282 118.734375 112.01953125 C120.33562945 113.38967681 121.84574138 114.74295984 123.25 116.31640625 C123.25 116.97640625 123.25 117.63640625 123.25 118.31640625 C123.806875 118.54328125 124.36375 118.77015625 124.9375 119.00390625 C127.26327046 120.32393813 128.8617907 121.83896122 130.69921875 123.76171875 C132.63901686 125.706403 134.68699468 127.50315116 136.75 129.31640625 C140.03751751 132.21268201 143.15177456 135.21818081 146.25 138.31640625 C148.22051643 140.02293005 150.22788163 141.67049595 152.25 143.31640625 C152.4665625 142.76339844 152.683125 142.21039063 152.90625 141.640625 C154.68427045 138.56526987 157.11739789 136.45338545 159.75 134.12890625 C160.28173828 133.6498584 160.81347656 133.17081055 161.36132812 132.67724609 C163.93607178 130.36105089 166.53090942 128.06793881 169.125 125.7734375 C169.99125 125.00386719 170.8575 124.23429688 171.75 123.44140625 C172.5234375 122.76335937 173.296875 122.0853125 174.09375 121.38671875 C176.34607568 119.31597702 176.34607568 119.31597702 178.35546875 116.671875 C180.25 114.31640625 180.25 114.31640625 183.0625 112.50390625 C186.48954174 110.15201486 188.67330286 107.62516205 191.32421875 104.46875 C194.05179585 101.42028148 197.09561744 98.80410738 200.18359375 96.12890625 C201.82397667 94.69008267 203.39460185 93.1718044 204.9375 91.62890625 C207.25 89.31640625 207.25 89.31640625 210.3125 86.81640625 C213.05488167 84.48246441 215.02106436 82.12055108 217.25 79.31640625 C221.79054054 75.31640625 221.79054054 75.31640625 224.25 75.31640625 C224.51167969 74.72859375 224.77335937 74.14078125 225.04296875 73.53515625 C228.01705949 68.06821923 233.44025504 64.11357332 238.25 60.31640625 C241.04057982 57.57469823 243.77533377 54.77989914 246.51171875 51.984375 C247.65358306 50.82415696 248.79551099 49.66400154 249.9375 48.50390625 C250.51822266 47.90642578 251.09894531 47.30894531 251.69726562 46.69335938 C253.17725576 45.19625952 254.70982782 43.75151894 256.25 42.31640625 C256.91 42.31640625 257.57 42.31640625 258.25 42.31640625 C258.25 41.65640625 258.25 40.99640625 258.25 40.31640625 C259.68773255 39.07928755 261.13185681 37.84851141 262.61328125 36.6640625 C264.43228903 35.2104398 264.43228903 35.2104398 266.625 32.94140625 C268.77112471 30.79528154 270.94383757 28.84389484 273.25 26.87890625 C275.69003768 24.77118714 277.67126162 22.8108923 279.75 20.31640625 C283.23628804 16.13286061 287.33192643 11.62765846 292.37109375 9.36328125 C294.75031332 8.0376454 295.07656839 6.72719181 296.25 4.31640625 C299.0286338 1.96661022 302.12673634 0.17348194 305.25 -1.68359375 C306.20326172 -2.31394531 306.20326172 -2.31394531 307.17578125 -2.95703125 C312.52762307 -5.98151901 317.8678101 -6.06720218 323.875 -6.12109375 C324.68694824 -6.13124512 325.49889648 -6.14139648 326.33544922 -6.15185547 C331.7315281 -6.07361949 335.43482885 -5.12039759 340.25 -2.68359375 C341.09304688 -2.28140625 341.93609375 -1.87921875 342.8046875 -1.46484375 C350.75016624 2.92255865 357.72021838 9.79927151 361.25 18.31640625 C361.60543427 20.64647536 361.9413753 22.97967641 362.25 25.31640625 C362.58 25.64640625 362.91 25.97640625 363.25 26.31640625 C364.15362162 37.53020244 362.77090283 47.3313359 357.25 57.31640625 C355.63161281 59.02999268 353.95328319 60.68717885 352.25 62.31640625 C351.57839844 63.00863281 350.90679687 63.70085937 350.21484375 64.4140625 C349.14943359 65.51041016 349.14943359 65.51041016 348.0625 66.62890625 C347.05123047 67.67498047 347.05123047 67.67498047 346.01953125 68.7421875 C344.25 70.31640625 344.25 70.31640625 342.25 70.31640625 C342.25 70.97640625 342.25 71.63640625 342.25 72.31640625 C340.89453125 73.6484375 340.89453125 73.6484375 339.0625 75.12890625 C335.94762705 77.71105445 333.07624939 80.41578187 330.25 83.31640625 C326.057021 87.57015306 321.73191231 91.66980995 317.375 95.75390625 C316.69308594 96.39650391 316.01117188 97.03910156 315.30859375 97.70117188 C311.49466431 101.27900092 307.62939086 104.74825489 303.59326172 108.07446289 C302.11271591 109.29669352 302.11271591 109.29669352 301.25 111.31640625 C300.59 111.31640625 299.93 111.31640625 299.25 111.31640625 C299.01667969 111.88746094 298.78335937 112.45851563 298.54296875 113.046875 C296.94041688 115.85981347 295.01237819 117.51668355 292.5625 119.62890625 C289.42099754 122.3811159 286.35857896 125.14348635 283.4375 128.12890625 C280.85857759 130.75614571 278.14180719 133.03340058 275.25 135.31640625 C272.63047281 137.87044526 270.09003669 140.48380972 267.5625 143.12890625 C265.25 145.31640625 265.25 145.31640625 263.25 145.31640625 C262.59 146.63640625 261.93 147.95640625 261.25 149.31640625 C260.59 149.31640625 259.93 149.31640625 259.25 149.31640625 C258.59 150.63640625 257.93 151.95640625 257.25 153.31640625 C256.59 153.31640625 255.93 153.31640625 255.25 153.31640625 C255.25 153.97640625 255.25 154.63640625 255.25 155.31640625 C254.63125 155.39890625 254.0125 155.48140625 253.375 155.56640625 C251.10609195 156.10238468 251.10609195 156.10238468 250.25 158.12890625 C249.92 158.85078125 249.59 159.57265625 249.25 160.31640625 C247.25 162.56640625 247.25 162.56640625 245.25 164.31640625 C244.59 164.31640625 243.93 164.31640625 243.25 164.31640625 C243.023125 164.87328125 242.79625 165.43015625 242.5625 166.00390625 C239.35103709 171.66219804 233.34516771 176.08839218 228.625 180.50390625 C227.92076904 181.16374512 227.21653809 181.82358398 226.4909668 182.50341797 C221.56607275 187.10911111 216.59997228 191.66367523 211.58203125 196.16796875 C209.9139305 197.70474499 208.28493778 199.28440626 206.68359375 200.890625 C204.1389165 203.42713314 201.47253139 205.70262495 198.703125 207.984375 C197.12220817 209.27437535 197.12220817 209.27437535 196.25 211.31640625 C195.59 211.31640625 194.93 211.31640625 194.25 211.31640625 C193.981875 211.95578125 193.71375 212.59515625 193.4375 213.25390625 C192.25 215.31640625 192.25 215.31640625 189.25 216.31640625 C189.25 216.97640625 189.25 217.63640625 189.25 218.31640625 C187.74609375 219.83203125 187.74609375 219.83203125 185.6875 221.56640625 C182.57465712 224.1842682 182.57465712 224.1842682 179.546875 226.8984375 C169.83175189 235.83540754 160.18609645 238.82969677 147.30078125 238.59375 C135.14872727 238.0287343 124.65556536 229.49009395 116.25 221.31640625 C114.91666667 219.64973958 113.58333333 217.98307292 112.25 216.31640625 C110.45175316 214.65336594 108.59578737 213.06855992 106.734375 211.4765625 C103.62343105 208.77160652 100.59098075 205.98801292 97.5625 203.19140625 C96.7427771 202.43718384 96.7427771 202.43718384 95.90649414 201.66772461 C92.61128762 198.6220259 89.40388084 195.50958779 86.25 192.31640625 C84.10640543 190.14751137 81.95997275 187.98146065 79.8125 185.81640625 C79.26529297 185.26082031 78.71808594 184.70523438 78.15429688 184.1328125 C74.67412069 180.63204356 71.07719457 177.43385004 67.25 174.31640625 C64.875 172.12890625 64.875 172.12890625 63.25 170.31640625 C63.25 169.65640625 63.25 168.99640625 63.25 168.31640625 C62.6725 168.04828125 62.095 167.78015625 61.5 167.50390625 C59.19449957 166.28711436 57.22943808 165.01306746 55.25 163.31640625 C55.25 162.65640625 55.25 161.99640625 55.25 161.31640625 C54.59 161.31640625 53.93 161.31640625 53.25 161.31640625 C53.023125 160.53265625 52.79625 159.74890625 52.5625 158.94140625 C51.52065739 156.12417163 51.52065739 156.12417163 48.9375 155.4140625 C45.79723137 154.13148185 44.2533652 152.5887192 41.9375 150.12890625 C39.03971523 147.12003973 36.12230691 144.26992704 32.9375 141.56640625 C29.9774193 139.03085579 27.68714723 136.36284029 25.25 133.31640625 C22.65478941 130.9001757 19.94920712 128.61520743 17.25 126.31640625 C15.57781612 124.88532795 13.9110748 123.44786419 12.25 122.00390625 C11.486875 121.34777344 10.72375 120.69164062 9.9375 120.015625 C8.25 118.31640625 8.25 118.31640625 8.25 116.31640625 C7.693125 116.08953125 7.13625 115.86265625 6.5625 115.62890625 C3.59425759 113.94422813 1.63582311 111.76067172 -0.75 109.31640625 C-2.64272919 107.3966616 -4.5402719 105.48170319 -6.4375 103.56640625 C-6.92283203 103.07269531 -7.40816406 102.57898438 -7.90820312 102.0703125 C-10.56840217 99.35025349 -10.56840217 99.35025349 -13.75 97.31640625 C-13.75 96.65640625 -13.75 95.99640625 -13.75 95.31640625 C-15.07 94.65640625 -16.39 93.99640625 -17.75 93.31640625 C-17.75 92.65640625 -17.75 91.99640625 -17.75 91.31640625 C-18.74 90.98640625 -19.73 90.65640625 -20.75 90.31640625 C-20.75 89.65640625 -20.75 88.99640625 -20.75 88.31640625 C-21.389375 88.04828125 -22.02875 87.78015625 -22.6875 87.50390625 C-24.75 86.31640625 -24.75 86.31640625 -25.75 83.31640625 C-27.05783414 82.6010098 -28.39592439 81.93986552 -29.75 81.31640625 C-31.03187437 80.35760591 -32.2831293 79.35646668 -33.5 78.31640625 C-34.11359375 77.80078125 -34.7271875 77.28515625 -35.359375 76.75390625 C-36.75 75.31640625 -36.75 75.31640625 -36.75 73.31640625 C-37.306875 73.08953125 -37.86375 72.86265625 -38.4375 72.62890625 C-41.41504189 70.93895004 -43.38624916 68.79271665 -45.75 66.31640625 C-46.29527344 65.79175781 -46.84054688 65.26710938 -47.40234375 64.7265625 C-48.88974595 63.29515662 -50.32387006 61.80886781 -51.75 60.31640625 C-51.75 59.65640625 -51.75 58.99640625 -51.75 58.31640625 C-52.74 57.98640625 -53.73 57.65640625 -54.75 57.31640625 C-57.06940842 53.53662957 -58.14168975 50.75555669 -57.75 46.31640625 C-58.41 46.31640625 -59.07 46.31640625 -59.75 46.31640625 C-63.73440071 35.50389947 -62.1957372 25.96236272 -57.49609375 15.765625 C-52.1611905 5.22710248 -45.18834861 0.30036807 -34.75 -4.68359375 C-22.99082256 -8.18266606 -10.24666783 -6.27317306 0 0 Z " transform="translate(135.75,271.68359375)"/>
<path d="M0 0 C0.99 0 1.98 0 3 0 C3 0.99 3 1.98 3 3 C2.01 3 1.02 3 0 3 C0 2.01 0 1.02 0 0 Z " transform="translate(283,520)"/>
</svg>
