<?xml version="1.0" encoding="UTF-8"?>
<svg version="1.1" xmlns="http://www.w3.org/2000/svg" width="576" height="576" viewBox="0 0 576 576">
<path d="M0 0 C6.09379068 5.93833684 9.6664567 13.04381205 13.17871094 20.69360352 C14.2214894 22.91627086 15.2672337 25.1375484 16.31542969 27.35766602 C16.59277954 27.9462439 16.87012939 28.53482178 17.15588379 29.14123535 C20.80271562 36.84876391 24.65847314 44.45240057 28.49121094 52.06860352 C33.63595979 62.3055519 38.71444998 72.5635774 43.59960938 82.92773438 C47.57233471 91.35119138 51.70092271 99.70024839 55.98046875 107.97241211 C56.53105957 109.04676514 56.53105957 109.04676514 57.09277344 110.14282227 C57.43131348 110.79726318 57.76985352 111.4517041 58.11865234 112.12597656 C58.86621094 113.81860352 58.86621094 113.81860352 58.86621094 115.81860352 C59.88787354 115.9246843 60.90953613 116.03076508 61.9621582 116.14006042 C74.95000182 117.51938359 87.87381399 119.28095319 100.80371094 121.11938477 C101.91107605 121.27679831 103.01844116 121.43421185 104.15936279 121.59639549 C110.00054301 122.42806523 115.84105053 123.26430929 121.68115234 124.10351562 C126.48422401 124.7926943 131.28855108 125.47188494 136.09423828 126.14257812 C141.94630187 126.95936983 147.79568824 127.79327282 153.64358521 128.63936424 C155.85617231 128.95663006 158.06961409 129.26799753 160.28390503 129.57314491 C163.37905056 130.00096435 166.47026936 130.45078463 169.56152344 130.90576172 C170.46041794 131.02490433 171.35931244 131.14404694 172.28544617 131.26679993 C181.07383347 132.60600643 189.1702032 135.77567247 194.68652344 143.00610352 C199.20875992 149.95417547 200.72257497 157.33831734 199.17871094 165.44360352 C197.180101 172.96778211 193.81379103 177.14934603 187.94042969 182.00219727 C185.86763623 183.81735537 184.13919234 185.71293453 182.36621094 187.81860352 C180.2036649 190.375362 178.02610796 192.62188851 175.45214844 194.76000977 C171.69031197 198.00461538 168.17737722 201.44153817 164.68652344 204.97094727 C164.1432843 205.51973541 163.60004517 206.06852356 163.04034424 206.63394165 C160.77582721 208.92603832 158.51525127 211.22194572 156.25878906 213.52197266 C154.59316963 215.21760537 152.92153507 216.90711652 151.24902344 218.59594727 C150.73759796 219.12083237 150.22617249 219.64571747 149.69924927 220.18650818 C148.45903265 221.4355551 147.16687199 222.63262868 145.86621094 223.81860352 C145.20621094 223.81860352 144.54621094 223.81860352 143.86621094 223.81860352 C143.53621094 224.80860352 143.20621094 225.79860352 142.86621094 226.81860352 C141.41308594 228.24829102 141.41308594 228.24829102 139.61621094 229.69360352 C137.48656247 231.41805338 135.52573577 233.16064854 133.58935547 235.10595703 C130.89510139 237.78982444 128.12069204 240.35337904 125.31152344 242.91625977 C123.73848881 244.39340896 122.17168508 245.87684804 120.60742188 247.36328125 C119.53042678 248.37471305 118.44208351 249.37419587 117.34277344 250.36132812 C110.89696663 255.95527834 110.89696663 255.95527834 107.25585938 263.41601562 C107.45608103 266.67198705 108.12654298 269.63836731 108.86621094 272.81860352 C109.15264753 274.47151266 109.42646695 276.12663432 109.69091797 277.78320312 C110.5020102 282.83974581 111.37987479 287.8821256 112.275177 292.92437744 C112.87678902 296.3157334 113.47104834 299.70830414 114.06323242 303.10131836 C114.89784003 307.88192682 115.73427303 312.66220798 116.57275391 317.44213867 C118.50241259 328.44555926 120.42960755 339.44930282 122.32592773 350.45852661 C122.72505075 352.76611317 123.12735091 355.07315265 123.53295898 357.37960815 C124.1009947 360.61059085 124.65855322 363.84322602 125.21386719 367.07641602 C125.38217545 368.01909836 125.5504837 368.9617807 125.72389221 369.93302917 C127.63715451 381.2311296 127.74803685 390.23920731 121.30371094 400.00610352 C116.74087943 405.64843418 111.55423038 408.19058649 104.44824219 409.40063477 C97.06943582 409.85938037 91.89100608 408.79898995 85.40527344 405.29516602 C84.71985474 404.93861435 84.03443604 404.58206268 83.32824707 404.21470642 C81.88912221 403.46563141 80.45259402 402.71154798 79.01861572 401.95266724 C76.25825263 400.49828112 73.47726561 399.08652349 70.6947937 397.67503357 C67.93809922 396.27466137 65.18852771 394.86059991 62.43896484 393.44628906 C61.05785603 392.73653903 59.6760194 392.02820346 58.29345703 391.32128906 C49.8884868 387.02372062 41.5733988 382.60938259 33.38037109 377.91822815 C27.81822838 374.74232406 22.12011798 371.88944812 16.37011719 369.06860352 C9.77735991 365.8017176 3.27471865 362.3586137 -3.24145508 358.94238281 C-4.17787842 358.45165283 -5.11430176 357.96092285 -6.07910156 357.45532227 C-7.32457764 356.80116333 -7.32457764 356.80116333 -8.59521484 356.13378906 C-9.85180908 355.48277222 -9.85180908 355.48277222 -11.13378906 354.81860352 C-12.08302246 354.20726562 -13.03225586 353.59592773 -14.01025391 352.96606445 C-17.15347447 351.45414301 -17.15347447 351.45414301 -20.49511719 352.84814453 C-21.73141167 353.48153298 -22.95425894 354.1416159 -24.16503906 354.82250977 C-24.82981766 355.17177521 -25.49459625 355.52104065 -26.17951965 355.88088989 C-28.34378735 357.02517919 -30.48810121 358.20239986 -32.63378906 359.38110352 C-34.12251596 360.17654243 -35.61235235 360.96990817 -37.10327148 361.76123047 C-40.78973063 363.72540094 -44.46060361 365.71661983 -48.12542725 367.7208252 C-51.00549397 369.29508078 -53.89235086 370.85676438 -56.77832031 372.42016602 C-60.41623964 374.3969988 -64.04676794 376.38656503 -67.67285156 378.38500977 C-72.07507762 380.80211559 -76.53806689 383.06987575 -81.04785156 385.27954102 C-85.12971489 387.31530576 -89.16221061 389.44003508 -93.19628906 391.56860352 C-93.99719971 391.99093262 -94.79811035 392.41326172 -95.62329102 392.84838867 C-99.8862466 395.09855222 -104.14560643 397.35541495 -108.40332031 399.61547852 C-109.25853271 400.06826172 -110.11374512 400.52104492 -110.99487305 400.98754883 C-112.63226212 401.85450476 -114.2685516 402.72354169 -115.90356445 403.5949707 C-125.12180015 408.47221728 -134.28905648 411.12099099 -144.71582031 408.06079102 C-146.66792608 407.112732 -148.37571394 406.08686667 -150.13378906 404.81860352 C-151.04128906 404.19985352 -151.94878906 403.58110352 -152.88378906 402.94360352 C-157.94801865 398.16072002 -160.74822865 392.79012396 -161.29066467 385.79580688 C-161.42446873 377.95135246 -160.10261032 370.42079016 -158.75488281 362.71704102 C-158.50392503 361.24715886 -158.25368207 359.77715451 -158.00410461 358.30703735 C-157.33944147 354.40418199 -156.66467513 350.50313718 -155.98796082 346.60235596 C-155.29157126 342.57657301 -154.60541524 338.5490463 -153.91796875 334.52172852 C-151.57801262 320.83501975 -149.20491729 307.15429754 -146.77832031 293.48266602 C-146.52670387 292.06164078 -146.52670387 292.06164078 -146.27000427 290.61190796 C-145.52770835 286.42427698 -144.77881276 282.238096 -144.0144043 278.05444336 C-143.75721274 276.62168342 -143.50012483 275.18890487 -143.24316406 273.75610352 C-143.0262793 272.56887695 -142.80939453 271.38165039 -142.5859375 270.15844727 C-142.11020474 266.64439535 -141.93352414 263.35976167 -142.13378906 259.81860352 C-143.86254445 257.45995775 -143.86254445 257.45995775 -146.32128906 255.69360352 C-149.82256178 252.89490791 -152.98029011 250.00786783 -156.13378906 246.81860352 C-157.16885869 245.77758443 -158.20427664 244.7369116 -159.23999023 243.6965332 C-159.79373825 243.1395575 -160.34748627 242.58258179 -160.91801453 242.00872803 C-163.39818902 239.51514789 -165.88104595 237.02424571 -168.36401367 234.53344727 C-169.67512011 233.21727106 -170.98533364 231.90020481 -172.29467773 230.58227539 C-174.19053809 228.67433647 -176.08956524 226.76960082 -177.98925781 224.86547852 C-178.57571579 224.27385925 -179.16217377 223.68223999 -179.7664032 223.07269287 C-182.67014583 220.07775382 -182.67014583 220.07775382 -186.13378906 217.81860352 C-186.13378906 217.15860352 -186.13378906 216.49860352 -186.13378906 215.81860352 C-186.99761452 215.44078987 -186.99761452 215.44078987 -187.87889099 215.05534363 C-190.42368965 213.65960223 -192.1490332 212.07117958 -194.2121582 210.03076172 C-195.00300308 209.25267654 -195.79384796 208.47459137 -196.60865784 207.67292786 C-197.4535527 206.83025864 -198.29844757 205.98758942 -199.16894531 205.11938477 C-200.0440123 204.25097458 -200.91907928 203.38256439 -201.82066345 202.48783875 C-203.66994838 200.64867819 -205.51652664 198.80679265 -207.3605957 196.96240234 C-210.17617512 194.14658011 -213.01207515 191.35160022 -215.84667969 188.55493164 C-217.64258179 186.76489892 -219.43753535 184.97391394 -221.23144531 183.18188477 C-222.07836441 182.3493367 -222.92528351 181.51678864 -223.79786682 180.65901184 C-229.89145055 174.51782655 -233.49208648 169.82363102 -233.54394531 160.80883789 C-233.53234375 160.13143555 -233.52074219 159.4540332 -233.50878906 158.75610352 C-233.52039063 158.07483398 -233.53199219 157.39356445 -233.54394531 156.69165039 C-233.50623036 150.14810619 -231.13558851 145.61785214 -227.00878906 140.69360352 C-226.49058594 140.05165039 -225.97238281 139.40969727 -225.43847656 138.74829102 C-217.32698747 131.95663743 -206.63308987 131.370134 -196.54785156 129.97875977 C-194.80593613 129.72856043 -193.06418892 129.47718739 -191.32260132 129.22471619 C-186.73128223 128.56233731 -182.13787095 127.91578668 -177.54382324 127.27264404 C-173.00084836 126.63395932 -168.45998639 125.98063567 -163.91894531 125.32836914 C-156.79684075 124.30706597 -149.6734127 123.29559773 -142.54882812 122.29174805 C-135.63205668 121.3170906 -128.71752487 120.32810056 -121.8046875 119.32592773 C-120.16987737 119.08959123 -118.53506102 118.85329773 -116.90023804 118.61705017 C-114.58420537 118.28233686 -112.26831125 117.94680133 -109.9528389 117.6082325 C-107.86295406 117.30274006 -105.77260568 117.00062964 -103.68212891 116.69921875 C-102.50806488 116.52833237 -101.33400085 116.35744598 -100.12435913 116.18138123 C-97.13378906 115.81860352 -97.13378906 115.81860352 -93.13378906 115.81860352 C-92.87726563 114.9768457 -92.62074219 114.13508789 -92.35644531 113.26782227 C-91.04023808 109.55468813 -89.37345986 106.12280943 -87.57128906 102.63110352 C-84.49069891 96.57223063 -81.52245966 90.4712346 -78.63378906 84.31860352 C-75.58621804 77.83812894 -72.45501635 71.41059958 -69.22363281 65.02001953 C-66.43264653 59.47581868 -63.78043233 53.87036273 -61.13378906 48.25610352 C-57.9335717 41.48157002 -54.62938342 34.79816005 -51.03442383 28.22436523 C-49.308031 25.05923908 -47.66044745 21.87709922 -46.10644531 18.62329102 C-37.1158465 -0.19148632 -37.1158465 -0.19148632 -27.08691406 -4.49780273 C-18.0410183 -7.66386625 -7.29557259 -6.45603488 0 0 Z " transform="translate(233.1337890625,167.181396484375)"/>
<path d="M0 0 C3.92097324 3.17312273 5.5660962 7.02620233 7.390625 11.59765625 C7.69566956 12.34028214 8.00071411 13.08290802 8.31500244 13.84803772 C8.96448392 15.43179635 9.60977996 17.01727683 10.2512207 18.60430908 C11.25659949 21.07874264 12.2843778 23.54276637 13.31835938 26.00537109 C18.95932731 39.50469386 18.95932731 39.50469386 20.953125 46.25390625 C23.10669951 53.30398664 24.99707413 58.21228392 31.64453125 61.9609375 C36.51017941 64.29353936 41.52217132 66.09054968 46.62792969 67.82128906 C52.66048519 69.92997556 58.5323997 72.43691088 64.4375 74.875 C66.13289917 75.5546582 66.13289917 75.5546582 67.86254883 76.24804688 C84.44964485 82.89928969 84.44964485 82.89928969 86 86 C86.58350101 93.23541247 86.58350101 93.23541247 84.4140625 96.078125 C81.44961194 98.43817302 78.61378059 99.55584645 75.0625 100.875 C73.70068942 101.39286238 72.34002563 101.91374951 70.98046875 102.4375 C69.96605713 102.82808594 69.96605713 102.82808594 68.93115234 103.2265625 C66.18783981 104.32527478 63.53744886 105.59424029 60.875 106.875 C54.17338772 110.03802747 47.28151397 112.62716687 40.33349609 115.19677734 C39.04113037 115.67751709 39.04113037 115.67751709 37.72265625 116.16796875 C36.95703369 116.44922607 36.19141113 116.7304834 35.40258789 117.02026367 C34.60973389 117.34357666 33.81687988 117.66688965 33 118 C31.97535645 118.40573242 30.95071289 118.81146484 29.89501953 119.22949219 C26.24800255 121.45989927 25.5211296 123.21621729 23.95703125 127.16015625 C23.70659561 127.77421326 23.45615997 128.38827026 23.19813538 129.02093506 C22.38424896 131.02783337 21.5989064 133.04469583 20.8125 135.0625 C20.25176323 136.45427837 19.68874954 137.84514143 19.12353516 139.23510742 C17.96876727 142.08085576 16.82367366 144.93017516 15.68701172 147.78320312 C13.14538355 154.15252295 10.51865278 160.48489932 7.875 166.8125 C7.42616455 167.91408447 6.9773291 169.01566895 6.51489258 170.15063477 C6.0948999 171.15924561 5.67490723 172.16785645 5.2421875 173.20703125 C4.8797998 174.0885083 4.51741211 174.96998535 4.14404297 175.87817383 C3 178 3 178 0 180 C-5.63181818 180.53636364 -5.63181818 180.53636364 -8 180 C-11.44168696 177.08500128 -12.99534866 174.26476182 -14.6640625 170.109375 C-15.14198242 168.93552246 -15.61990234 167.76166992 -16.11230469 166.55224609 C-16.6167659 165.28492203 -17.12099272 164.01750465 -17.625 162.75 C-18.14905115 161.45222681 -18.67412739 160.15486713 -19.20019531 158.85791016 C-20.00535685 156.87218282 -20.80963857 154.88614144 -21.60998535 152.89846802 C-23.36927948 148.53212142 -25.17246566 144.18667359 -27.0078125 139.8515625 C-27.47106934 138.75618164 -27.93432617 137.66080078 -28.41162109 136.53222656 C-29.28898882 134.46252218 -30.16941557 132.39411128 -31.05322266 130.32714844 C-31.44300293 129.40192383 -31.8327832 128.47669922 -32.234375 127.5234375 C-32.57694336 126.71825684 -32.91951172 125.91307617 -33.27246094 125.08349609 C-34 123 -34 123 -34 120 C-34.6386499 119.91008789 -35.2772998 119.82017578 -35.93530273 119.72753906 C-40.16946725 118.72237613 -44.03121834 117.04578856 -48.03515625 115.359375 C-48.90965927 114.99531555 -49.78416229 114.6312561 -50.68516541 114.25616455 C-53.47942626 113.09174021 -56.27098342 111.92098588 -59.0625 110.75 C-60.91323554 109.97744303 -62.76414536 109.20530339 -64.61523438 108.43359375 C-68.16394326 106.95403639 -71.70988252 105.46809457 -75.25439453 103.97851562 C-78.13062305 102.77260677 -81.01265902 101.58856993 -83.91357422 100.44335938 C-84.99268066 100.01345703 -86.07178711 99.58355469 -87.18359375 99.140625 C-88.0852124 98.79032227 -88.98683105 98.44001953 -89.91577148 98.07910156 C-92 97 -92 97 -94 94 C-94.67765491 86.88462341 -94.67765491 86.88462341 -92.4140625 83.9296875 C-89.49489353 81.59624175 -86.46801485 80.33598036 -83 79.0625 C-81.64034584 78.54109194 -80.2809735 78.01894846 -78.921875 77.49609375 C-78.25220703 77.2419873 -77.58253906 76.98788086 -76.89257812 76.72607422 C-74.32428629 75.74076721 -71.7865625 74.68906647 -69.25 73.625 C-68.29996094 73.22667969 -67.34992188 72.82835938 -66.37109375 72.41796875 C-65.25863281 71.95003906 -64.14617187 71.48210937 -63 71 C-61.44924812 70.35019032 -59.89846435 69.70045674 -58.34765625 69.05078125 C-56.66921481 68.34648767 -54.99082952 67.64206026 -53.3125 66.9375 C-52.1363916 66.44467529 -52.1363916 66.44467529 -50.93652344 65.94189453 C-49.38646496 65.29000991 -47.8424754 64.62350434 -46.30493164 63.94262695 C-44 63 -44 63 -41.64624023 62.37573242 C-37.48698115 61.09882455 -35.52378152 59.84999694 -33.20385742 56.08520508 C-31.44601228 52.25049942 -29.91472273 48.38586614 -28.4375 44.4375 C-27.88284977 43.02729726 -27.32496696 41.61836181 -26.76391602 40.21069336 C-25.65838669 37.42694869 -24.56827395 34.63802813 -23.4921875 31.84277344 C-21.57353956 26.8738181 -19.51819289 21.96543358 -17.4375 17.0625 C-17.139646 16.34441162 -16.84179199 15.62632324 -16.53491211 14.88647461 C-9.50293396 -1.95437698 -9.50293396 -1.95437698 0 0 Z " transform="translate(382,0)"/>
<path d="M0 0 C2.80636469 0.65574462 3.39520475 2.10216242 4.97265625 4.4609375 C5.95861816 6.47828674 5.95861816 6.47828674 6.82617188 8.63110352 C7.32183655 9.84740196 7.32183655 9.84740196 7.82751465 11.08827209 C8.17447388 11.95504074 8.52143311 12.82180939 8.87890625 13.71484375 C9.63014351 15.55666707 10.38144762 17.39846312 11.1328125 19.24023438 C12.30681518 22.13832276 13.47829241 25.03741082 14.64794922 27.93725586 C15.78112224 30.74073067 16.92335313 33.54038589 18.06640625 36.33984375 C18.41336548 37.20863663 18.76032471 38.0774295 19.11779785 38.97254944 C19.61346252 40.18411964 19.61346252 40.18411964 20.11914062 41.42016602 C20.40543335 42.12979996 20.69172607 42.8394339 20.98669434 43.5705719 C22.8897995 47.21935842 25.26022353 48.80027096 29.01342773 50.31445312 C29.8211412 50.64489624 30.62885468 50.97533936 31.46104431 51.3157959 C32.32983719 51.66275513 33.19863007 52.00971436 34.09375 52.3671875 C34.9900563 52.7331604 35.88636261 53.0991333 36.80982971 53.47619629 C39.67374163 54.64497081 42.54150011 55.80386078 45.41015625 56.9609375 C48.2749847 58.11860426 51.13879519 59.27852137 53.99977112 60.44567871 C55.77930766 61.17151063 57.56108942 61.89186794 59.34532166 62.6060791 C60.15618729 62.93652222 60.96705292 63.26696533 61.80249023 63.60742188 C62.51291977 63.8937146 63.2233493 64.18000732 63.95530701 64.47497559 C66.25653622 65.59968137 68.08057269 66.72650187 69.97265625 68.4609375 C70.85167326 73.99874468 70.85167326 73.99874468 69.97265625 76.4609375 C66.00357969 79.39367671 62.02530417 81.44732677 57.46484375 83.30078125 C56.85810822 83.54961563 56.25137268 83.79845001 55.62625122 84.05482483 C53.70251342 84.84222903 51.77526272 85.62055908 49.84765625 86.3984375 C48.579176 86.91539997 47.31094482 87.43297403 46.04296875 87.95117188 C45.42009476 88.20415543 44.79722076 88.45713898 44.1554718 88.7177887 C42.90015167 89.23277745 41.64847059 89.75672461 40.40055847 90.28941345 C37.50984321 91.51032913 34.77062351 92.50634846 31.7043457 93.19555664 C27.32916557 94.33319412 24.23459026 95.5461193 21.66711426 99.44192505 C18.32218319 105.71750155 15.8912499 112.37239357 13.41015625 119.0234375 C12.24681862 122.01951932 11.07157278 125.01066387 9.89283752 128.00071716 C9.1664883 129.85589936 8.45140221 131.71554157 7.74913025 133.57997131 C7.42771561 134.42442307 7.10630096 135.26887482 6.77514648 136.13891602 C6.49823471 136.87884293 6.22132294 137.61876984 5.9360199 138.38111877 C4.398702 141.70005504 3.0571757 144.03283772 -0.40234375 145.3984375 C-3.87450223 145.48110794 -5.24642033 144.50995333 -8.02734375 142.4609375 C-9.50952148 139.97167969 -9.50952148 139.97167969 -10.7109375 137.0078125 C-11.16090088 135.92000488 -11.61086426 134.83219727 -12.07446289 133.71142578 C-12.53328857 132.55626465 -12.99211426 131.40110352 -13.46484375 130.2109375 C-13.94493896 129.03901855 -14.42503418 127.86709961 -14.91967773 126.65966797 C-16.30548991 123.26650228 -17.66987734 119.86552566 -19.02734375 116.4609375 C-19.68589112 114.8227933 -20.34470007 113.1847542 -21.00390625 111.546875 C-21.98325737 109.1083853 -22.94938526 106.6662794 -23.90625 104.21875 C-24.27621094 103.30867188 -24.64617187 102.39859375 -25.02734375 101.4609375 C-25.26243652 100.8011792 -25.4975293 100.1414209 -25.73974609 99.46166992 C-27.57963414 96.60276159 -29.63026123 95.98511927 -32.75 94.69140625 C-34.50691162 93.95156494 -34.50691162 93.95156494 -36.29931641 93.19677734 C-37.5627359 92.68044472 -38.82624668 92.16433541 -40.08984375 91.6484375 C-41.36688382 91.11531535 -42.64341345 90.58096888 -43.91943359 90.04541016 C-49.46317977 87.72570914 -55.02804177 85.45783836 -60.59375 83.19140625 C-61.77215454 82.71054565 -61.77215454 82.71054565 -62.97436523 82.2199707 C-64.38925402 81.64567272 -65.80662658 81.07744303 -67.22680664 80.51635742 C-69.98248102 79.41056351 -71.90276189 78.58551936 -74.02734375 76.4609375 C-74.7609682 70.77534798 -74.7609682 70.77534798 -74.02734375 68.4609375 C-69.50613423 64.74222476 -64.38845028 62.84884327 -58.96484375 60.7734375 C-58.10012451 60.42297363 -57.23540527 60.07250977 -56.34448242 59.71142578 C-51.72729915 57.84429548 -47.13079564 56.15827255 -42.36328125 54.71484375 C-31.25211368 51.10273925 -31.25211368 51.10273925 -23.91796875 42.453125 C-21.85746012 37.76439172 -20.29467277 32.95278694 -18.83886719 28.046875 C-17.75212045 24.58393232 -16.30662029 21.47213821 -14.71484375 18.2109375 C-12.56076245 13.67006251 -10.64375011 9.09525454 -8.88671875 4.38671875 C-6.92528142 -0.00868399 -4.48810015 0.18455739 0 0 Z " transform="translate(506.02734375,179.5390625)"/>
</svg>
