<?xml version="1.0" encoding="UTF-8"?>
<svg version="1.1" xmlns="http://www.w3.org/2000/svg" width="576" height="576" viewBox="0 0 576 576">
<path d="M0 0 C1.90652344 0.02900391 1.90652344 0.02900391 3.8515625 0.05859375 C7.47096888 0.57622504 9.50646561 1.32592242 12.375 3.5625 C12.375 4.2225 12.375 4.8825 12.375 5.5625 C13.06851563 5.7996875 13.76203125 6.036875 14.4765625 6.28125 C17.90723523 7.79777379 20.7567954 9.84013062 23.75 12.0625 C29.46880721 16.2373213 35.28346496 20.22149853 41.22412109 24.07421875 C44.12163065 25.97349364 46.86333657 27.91722002 49.5 30.16796875 C52.05490834 32.29590192 54.5017578 33.91547613 57.375 35.5625 C63.9096917 39.81420889 70.34591667 44.20536174 76.71875 48.6953125 C79.9067612 50.93629685 83.10836221 53.1571616 86.3125 55.375 C87.39402344 56.12394531 88.47554687 56.87289062 89.58984375 57.64453125 C93.34480783 60.64944817 93.34480783 60.64944817 97.8046875 61.34765625 C100.45030928 60.53949519 102.23842437 59.57794345 104.5 58 C105.27214844 57.46503906 106.04429687 56.93007812 106.83984375 56.37890625 C110.53473331 53.73156627 114.21170616 51.06055014 117.87890625 48.375 C120.66100841 46.3548194 123.49522565 44.4406137 126.375 42.5625 C127.13039063 42.04429688 127.88578125 41.52609375 128.6640625 40.9921875 C129.47617187 40.43789062 130.28828125 39.88359375 131.125 39.3125 C131.88296875 38.79171875 132.6409375 38.2709375 133.421875 37.734375 C135.375 36.5625 135.375 36.5625 137.375 36.5625 C137.375 35.9025 137.375 35.2425 137.375 34.5625 C138.80859375 33.484375 138.80859375 33.484375 140.8125 32.3125 C144.81613653 29.92173665 148.65753811 27.35140657 152.4921875 24.69921875 C154.375 23.5625 154.375 23.5625 156.375 23.5625 C156.705 22.5725 157.035 21.5825 157.375 20.5625 C160.4375 19.375 160.4375 19.375 163.375 18.5625 C163.375 17.9025 163.375 17.2425 163.375 16.5625 C165.5 15.01171875 165.5 15.01171875 168.375 13.25 C169.87546875 12.31994141 169.87546875 12.31994141 171.40625 11.37109375 C173.19775835 10.279688 174.98938802 9.18848132 176.78125 8.09765625 C177.4721875 7.67355469 178.163125 7.24945313 178.875 6.8125 C179.4834375 6.44640625 180.091875 6.0803125 180.71875 5.703125 C182.48843508 4.48437961 183.86737781 3.08687355 185.375 1.5625 C190.29063866 -0.89531933 198.34780904 -0.34950308 203.52734375 1.2109375 C207.52468722 3.59103514 208.99267745 7.34491227 210.375 11.5625 C211.52954805 16.30314996 212.45881131 21.08375245 213.375 25.875 C213.63998518 27.23062753 213.9053687 28.58617726 214.17114258 29.94165039 C215.70462979 37.81369325 217.13817309 45.69872913 218.40014648 53.61914062 C219.33603292 59.48225562 220.50671329 65.27408637 221.69921875 71.08984375 C222.30477024 74.20160836 222.80295304 77.29981525 223.25 80.4375 C224.39028004 88.29167027 226.05810095 96.04325756 227.69873047 103.80615234 C227.91416504 104.84852051 228.12959961 105.89088867 228.3515625 106.96484375 C228.54830566 107.89804443 228.74504883 108.83124512 228.94775391 109.79272461 C229.40479865 112.75568038 229.44724828 115.56915992 229.375 118.5625 C230.36705444 118.62945068 230.36705444 118.62945068 231.37915039 118.69775391 C238.3521272 119.24011695 244.99496019 120.40983894 251.8125 121.9375 C260.34933787 123.78929425 268.85848007 125.32193271 277.5065918 126.54077148 C283.22079094 127.35659216 288.80637413 128.4750281 294.4375 129.75 C299.62996746 130.87059661 304.8823377 131.65446199 310.125 132.5 C317.63018382 133.72982871 325.1182136 135.00162633 332.5625 136.5625 C333.64772949 136.77507446 333.64772949 136.77507446 334.75488281 136.99194336 C340.6792254 138.28709492 344.02858766 140.54288149 347.375 145.5625 C348.59584201 153.6380697 348.43898087 159.98449658 343.8125 166.875 C342.35575019 168.78811214 340.87682313 170.68456354 339.375 172.5625 C338.11374282 174.36718462 336.86298666 176.17927342 335.625 178 C333.83212574 180.55249752 332.01895032 183.00515636 330.0625 185.4375 C328.49390148 187.41277221 327.39618603 189.26483144 326.375 191.5625 C325.715 191.5625 325.055 191.5625 324.375 191.5625 C324.11460937 192.28566406 323.85421875 193.00882813 323.5859375 193.75390625 C322.33448175 196.65647619 320.8501486 198.94291689 319 201.5 C317.10443591 204.14678354 315.23024992 206.78195979 313.4375 209.5 C311.52108049 212.3455926 309.52743201 215.10788107 307.5 217.875 C304.51778279 221.95418804 301.65514677 226.08359157 298.87890625 230.3046875 C297.2072709 232.81431148 295.48413447 235.2831845 293.75 237.75 C293.16992188 238.58273437 292.58984375 239.41546875 291.9921875 240.2734375 C291.02021671 241.64922224 290.03062297 243.01314194 289.0078125 244.3515625 C287.28831218 246.66399397 286.32147132 247.96872811 286.5859375 250.90234375 C288.87993063 258.63605325 294.86219702 265.30504096 299.828125 271.5234375 C301.53066644 273.76769667 302.88041325 276.13505318 304.21484375 278.61328125 C306.38098898 282.25269697 308.98386365 285.59484097 311.49609375 289 C313.54781512 291.79818965 315.46470198 294.66624172 317.375 297.5625 C320.83706682 302.58202777 324.36549475 307.55253483 327.92895508 312.50048828 C332.44370456 318.77647174 336.81324739 325.1303917 341.0637207 331.58862305 C343.41813158 335.17577321 343.41813158 335.17577321 346.12109375 338.5 C348.04076021 341.65758221 347.9670629 344.84735623 348 348.4375 C348.04511719 349.13230469 348.09023438 349.82710938 348.13671875 350.54296875 C348.18844693 354.46692047 347.58121206 356.97554474 344.8203125 359.83984375 C339.03004705 364.16093737 331.56597612 364.94428229 324.625 366.25 C323.1301479 366.54762795 321.63560053 366.84679044 320.14135742 367.14746094 C310.90483117 368.98452459 301.63985172 370.5933 292.3203125 371.94921875 C287.37885559 372.71734621 282.53451441 373.79582247 277.65625 374.88671875 C274.46169754 375.54464444 271.29621189 376.01758838 268.0625 376.4375 C259.98759466 377.50556046 252.0460771 379.19671792 244.08081055 380.88623047 C243.04351807 381.10166504 242.00622559 381.31709961 240.9375 381.5390625 C240.01066406 381.73580566 239.08382813 381.93254883 238.12890625 382.13525391 C235.17146309 382.59407709 232.3631343 382.63456289 229.375 382.5625 C229.33109131 383.22024414 229.28718262 383.87798828 229.24194336 384.55566406 C228.69378663 391.637425 227.48581058 398.38803308 225.9375 405.3125 C224.23396561 413.1754756 222.8421473 420.91012275 221.89453125 428.8984375 C221.17773171 433.95376055 220.07124272 438.89944746 218.97631836 443.8840332 C217.56451884 450.41336259 216.43985862 456.96854764 215.375 463.5625 C214.87380647 466.58876117 214.36899019 469.61438399 213.86181641 472.63964844 C213.54307332 474.55338577 213.23002531 476.46808246 212.92333984 478.38378906 C212.49848312 480.99101348 212.03593717 483.58871932 211.5625 486.1875 C211.44583984 486.950625 211.32917969 487.71375 211.20898438 488.5 C210.24221366 493.52902323 208.43197309 496.36411658 204.33422852 499.48144531 C201.12305687 501.2532918 198.365463 501.24649723 194.75 501.125 C193.47898437 501.10566406 192.20796875 501.08632813 190.8984375 501.06640625 C187.27903112 500.54877496 185.24353439 499.79907758 182.375 497.5625 C182.375 496.9025 182.375 496.2425 182.375 495.5625 C181.69179688 495.33304688 181.00859375 495.10359375 180.3046875 494.8671875 C176.68464548 493.25506212 173.66129389 491.03961237 170.5 488.6875 C165.93433595 485.30589828 161.35754587 482.30226307 156.375 479.5625 C156.375 478.9025 156.375 478.2425 156.375 477.5625 C155.385 477.253125 155.385 477.253125 154.375 476.9375 C150.98097459 475.38190502 148.38245934 473.37199318 145.4453125 471.09375 C142.55752004 468.95787331 139.5308936 467.27194237 136.375 465.5625 C136.375 464.9025 136.375 464.2425 136.375 463.5625 C135.29025391 463.17191406 135.29025391 463.17191406 134.18359375 462.7734375 C131.28102381 461.52198175 128.99458311 460.0376486 126.4375 458.1875 C122.79666802 455.56794736 119.10922027 453.04726526 115.375 450.5625 C112.62607227 448.65838079 109.88131694 446.74879689 107.14257812 444.83007812 C103.95510644 442.61056937 100.73072619 440.51844469 97.375 438.5625 C95.60111914 439.66176403 93.83100316 440.76710502 92.0625 441.875 C91.07636719 442.48988281 90.09023438 443.10476563 89.07421875 443.73828125 C86.45762037 445.38220124 86.45762037 445.38220124 84.83203125 447.10546875 C82.90492998 449.03257002 80.71975923 450.17092193 78.375 451.5625 C77.21824984 452.37765268 76.07035414 453.20545789 74.9296875 454.04296875 C74.32769531 454.48447266 73.72570312 454.92597656 73.10546875 455.38085938 C71.85782657 456.30148797 70.61307166 457.22604104 69.37109375 458.15429688 C64.70300994 461.5625 64.70300994 461.5625 61.375 461.5625 C61.375 462.2225 61.375 462.8825 61.375 463.5625 C60.055 463.8925 58.735 464.2225 57.375 464.5625 C57.375 465.2225 57.375 465.8825 57.375 466.5625 C55.94140625 467.640625 55.94140625 467.640625 53.9375 468.8125 C49.93386347 471.20326335 46.09246189 473.77359343 42.2578125 476.42578125 C40.375 477.5625 40.375 477.5625 38.375 477.5625 C38.045 478.5525 37.715 479.5425 37.375 480.5625 C35.4765625 481.88671875 35.4765625 481.88671875 33 483.25 C27.99913521 486.11687507 23.42394115 489.36533727 18.8203125 492.828125 C16.71275309 494.3229435 14.6892335 495.44090876 12.375 496.5625 C11.3555881 497.54270375 10.35253644 498.54053008 9.375 499.5625 C6.45039571 501.02480215 3.81847176 500.77158727 0.5625 500.8125 C-0.66082031 500.83828125 -1.88414062 500.8640625 -3.14453125 500.890625 C-7.62593124 500.46813611 -10.11515191 499.1967055 -13.1574707 495.90380859 C-15.10075882 492.80347037 -15.62467272 489.95315955 -16.34375 486.3671875 C-16.48685608 485.66653671 -16.62996216 484.96588593 -16.77740479 484.2440033 C-17.23720261 481.97715243 -17.68149909 479.70759041 -18.125 477.4375 C-18.43724301 475.87838258 -18.75006974 474.31938194 -19.06347656 472.76049805 C-20.88454021 463.64064434 -22.57177179 454.50859935 -24.01171875 445.3203125 C-24.64556094 441.43651514 -25.39705569 437.60487618 -26.1875 433.75 C-27.07870255 429.40367371 -27.87424187 425.07950334 -28.5 420.6875 C-29.64028004 412.83332973 -31.30810095 405.08174244 -32.94873047 397.31884766 C-33.16416504 396.27647949 -33.37959961 395.23411133 -33.6015625 394.16015625 C-33.79830566 393.22695557 -33.99504883 392.29375488 -34.19775391 391.33227539 C-34.65479865 388.36931962 -34.69724828 385.55584008 -34.625 382.5625 C-35.20910645 382.51786621 -35.79321289 382.47323242 -36.39501953 382.42724609 C-43.22228426 381.83362916 -49.80158432 380.60689999 -56.5 379.1875 C-64.414478 377.55196236 -72.31008854 376.06991672 -80.3125 374.9375 C-86.85018564 374.01167977 -93.24377899 372.8339557 -99.6875 371.375 C-104.87996746 370.25440339 -110.1323377 369.47053801 -115.375 368.625 C-122.88018382 367.39517129 -130.3682136 366.12337367 -137.8125 364.5625 C-138.53598633 364.42078369 -139.25947266 364.27906738 -140.00488281 364.13305664 C-145.23223755 362.99027724 -148.82202917 361.17293629 -151.8984375 356.71875 C-154.02127263 350.41872315 -153.94015681 343.31933503 -151.08203125 337.328125 C-149.04937007 334.29289399 -146.88865322 331.42873692 -144.625 328.5625 C-143.36492877 326.75698712 -142.11423629 324.94487628 -140.875 323.125 C-138.56548053 319.83918367 -136.13392274 316.69865342 -133.625 313.5625 C-132.94630859 312.41974609 -132.94630859 312.41974609 -132.25390625 311.25390625 C-130.57599958 308.48153767 -128.74181902 305.91536827 -126.8125 303.3125 C-122.51395819 297.44800489 -118.48345142 291.44799036 -114.546875 285.3359375 C-113.83015625 284.23507812 -113.1134375 283.13421875 -112.375 282 C-111.37726563 280.45119141 -111.37726563 280.45119141 -110.359375 278.87109375 C-109.50085938 277.72833984 -109.50085938 277.72833984 -108.625 276.5625 C-107.965 276.5625 -107.305 276.5625 -106.625 276.5625 C-106.563125 275.86125 -106.50125 275.16 -106.4375 274.4375 C-105.56150505 271.33782556 -104.19911662 269.61067081 -102.0859375 267.22265625 C-97.28735366 261.76972007 -93.68020621 256.14294415 -90.625 249.5625 C-91.08648437 248.94246094 -91.54796875 248.32242188 -92.0234375 247.68359375 C-96.57985388 241.49731302 -100.91904419 235.20936039 -105.12255859 228.77905273 C-107.46392539 225.21769064 -109.93796108 221.87688478 -112.625 218.5625 C-113.64462345 217.09679128 -114.6456763 215.61793641 -115.625 214.125 C-116.14191406 213.34125 -116.65882812 212.5575 -117.19140625 211.75 C-117.66449219 211.028125 -118.13757813 210.30625 -118.625 209.5625 C-123.30735362 202.46344774 -128.20943678 195.5248117 -133.17895508 188.62451172 C-137.69370456 182.34852826 -142.06324739 175.9946083 -146.3137207 169.53637695 C-148.66813158 165.94922679 -148.66813158 165.94922679 -151.37109375 162.625 C-153.29076021 159.46741779 -153.2170629 156.27764377 -153.25 152.6875 C-153.29511719 151.99269531 -153.34023437 151.29789063 -153.38671875 150.58203125 C-153.43844693 146.65807953 -152.83121206 144.14945526 -150.0703125 141.28515625 C-144.28004705 136.96406263 -136.81597612 136.18071771 -129.875 134.875 C-128.3801479 134.57737205 -126.88560053 134.27820956 -125.39135742 133.97753906 C-116.15483117 132.14047541 -106.88985172 130.5317 -97.5703125 129.17578125 C-92.62885559 128.40765379 -87.78451441 127.32917753 -82.90625 126.23828125 C-79.71169754 125.58035556 -76.54621189 125.10741162 -73.3125 124.6875 C-65.23759466 123.61943954 -57.2960771 121.92828208 -49.33081055 120.23876953 C-48.29351807 120.02333496 -47.25622559 119.80790039 -46.1875 119.5859375 C-44.79724609 119.29082275 -44.79724609 119.29082275 -43.37890625 118.98974609 C-40.42146309 118.53092291 -37.6131343 118.49043711 -34.625 118.5625 C-34.58109131 117.90475586 -34.53718262 117.24701172 -34.49194336 116.56933594 C-33.94378663 109.487575 -32.73581058 102.73696692 -31.1875 95.8125 C-29.48396561 87.9495244 -28.0921473 80.21487725 -27.14453125 72.2265625 C-26.42773171 67.17123945 -25.32124272 62.22555254 -24.22631836 57.2409668 C-22.81451884 50.71163741 -21.68985862 44.15645236 -20.625 37.5625 C-20.12380647 34.53623883 -19.61899019 31.51061601 -19.11181641 28.48535156 C-18.79307332 26.57161423 -18.48002531 24.65691754 -18.17333984 22.74121094 C-17.74848312 20.13398652 -17.28593717 17.53628068 -16.8125 14.9375 C-16.69583984 14.174375 -16.57917969 13.41125 -16.45898438 12.625 C-15.49221366 7.59597677 -13.68197309 4.76088342 -9.58422852 1.64355469 C-6.37305687 -0.1282918 -3.615463 -0.12149723 0 0 Z M26.375 148.5625 C25.36895787 149.55642114 24.3679431 150.55549255 23.375 151.5625 C22.488125 152.078125 21.60125 152.59375 20.6875 153.125 C19.924375 153.599375 19.16125 154.07375 18.375 154.5625 C18.375 155.2225 18.375 155.8825 18.375 156.5625 C17.653125 156.76875 16.93125 156.975 16.1875 157.1875 C13.179584 158.65803671 11.66967135 160.34318863 9.64453125 162.97265625 C8.375 164.5625 8.375 164.5625 5.5625 167.3125 C3.14264054 169.27848205 3.14264054 169.27848205 3.375 171.5625 C2.7975 171.76875 2.22 171.975 1.625 172.1875 C-1.43087504 174.05497919 -2.82959613 176.56179003 -4.625 179.5625 C-5.05554688 180.24054688 -5.48609375 180.91859375 -5.9296875 181.6171875 C-13.16004877 193.22484856 -19.29088556 205.25581111 -22.625 218.5625 C-22.80546875 219.21959961 -22.9859375 219.87669922 -23.171875 220.55371094 C-32.06474205 253.25602779 -25.35015604 286.4248753 -8.78466797 315.42431641 C-5.55242582 320.90323178 -1.75683206 325.74499753 2.375 330.5625 C3.27152615 331.66610421 4.16746252 332.77018811 5.0625 333.875 C26.69831903 359.01933022 57.74893315 372.05385664 90.2890625 375.22949219 C113.14705707 376.90688234 136.61060685 370.90200436 156.375 359.5625 C157.55425522 358.9080746 158.73393474 358.25441312 159.9140625 357.6015625 C166.07229367 354.14380498 166.07229367 354.14380498 171.375 349.5625 C172.7053125 348.7890625 172.7053125 348.7890625 174.0625 348 C174.825625 347.525625 175.58875 347.05125 176.375 346.5625 C176.375 345.9025 176.375 345.2425 176.375 344.5625 C177.096875 344.35625 177.81875 344.15 178.5625 343.9375 C181.570416 342.46696329 183.08032865 340.78181137 185.10546875 338.15234375 C186.375 336.5625 186.375 336.5625 189.1875 333.8125 C191.60735946 331.84651795 191.60735946 331.84651795 191.375 329.5625 C191.9525 329.35625 192.53 329.15 193.125 328.9375 C196.18087504 327.07002081 197.57959613 324.56320997 199.375 321.5625 C199.80554688 320.88445312 200.23609375 320.20640625 200.6796875 319.5078125 C207.9091432 307.90160524 214.04470293 295.86882088 217.375 282.5625 C217.55546875 281.90008301 217.7359375 281.23766602 217.921875 280.55517578 C224.75443871 255.20428695 221.95945656 230.02302984 213.375 205.5625 C213.02953125 204.54929687 212.6840625 203.53609375 212.328125 202.4921875 C209.8666044 195.94596968 206.44184388 190.18192445 202.6875 184.3125 C202.19942871 183.5481665 201.71135742 182.78383301 201.20849609 181.99633789 C200.7439502 181.29114014 200.2794043 180.58594238 199.80078125 179.859375 C199.17296753 178.90562988 199.17296753 178.90562988 198.5324707 177.93261719 C198.15050537 177.48047852 197.76854004 177.02833984 197.375 176.5625 C196.715 176.5625 196.055 176.5625 195.375 176.5625 C195.23771484 175.70591797 195.23771484 175.70591797 195.09765625 174.83203125 C192.72508142 167.3808638 184.19389757 161.44706239 178.375 156.5625 C177.82328125 156.06105469 177.2715625 155.55960938 176.703125 155.04296875 C172.47267198 151.22548852 167.8961811 148.20860431 163.05078125 145.21875 C161.48643594 144.25045451 159.9346386 143.26013608 158.41796875 142.21875 C120.34938193 116.34206353 62.2874437 122.19555714 26.375 148.5625 Z " transform="translate(190.625,37.4375)"/>
<path d="M0 0 C1.87109375 1.54296875 1.87109375 1.54296875 2.87109375 4.54296875 C3.61359375 4.83171875 4.35609375 5.12046875 5.12109375 5.41796875 C8.57299144 6.83010872 10.34657633 8.82425768 12.87109375 11.54296875 C14.01578125 12.59484375 14.01578125 12.59484375 15.18359375 13.66796875 C16.87109375 15.54296875 16.87109375 15.54296875 16.87109375 18.54296875 C17.86109375 18.87296875 18.85109375 19.20296875 19.87109375 19.54296875 C21.60906283 21.86724065 23.16282688 24.1442427 24.68359375 26.60546875 C25.12574219 27.32065674 25.56789063 28.03584473 26.0234375 28.77270508 C35.31733724 44.29480847 38.24533698 60.04840739 38.12109375 78.04296875 C38.12882813 79.16316406 38.1365625 80.28335938 38.14453125 81.4375 C38.11811473 92.88906188 36.9292763 103.58272042 32.24609375 114.10546875 C31.7193103 115.31843628 31.7193103 115.31843628 31.18188477 116.5559082 C25.6315364 128.95362331 17.57116252 139.1200448 7.87109375 148.54296875 C7.21109375 149.20296875 6.55109375 149.86296875 5.87109375 150.54296875 C4.88109375 150.54296875 3.89109375 150.54296875 2.87109375 150.54296875 C2.54109375 151.53296875 2.21109375 152.52296875 1.87109375 153.54296875 C-20.30013734 170.52347605 -46.67735736 174.0828525 -73.83984375 171.11328125 C-87.88760018 168.8420871 -100.9498166 163.3331658 -112.12890625 154.54296875 C-113.11890625 153.88296875 -114.10890625 153.22296875 -115.12890625 152.54296875 C-115.12890625 151.88296875 -115.12890625 151.22296875 -115.12890625 150.54296875 C-115.85078125 150.31609375 -116.57265625 150.08921875 -117.31640625 149.85546875 C-120.70246502 148.27530799 -122.59568284 146.2710555 -125.12890625 143.54296875 C-125.89203125 142.84171875 -126.65515625 142.14046875 -127.44140625 141.41796875 C-129.12890625 139.54296875 -129.12890625 139.54296875 -129.12890625 136.54296875 C-130.11890625 136.21296875 -131.10890625 135.88296875 -132.12890625 135.54296875 C-133.86687533 133.21869685 -135.42063938 130.9416948 -136.94140625 128.48046875 C-137.38355469 127.76528076 -137.82570312 127.05009277 -138.28125 126.31323242 C-147.57514974 110.79112903 -150.50314948 95.03753011 -150.37890625 77.04296875 C-150.38664063 75.92277344 -150.394375 74.80257812 -150.40234375 73.6484375 C-150.37534131 61.94287818 -149.05765454 51.27550675 -144.25390625 40.54296875 C-143.91488281 39.73730469 -143.57585937 38.93164062 -143.2265625 38.1015625 C-141.32284338 33.70780772 -139.28651021 30.19249417 -136.12890625 26.54296875 C-135.53078125 25.44984375 -134.93265625 24.35671875 -134.31640625 23.23046875 C-130.76398696 16.8109394 -125.35560047 11.62032885 -120.12890625 6.54296875 C-119.46890625 5.88296875 -118.80890625 5.22296875 -118.12890625 4.54296875 C-117.13890625 4.54296875 -116.14890625 4.54296875 -115.12890625 4.54296875 C-114.89171875 3.94355469 -114.65453125 3.34414062 -114.41015625 2.7265625 C-109.22380243 -6.11237587 -91.5408221 -11.59507661 -82.12890625 -14.45703125 C-53.13427856 -20.91770546 -24.81395313 -15.90056966 0 0 Z " transform="translate(344.12890625,210.45703125)"/>
</svg>
