<?xml version="1.0" encoding="UTF-8"?>
<svg version="1.1" xmlns="http://www.w3.org/2000/svg" width="576" height="576" viewBox="0 0 576 576">
<path d="M0 0 C1.9659045 1.33173653 3.93204858 2.66311948 5.8984375 3.99414062 C9.49613177 6.42967821 13.09223147 8.86753706 16.68701172 11.30737305 C17.45994568 11.82415619 18.23287964 12.34093933 19.02923584 12.87338257 C20.31529559 13.75649291 21.58061123 14.67207853 22.80523682 15.63858032 C25.45791497 17.68476799 27.02245868 18.30827299 30.40014648 18.44750977 C35.52018458 16.88736969 39.36721374 14.20983151 43.72265625 11.15234375 C45.08963905 10.2173983 45.08963905 10.2173983 46.48423767 9.26356506 C49.39378741 7.27103627 52.29116838 5.26168308 55.1875 3.25 C98.68247738 -26.78740023 98.68247738 -26.78740023 122.125 -24.6875 C131.76814991 -22.51835322 139.93994427 -17.3943866 146.125 -9.6875 C156.3072988 6.44864894 158.27228214 27.20811278 161.96240234 45.5760498 C162.51774619 48.33387419 163.07804382 51.09068237 163.63843155 53.84748554 C164.30811269 57.14395702 164.97436134 60.44111725 165.640625 63.73828125 C165.89056213 64.97145584 166.14049927 66.20463043 166.39801025 67.47517395 C166.73901764 69.17416084 166.73901764 69.17416084 167.08691406 70.9074707 C167.3885849 72.40513725 167.3885849 72.40513725 167.6963501 73.93305969 C168.125 76.3125 168.125 76.3125 168.125 78.3125 C169.42179687 78.43496094 170.71859375 78.55742187 172.0546875 78.68359375 C176.89518716 79.22487872 181.52161065 80.23019792 186.25 81.375 C193.74560313 83.14399451 201.26198027 84.76670992 208.8125 86.28125 C209.66713837 86.45329453 210.52177673 86.62533905 211.40231323 86.80259705 C214.86902561 87.49954726 218.33581569 88.19561483 221.8057251 88.87649536 C239.92860865 92.43363378 254.69277741 95.53911971 265.65234375 111.72265625 C269.84464979 119.09533238 270.64612147 124.54613068 270.625 133 C270.65335938 134.01255859 270.68171875 135.02511719 270.7109375 136.06835938 C270.74200762 148.2711502 265.25387463 157.82556242 258.51171875 167.671875 C257.89730423 168.58712952 257.28288971 169.50238403 256.64985657 170.44537354 C254.71385264 173.32449012 252.76353034 176.19355081 250.8125 179.0625 C249.48536213 181.03059895 248.15918159 182.99934381 246.83398438 184.96875 C243.61036427 189.75881965 240.36749909 194.53497672 237.125 199.3125 C253.46 199.8075 253.46 199.8075 270.125 200.3125 C270.125 216.1525 270.125 231.9925 270.125 248.3125 C111.395 248.3125 -47.335 248.3125 -210.875 248.3125 C-210.875 232.1425 -210.875 215.9725 -210.875 199.3125 C-199.655 198.9825 -188.435 198.6525 -176.875 198.3125 C-178.92203125 195.25226563 -180.9690625 192.19203125 -183.078125 189.0390625 C-185.06942552 186.04849627 -187.05756135 183.05584966 -189.04541016 180.06298828 C-190.42135057 177.99503933 -191.80053553 175.92924519 -193.18310547 173.86572266 C-195.17766636 170.88754269 -197.16016531 167.90163256 -199.140625 164.9140625 C-199.75431946 164.00322906 -200.36801392 163.09239563 -201.00030518 162.15396118 C-208.92411754 150.13567946 -212.39653462 138.57172178 -210.6015625 124.109375 C-208.26182707 113.24947093 -201.49543951 102.55051294 -192.12133789 96.44140625 C-178.65816909 89.67543597 -162.52252709 87.7358183 -147.89990234 84.80834961 C-144.52457715 84.13254565 -141.15245475 83.4420344 -137.7809906 82.74725628 C-134.5222084 82.07771099 -131.26103136 81.4202233 -128 80.76171875 C-126.80093018 80.51491867 -125.60186035 80.26811859 -124.36645508 80.01383972 C-118.41927547 78.83327916 -112.93904038 78.02056562 -106.875 78.3125 C-106.83023026 77.52347794 -106.78546051 76.73445587 -106.73933411 75.92152405 C-106.21599672 67.93942159 -105.10159775 60.26748395 -103.51171875 52.43359375 C-103.2784639 51.25966568 -103.04520905 50.08573761 -102.80488586 48.87623596 C-102.31356149 46.41421099 -101.81841391 43.9529461 -101.31958008 41.49243164 C-100.5641638 37.75822455 -99.82524508 34.02101357 -99.08789062 30.28320312 C-98.60515304 27.87480208 -98.12146093 25.46659213 -97.63671875 23.05859375 C-97.41988937 21.95825302 -97.20306 20.85791229 -96.97966003 19.72422791 C-93.50355147 2.74820122 -88.20943816 -8.91389558 -73.98828125 -19.33203125 C-47.55538345 -36.28621893 -21.23821538 -14.42859745 0 0 Z M-46.875 30.3125 C-51.28021498 50.3526786 -55.56511748 70.41690948 -59.69659424 90.51541138 C-60.14831677 92.71080725 -60.60172277 94.90585741 -61.05682373 97.10055542 C-61.69914548 100.20144842 -62.33487687 103.30362041 -62.96875 106.40625 C-63.16211945 107.334944 -63.35548889 108.263638 -63.55471802 109.22047424 C-63.72937592 110.08293259 -63.90403381 110.94539093 -64.08398438 111.83398438 C-64.23750366 112.58176147 -64.39102295 113.32953857 -64.54919434 114.09997559 C-64.90717483 116.53099708 -64.92964278 118.85870168 -64.875 121.3125 C-65.92341064 121.26198486 -66.97182129 121.21146973 -68.05200195 121.15942383 C-74.18127146 121.16789604 -80.06113239 122.53682144 -86.04296875 123.76171875 C-87.31360672 124.01621292 -88.58424469 124.27070709 -89.89338684 124.53291321 C-92.58315009 125.07211302 -95.27180764 125.61642865 -97.9597168 126.16479492 C-101.33753805 126.85376729 -104.7172379 127.53288919 -108.0977459 128.20853996 C-123.43171134 131.27588454 -138.69674962 134.54300754 -153.875 138.3125 C-152.35935734 144.08990959 -149.37718365 148.48040754 -146.08984375 153.375 C-145.22716637 154.67751709 -145.22716637 154.67751709 -144.34706116 156.00634766 C-142.5085948 158.77937021 -140.66088203 161.54607938 -138.8125 164.3125 C-136.99608331 167.04426295 -135.18160042 169.77730265 -133.36734009 172.51049805 C-132.18926033 174.28474744 -131.01021471 176.05835592 -129.83016968 177.83129883 C-125.63449658 184.14117365 -121.51554867 190.49535127 -117.45141602 196.890625 C-116.08697754 199.16948264 -116.08697754 199.16948264 -114.875 200.3125 C-111.77248799 200.40124135 -108.6923188 200.42768455 -105.58984375 200.41015625 C-104.65902481 200.4087413 -103.72820587 200.40732635 -102.7691803 200.40586853 C-99.78358809 200.40025172 -96.79806971 200.3876964 -93.8125 200.375 C-91.79362087 200.36998716 -89.77474057 200.36542388 -87.75585938 200.36132812 C-82.79554428 200.35027683 -77.83528468 200.33300095 -72.875 200.3125 C-72.71353485 199.75377197 -72.5520697 199.19504395 -72.38571167 198.61938477 C-71.63549045 196.03615225 -70.87639028 193.4556065 -70.1171875 190.875 C-69.86348389 189.99650391 -69.60978027 189.11800781 -69.34838867 188.21289062 C-61.6657888 162.22868389 -44.99513568 138.43312657 -20.875 125.3125 C6.11008741 111.88447962 34.80542007 108.50986837 63.8125 117.4375 C77.64910263 122.47035763 89.93903197 129.78192666 101.125 139.3125 C102.09953125 140.13427734 102.09953125 140.13427734 103.09375 140.97265625 C120.38105752 156.91448936 128.03799451 178.01875703 133.125 200.3125 C138.90909513 200.33720049 144.69315962 200.35536023 150.47729492 200.36743164 C152.44539932 200.3724635 154.41349997 200.37928958 156.3815918 200.38793945 C159.20883101 200.40005517 162.03602084 200.40573976 164.86328125 200.41015625 C165.74462234 200.41531754 166.62596344 200.42047882 167.53401184 200.42579651 C168.7649482 200.42590981 168.7649482 200.42590981 170.02075195 200.42602539 C170.74245071 200.428246 171.46414948 200.43046661 172.2077179 200.43275452 C174.34726801 200.38075599 174.34726801 200.38075599 177.125 199.3125 C178.38703757 197.76535718 178.38703757 197.76535718 179.48828125 195.78125 C179.95258545 195.00595947 180.41688965 194.23066895 180.89526367 193.43188477 C181.40420166 192.56748779 181.91313965 191.70309082 182.4375 190.8125 C186.72491884 183.68167774 191.16116663 176.68791447 195.8046875 169.78515625 C196.29827255 169.05094452 196.7918576 168.31673279 197.30039978 167.56027222 C199.29803823 164.59365592 201.29873128 161.62926488 203.31216431 158.67333984 C204.73858615 156.57901917 206.15678355 154.47931513 207.57421875 152.37890625 C208.00390961 151.7546022 208.43360046 151.13029816 208.87631226 150.48707581 C211.30382329 146.87640066 212.95272821 143.50364163 214.125 139.3125 C196.13715706 135.12385931 178.12427484 131.05166729 160.10412598 127.00479126 C158.85375549 126.72398209 158.85375549 126.72398209 157.578125 126.4375 C156.75775757 126.25327484 155.93739014 126.06904968 155.09216309 125.87924194 C145.43218093 123.70902511 135.77804487 121.51334554 126.125 119.3125 C123.00367862 104.87457858 119.92337848 90.42995412 116.94921875 75.9609375 C116.69036896 74.70234924 116.43151917 73.44376099 116.16482544 72.14703369 C115.10719018 67.00027889 114.05082715 61.85326659 112.99780273 56.70556641 C112.21372867 52.87341456 111.425237 49.04217742 110.63671875 45.2109375 C110.27896614 43.45515884 110.27896614 43.45515884 109.91398621 41.66390991 C109.69317886 40.59323273 109.47237152 39.52255554 109.24487305 38.41943359 C109.05201218 37.47796478 108.85915131 36.53649597 108.66044617 35.5664978 C108.21154425 33.29526914 108.21154425 33.29526914 107.125 31.3125 C102.38055555 32.66141944 98.63284761 34.72706688 94.6171875 37.515625 C93.98078339 37.94860901 93.34437927 38.38159302 92.68869019 38.82769775 C91.27192022 39.79161648 89.85702621 40.75829657 88.44372559 41.72729492 C85.08399561 44.02418639 81.70586675 46.29347446 78.3291626 48.56530762 C73.63260956 51.72585164 68.94181352 54.89492641 64.25 58.0625 C61.37633496 60.00232072 58.50258316 61.9420125 55.62863159 63.88140869 C53.85756167 65.07658317 52.08665506 66.27199969 50.31594849 67.4677124 C48.70408467 68.55553901 47.08959715 69.63949036 45.472229 70.71911621 C43.8727937 71.80487064 42.29190481 72.91833726 40.72845459 74.05529785 C34.95435774 78.17498054 34.95435774 78.17498054 30.87841797 78.85083008 C18.38260536 76.40773141 5.35378804 64.16325918 -5 57.125 C-6.86433362 55.86095974 -8.72891556 54.59728565 -10.59375 53.33398438 C-11.51113953 52.71248505 -12.42852905 52.09098572 -13.37371826 51.45065308 C-16.99005593 49.00145529 -20.606925 46.55304581 -24.22473145 44.10601807 C-26.00145535 42.90365447 -27.77740789 41.70015032 -29.5526123 40.49554443 C-32.0710808 38.78802397 -34.59355416 37.0865932 -37.1171875 35.38671875 C-37.87460236 34.87148148 -38.63201721 34.3562442 -39.41238403 33.82539368 C-42.84241324 31.23710433 -42.84241324 31.23710433 -46.875 30.3125 Z " transform="translate(258.875,221.6875)"/>
<path d="M0 0 C0.495 1.485 0.495 1.485 1 3 C3.00016466 4.20882096 3.00016466 4.20882096 5 5 C5 5.66 5 6.32 5 7 C5.66 7 6.32 7 7 7 C8.26953125 8.5546875 8.26953125 8.5546875 9.8125 10.875 C13.88067079 16.86568188 18.12139851 22.72119406 22.38012695 28.57763672 C31 40.46720574 31 40.46720574 31 43 C31.66 43 32.32 43 33 43 C34.53381945 45.51984624 35.45180023 47.15141052 36 50 C35.3633065 52.58289847 34.35858984 54.79490102 33.23828125 57.20703125 C31.9113776 60.19988963 31.01748186 63.16412782 30.125 66.3125 C24.76284035 84.15810644 24.76284035 84.15810644 19 88 C5 71.1328976 5 71.1328976 5 68 C4.34 68 3.68 68 3 68 C1.37273866 65.9281152 -0.13648958 63.85619253 -1.625 61.6875 C-2.52280096 60.40059735 -3.42124695 59.11414449 -4.3203125 57.828125 C-4.76922852 57.18294922 -5.21814453 56.53777344 -5.68066406 55.87304688 C-8.17869191 52.32662391 -10.79943708 48.86919126 -13.40625 45.40234375 C-14.99922814 43.00116347 -16.03478607 40.70742509 -17 38 C-17.66 38 -18.32 38 -19 38 C-19.98462134 39.95623005 -20.95942898 41.91407447 -21.89453125 43.89453125 C-23.49683709 47.24232771 -25.14996093 50.33624195 -27.375 53.3125 C-29.49833098 56.1673444 -31.20059291 59.1104867 -32.875 62.25 C-35.96357126 68.03218455 -39.43336419 73.5039987 -43 79 C-44.31432662 81.06133647 -45.6268813 83.12380402 -46.9375 85.1875 C-47.95833333 86.79166667 -48.97916667 88.39583333 -50 90 C-52.31640625 89.94921875 -52.31640625 89.94921875 -55 89 C-56.25987037 86.53907386 -57.11510073 84.41831454 -57.9375 81.8125 C-58.43984628 80.35317831 -58.94511781 78.89486072 -59.453125 77.4375 C-59.70642578 76.69757813 -59.95972656 75.95765625 -60.22070312 75.1953125 C-61.41066529 71.84313839 -62.77901042 68.57773551 -64.1875 65.3125 C-64.65542969 64.21550781 -65.12335938 63.11851562 -65.60546875 61.98828125 C-66.93210478 59.00133551 -66.93210478 59.00133551 -68.61328125 56.35546875 C-69.94873162 54.08708404 -70.63544526 52.58485801 -71 50 C-69.52759687 47.41222937 -68.04067518 45.09264311 -66.3125 42.6875 C-65.41049201 41.40132746 -64.51073478 40.11357338 -63.61328125 38.82421875 C-62.94824585 37.87059448 -62.94824585 37.87059448 -62.26977539 36.89770508 C-60.34477672 34.02075552 -58.69468139 31.01821355 -57 28 C-55.82508967 26.1378303 -54.63832573 24.28306437 -53.4375 22.4375 C-51.04142742 18.70456289 -48.85104797 15.02875147 -47 11 C-46.34 11 -45.68 11 -45 11 C-44.773125 10.278125 -44.54625 9.55625 -44.3125 8.8125 C-41.66073651 3.13014967 -36.76628692 -0.6913769 -31 -3 C-20.1344142 -6.03117201 -10.16779368 -4.70731189 0 0 Z " transform="translate(305,117)"/>
<path d="M0 0 C11.69987316 -1.26561128 22.89603539 3.60074373 33.5078125 8.03125 C37.55624554 9.60493557 41.71266152 10.80764879 45.87109375 12.0546875 C49.943685 13.28510833 53.97228498 14.63127433 58 16 C59.485 16.495 59.485 16.495 61 17 C62.02734375 19.4140625 62.02734375 19.4140625 62.9375 22.625 C63.27394531 23.79804688 63.61039062 24.97109375 63.95703125 26.1796875 C64.30121094 27.44039062 64.64539063 28.70109375 65 30 C65.17708496 30.63969727 65.35416992 31.27939453 65.53662109 31.93847656 C71.14101156 52.20794326 71.14101156 52.20794326 71 59 C58.26082327 55.20412793 45.59689746 51.24195865 33 47 C31.43774163 46.47844234 29.87528237 45.95748545 28.3125 45.4375 C22.875 43.625 17.4375 41.8125 12 40 C11.84051719 50.94257718 11.84051719 50.94257718 12.76953125 61.83129883 C13 64 13 64 12.96484375 67.890625 C12.91972505 75.47523402 13.73575883 83.02716614 14.37695312 90.578125 C14.47041016 91.74601562 14.56386719 92.91390625 14.66015625 94.1171875 C14.79369507 95.70442627 14.79369507 95.70442627 14.92993164 97.32373047 C15 100 15 100 14 103 C12.68 102.67 11.36 102.34 10 102 C10 101.34 10 100.68 10 100 C9.15501953 99.85111328 9.15501953 99.85111328 8.29296875 99.69921875 C5.5081611 98.85001846 3.66328408 97.52732317 1.3125 95.8125 C0.43851563 95.18601562 -0.43546875 94.55953125 -1.3359375 93.9140625 C-2.65464844 92.96660156 -2.65464844 92.96660156 -4 92 C-5.59753548 90.88626075 -7.20130629 89.78138736 -8.8125 88.6875 C-9.84310547 87.98173828 -9.84310547 87.98173828 -10.89453125 87.26171875 C-13.19377167 85.8838808 -15.49103243 84.93527154 -18 84 C-20.75 82.9375 -20.75 82.9375 -23 81 C-23.41842651 79.17588806 -23.41842651 79.17588806 -23.60498047 76.97241211 C-23.67618103 76.16432098 -23.74738159 75.35622986 -23.82073975 74.52365112 C-23.87989563 73.69084625 -23.93905151 72.85804138 -24 72 C-24.08172455 70.85170212 -24.08172455 70.85170212 -24.1651001 69.6802063 C-24.31840709 67.28876281 -24.44839095 64.89715 -24.5703125 62.50390625 C-24.63833572 61.19352638 -24.63833572 61.19352638 -24.70773315 59.85667419 C-24.80162803 58.0222837 -24.89398511 56.1878139 -24.98486328 54.35327148 C-25.12447432 51.5729688 -25.27499534 48.79338794 -25.42578125 46.01367188 C-25.51629832 44.21878383 -25.60616358 42.42386277 -25.6953125 40.62890625 C-25.74108429 39.81192764 -25.78685608 38.99494904 -25.83401489 38.1532135 C-26.33218015 27.47067636 -25.59718716 18.82506013 -18.62890625 10.328125 C-17.3125 8.9375 -17.3125 8.9375 -15 7 C-14.34 7 -13.68 7 -13 7 C-13 6.34 -13 5.68 -13 5 C-11.68 5 -10.36 5 -9 5 C-9 4.34 -9 3.68 -9 3 C-4.545 2.505 -4.545 2.505 0 2 C0 1.34 0 0.68 0 0 Z " transform="translate(76,194)"/>
<path d="M0 0 C0 0.66 0 1.32 0 2 C2.97 2.33 5.94 2.66 9 3 C9 3.66 9 4.32 9 5 C10.32 5 11.64 5 13 5 C13 5.66 13 6.32 13 7 C13.556875 7.20625 14.11375 7.4125 14.6875 7.625 C19.6635714 10.58374516 22.95621181 15.6861507 25 21 C26.06414238 27.55793103 26.06573476 34.017256 25.6953125 40.62890625 C25.63015945 41.94072121 25.63015945 41.94072121 25.56369019 43.27903748 C25.47125779 45.11190496 25.37528315 46.94459702 25.27587891 48.77709961 C25.12520405 51.55873309 24.98548356 54.34075005 24.84765625 57.12304688 C24.75584658 58.91669945 24.66341946 60.71032055 24.5703125 62.50390625 C24.52858917 63.32290909 24.48686584 64.14191193 24.44387817 64.98573303 C24.31560065 67.32563894 24.16501213 69.66241023 24 72 C23.9451947 72.82772919 23.8903894 73.65545837 23.83392334 74.50827026 C23.76610657 75.31241364 23.69828979 76.11655701 23.62841797 76.94506836 C23.57120575 77.66713974 23.51399353 78.38921112 23.45504761 79.13316345 C23 81 23 81 20.375 83.375 C18.18571894 84.42909829 15.96233317 85.41605147 13.70703125 86.3203125 C9.90023314 87.94303062 6.66249637 90.09181755 3.3125 92.5 C2.75755859 92.89058594 2.20261719 93.28117187 1.63085938 93.68359375 C-0.69801155 95.32847999 -2.9878968 96.99023175 -5.20703125 98.78125 C-7 100 -7 100 -10 100 C-10 100.66 -10 101.32 -10 102 C-11.98 102.495 -11.98 102.495 -14 103 C-15.18727069 99.43818792 -14.93209874 96.98638027 -14.66015625 93.2421875 C-14.61434921 92.57970001 -14.56854218 91.91721252 -14.52134705 91.23464966 C-14.37404033 89.11432341 -14.21882631 86.99467884 -14.0625 84.875 C-13.46194466 76.57258583 -12.92256264 68.32881832 -13 60 C-12.85275674 58.53957769 -12.6878181 57.08076037 -12.5 55.625 C-11.84550605 50.41670306 -11.91183411 45.24097218 -12 40 C-21.824027 43.0187876 -31.52188002 46.11106855 -41.07421875 49.91015625 C-44.82776561 51.30833993 -48.6312197 52.32197592 -52.5078125 53.31640625 C-55.45144294 54.12382839 -58.23699115 55.18859383 -61.07421875 56.3046875 C-64.31944876 57.47639327 -67.64151462 58.22035161 -71 59 C-70.40509449 52.88097193 -69.49296339 46.99113712 -68.125 41 C-67.94791504 40.21399414 -67.77083008 39.42798828 -67.58837891 38.61816406 C-66.35948742 33.27930094 -64.88772773 28.14834836 -63 23 C-62.835 21.88625 -62.67 20.7725 -62.5 19.625 C-61 17 -61 17 -58.67578125 16.07421875 C-56.72529759 15.55533155 -54.76311019 15.07900059 -52.79296875 14.640625 C-49.31597365 13.84310444 -46.27390851 12.41116746 -43 11 C-39.72229319 9.94961519 -36.42889635 8.9598276 -33.1328125 7.96875 C-30.69322835 7.21436488 -28.31841307 6.4165021 -25.9375 5.5 C-24.62504378 4.9998851 -23.31253901 4.4998976 -22 4 C-21.07574219 3.64550781 -20.15148437 3.29101562 -19.19921875 2.92578125 C-12.5883032 0.5317394 -7.02686037 -0.55966145 0 0 Z " transform="translate(501,193)"/>
</svg>
