<?xml version="1.0" encoding="UTF-8"?>
<svg version="1.1" xmlns="http://www.w3.org/2000/svg" width="576" height="576" viewBox="0 0 576 576">
<path d="M0 0 C10.08068121 9.14294343 14.74469669 19.41013588 17.33203125 32.49609375 C17.54204773 33.53123108 17.75206421 34.56636841 17.96844482 35.63287354 C20.60954951 48.79910421 22.99443144 62.01483741 25.38421631 75.22851562 C26.24403069 79.9802347 27.10744241 84.73130028 27.972229 89.4821167 C28.42892816 91.99262736 28.8841938 94.50339933 29.33782959 97.01446533 C29.54184387 98.13794373 29.74585815 99.26142212 29.95605469 100.41894531 C30.13416687 101.4035675 30.31227905 102.3881897 30.49578857 103.40264893 C30.92759956 105.62704265 31.42323258 107.8094498 32 110 C32.54640137 110.03665771 33.09280273 110.07331543 33.65576172 110.11108398 C41.61575874 110.76645113 49.32583652 112.39440968 57.125 114.0625 C58.47646086 114.34748761 59.82802284 114.63199619 61.1796875 114.91601562 C64.45414662 115.60599094 67.72750951 116.30075808 71 117 C71 117.66 71 118.32 71 119 C71.57177979 119.0417334 72.14355957 119.0834668 72.73266602 119.12646484 C79.93729849 119.74026433 86.88460408 121.05586416 93.9375 122.625 C95.04029297 122.84800781 96.14308594 123.07101562 97.27929688 123.30078125 C109.87199403 126.10906416 119.42424038 132.54331771 127 143 C131.90991966 151.61936996 134.3909004 160.43064031 134.3125 170.3125 C134.30758545 171.0537915 134.3026709 171.79508301 134.29760742 172.55883789 C134.08020348 182.81472933 130.90244756 191.06708172 126 200 C128.64 200 131.28 200 134 200 C134 217.82 134 235.64 134 254 C-24.4 254 -182.8 254 -346 254 C-346 236.18 -346 218.36 -346 200 C-343.36 199.67 -340.72 199.34 -338 199 C-338.8971875 197.7934375 -338.8971875 197.7934375 -339.8125 196.5625 C-347.21599917 185.48350478 -347.69544255 169.93793083 -345.28125 157.2109375 C-343.43326454 150.84731013 -340.99028212 145.29299187 -337 140 C-336.58234375 139.40832031 -336.1646875 138.81664062 -335.734375 138.20703125 C-327.6918075 127.73782701 -316.34335729 124.50167973 -304 122 C-302.60519329 121.69919112 -301.21065852 121.39711837 -299.81640625 121.09375 C-289.05555857 118.80958348 -289.05555857 118.80958348 -284 119 C-284 118.34 -284 117.68 -284 117 C-279.25074891 115.99670689 -274.50018103 114.99999659 -269.74829102 114.00927734 C-268.13300623 113.67155217 -266.51809134 113.33205265 -264.90356445 112.99072266 C-262.57859486 112.49952181 -260.25235592 112.01478363 -257.92578125 111.53125 C-257.20787918 111.37813354 -256.48997711 111.22501709 -255.75032043 111.06726074 C-252.11159577 110.31769569 -248.71745019 109.82252582 -245 110 C-245 109.34 -245 108.68 -245 108 C-244.34 108 -243.68 108 -243 108 C-242.88671356 107.16783966 -242.77342712 106.33567932 -242.65670776 105.478302 C-241.40584097 96.48627778 -239.92769287 87.5524768 -238.3203125 78.6171875 C-238.1947485 77.9168552 -238.06918449 77.2165229 -237.93981552 76.49496841 C-237.27672943 72.79771524 -236.61061832 69.10102263 -235.94189453 65.40478516 C-235.25958463 61.62997539 -234.58796718 57.85334443 -233.91871834 54.07620049 C-233.39444837 51.12883427 -232.86216678 48.18295367 -232.32781601 45.23740005 C-232.07692786 43.84672992 -231.82893501 42.45553367 -231.58414078 41.06377792 C-227.50409238 17.91873037 -227.50409238 17.91873037 -221 10.5 C-220.34 9.7265625 -219.68 8.953125 -219 8.15625 C-214.93548387 3.77419355 -214.93548387 3.77419355 -213 2 C-212.34 2 -211.68 2 -211 2 C-211 1.34 -211 0.68 -211 0 C-209.25197854 -0.81674796 -207.50149811 -1.62823451 -205.75 -2.4375 C-204.77546875 -2.88996094 -203.8009375 -3.34242188 -202.796875 -3.80859375 C-193.23797101 -7.88047324 -180.4947325 -7.51729353 -170.9375 -3.6875 C-168.08984375 -2.38671875 -168.08984375 -2.38671875 -166 -1 C-165.67 -0.01 -165.34 0.98 -165 2 C-163.34015202 2.68346682 -161.67163195 3.34588315 -160 4 C-157.54931827 5.51201482 -155.14372592 7.07250004 -153 9 C-153 9.66 -153 10.32 -153 11 C-152.319375 11.226875 -151.63875 11.45375 -150.9375 11.6875 C-147.3011291 13.31226146 -143.97170737 15.32803257 -141 18 C-141 18.66 -141 19.32 -141 20 C-140.01 20.309375 -140.01 20.309375 -139 20.625 C-135.69486813 22.13985211 -133.1622079 24.01683751 -130.296875 26.23046875 C-126.8561676 28.88121782 -123.34035515 31.42383526 -119.8125 33.95703125 C-117.93603264 35.32007629 -116.08142248 36.71372429 -114.25 38.13671875 C-113.38375 38.79285156 -112.5175 39.44898438 -111.625 40.125 C-110.85414063 40.72570312 -110.08328125 41.32640625 -109.2890625 41.9453125 C-106.98946531 43.3015266 -106.98946531 43.3015266 -104.34765625 42.28125 C-102.04975176 41.02715238 -100.08132588 39.57893688 -98 38 C-97.34 38 -96.68 38 -96 38 C-96 37.34 -96 36.68 -96 36 C-94.29565793 34.80696055 -92.53435284 33.69467749 -90.75 32.625 C-86.99251932 30.3685235 -84.05834139 28.12153026 -81 25 C-79.04398643 23.68580338 -77.03937669 22.52276465 -75 21.34375 C-72.69852723 19.79744798 -70.95297617 17.96420018 -69 16 C-67.48488306 14.85967514 -65.9413357 13.75638381 -64.375 12.6875 C-59.88492948 9.60973653 -55.44908071 6.46571475 -51.03125 3.28515625 C-49 2 -49 2 -47 2 C-46.67 1.01 -46.34 0.02 -46 -1 C-43.671875 -2.3515625 -43.671875 -2.3515625 -40.75 -3.625 C-39.79609375 -4.05039063 -38.8421875 -4.47578125 -37.859375 -4.9140625 C-25.17594122 -9.730995 -11.1138153 -7.4092102 0 0 Z M-183 55 C-186.92802433 74.07385071 -190.47430555 93.20945637 -193.93139648 112.37304688 C-194.67431366 116.49013247 -195.42349428 120.6060533 -196.17409229 124.72174454 C-196.75786358 127.92794243 -197.33766362 131.13484893 -197.91632652 134.34197235 C-198.19122468 135.86203056 -198.46751922 137.38183696 -198.74527931 138.90137482 C-199.12967775 141.00676528 -199.50852094 143.11308366 -199.88598633 145.21972656 C-200.10184891 146.41229065 -200.31771149 147.60485474 -200.54011536 148.83355713 C-200.94462242 151.61870884 -201.09412785 154.19312113 -201 157 C-202.77117187 157.15662109 -202.77117187 157.15662109 -204.578125 157.31640625 C-211.38538553 158.07469349 -218.05138682 159.53663656 -224.75 160.9375 C-226.06374798 161.20534365 -227.37754976 161.47292353 -228.69140625 161.74023438 C-229.94308594 161.99998047 -231.19476563 162.25972656 -232.484375 162.52734375 C-233.61584961 162.76187256 -234.74732422 162.99640137 -235.91308594 163.23803711 C-238.93275723 163.90432516 -238.93275723 163.90432516 -241.42285156 164.98852539 C-244.78494828 166.3080751 -248.21811859 166.96960784 -251.75 167.65625 C-252.48573242 167.80404907 -253.22146484 167.95184814 -253.97949219 168.10412598 C-257.10863394 168.73257633 -260.23994575 169.34989868 -263.37109375 169.96826172 C-265.6648491 170.42290998 -267.95742336 170.88320118 -270.25 171.34375 C-271.3033252 171.54852966 -271.3033252 171.54852966 -272.37792969 171.75744629 C-276.11151049 172.50810255 -279.50840111 173.48377051 -283 175 C-285.65144537 175.7496233 -288.31773314 176.3635299 -291 177 C-289.91551504 179.30974442 -288.79211158 181.57489266 -287.5851593 183.82400513 C-286 187 -286 187 -284.87809753 190.36056519 C-283.17741144 194.42415014 -281.69468648 197.47888909 -278 200 C-269.67549236 202.54263287 -260.39297268 201.62888391 -251.80078125 201.4453125 C-249.20104171 201.43374874 -246.60127531 201.42722053 -244.00151062 201.42550659 C-238.56084921 201.40859245 -233.12315202 201.35054275 -227.68334961 201.25537109 C-221.40153692 201.14574184 -215.12179388 201.09841269 -208.83908015 201.0877763 C-202.78178133 201.07739672 -196.72524886 201.03727426 -190.66817284 200.98058701 C-188.0961749 200.95712779 -185.5241237 200.93890594 -182.95205116 200.92599869 C-179.36075155 200.90105106 -175.77160305 200.84265794 -172.1809082 200.77392578 C-170.5856707 200.77025497 -170.5856707 200.77025497 -168.95820618 200.76651001 C-162.98224222 200.63951536 -162.98224222 200.63951536 -157.96134949 197.58053589 C-157.31410416 196.72895905 -156.66685883 195.8773822 -156 195 C-154.33729713 193.66172696 -152.67083819 192.32810215 -151 191 C-150.443125 190.360625 -149.88625 189.72125 -149.3125 189.0625 C-145.69877106 185.83944446 -141.36532832 184.03271013 -137 182 C-137 181.34 -137 180.68 -137 180 C-135.37633024 179.5369763 -133.75096194 179.07990902 -132.125 178.625 C-131.22007812 178.36976563 -130.31515625 178.11453125 -129.3828125 177.8515625 C-121.13781046 175.77603081 -113.39433915 174.61271597 -104.875 174.625 C-103.87742676 174.62443604 -102.87985352 174.62387207 -101.85205078 174.62329102 C-93.0402005 174.7528146 -85.39862125 176.43088858 -77 179 C-75.33818528 179.35673623 -73.67300969 179.7001209 -72 180 C-72 180.66 -72 181.32 -72 182 C-71.11957031 182.44730469 -70.23914063 182.89460938 -69.33203125 183.35546875 C-68.17058594 183.96003906 -67.00914062 184.56460938 -65.8125 185.1875 C-64.08966797 186.07501953 -64.08966797 186.07501953 -62.33203125 186.98046875 C-58.99105102 189.00542394 -56.6586087 191.16106828 -54 194 C-53.0925 194.721875 -52.185 195.44375 -51.25 196.1875 C-49 198 -49 198 -48 200 C-10.05 200 27.9 200 67 200 C68.98 196.37 70.96 192.74 73 189 C74.60058634 186.30930238 76.24120662 183.65191246 77.8984375 180.99609375 C79.16105598 179.08813661 79.16105598 179.08813661 79 177 C77.67935547 176.70996094 77.67935547 176.70996094 76.33203125 176.4140625 C75.17058594 176.15367187 74.00914062 175.89328125 72.8125 175.625 C71.08966797 175.24214844 71.08966797 175.24214844 69.33203125 174.8515625 C66 174 66 174 63.70776367 173.04101562 C58.81224301 171.15890399 53.6349801 170.3318223 48.50732422 169.28564453 C46.5046335 168.87594789 44.50426943 168.4560527 42.50390625 168.03515625 C41.23417969 167.77347656 39.96445312 167.51179688 38.65625 167.2421875 C37.49931641 167.0035498 36.34238281 166.76491211 35.15039062 166.51904297 C32.35472694 166.05844308 29.82384723 165.89480044 27 166 C27 165.34 27 164.68 27 164 C22.21359168 162.99929886 17.42639608 162.00248759 12.63842773 161.00927734 C11.00962435 160.67082891 9.3810415 160.33131731 7.75268555 159.99072266 C5.41251839 159.50143443 3.07158559 159.0159711 0.73046875 158.53125 C0.00224411 158.37813354 -0.72598053 158.22501709 -1.47627258 158.06726074 C-4.37710754 157.46983114 -7.02910569 157 -10 157 C-10.11644363 156.31330231 -10.23288727 155.62660461 -10.3528595 154.9190979 C-13.69237109 135.27454464 -17.19916081 115.66403683 -20.8215332 96.06982422 C-21.55700511 92.08912152 -22.28415476 88.1069397 -23.00982952 84.12444115 C-23.57742392 81.01814674 -24.15114082 77.91300633 -24.72657204 74.80815506 C-24.99802828 73.33737692 -25.26714617 71.8661651 -25.5338192 70.39451218 C-25.90233576 68.36378935 -26.27952886 66.33486448 -26.65893555 64.30615234 C-26.8703569 63.15674164 -27.08177826 62.00733093 -27.29960632 60.8230896 C-27.87579264 57.82011694 -27.87579264 57.82011694 -30 55 C-30.66 55.33 -31.32 55.66 -32 56 C-32 56.66 -32 57.32 -32 58 C-32.680625 58.226875 -33.36125 58.45375 -34.0625 58.6875 C-37.6988709 60.31226146 -41.02829263 62.32803257 -44 65 C-44 65.66 -44 66.32 -44 67 C-44.680625 67.226875 -45.36125 67.45375 -46.0625 67.6875 C-49.6988709 69.31226146 -53.02829263 71.32803257 -56 74 C-56 74.66 -56 75.32 -56 76 C-56.680625 76.226875 -57.36125 76.45375 -58.0625 76.6875 C-61.6988709 78.31226146 -65.02829263 80.32803257 -68 83 C-68 83.66 -68 84.32 -68 85 C-68.680625 85.226875 -69.36125 85.45375 -70.0625 85.6875 C-73.6988709 87.31226146 -77.02829263 89.32803257 -80 92 C-80 92.66 -80 93.32 -80 94 C-80.73992187 94.26425781 -81.47984375 94.52851563 -82.2421875 94.80078125 C-84.98560993 95.99374256 -86.83503944 97.28500425 -89.125 99.1875 C-93.49543342 102.71037888 -98.09927831 105.6356442 -102.91015625 108.51953125 C-103.59980469 109.00808594 -104.28945313 109.49664062 -105 110 C-105 110.66 -105 111.32 -105 112 C-105.66 112 -106.32 112 -107 112 C-107 111.34 -107 110.68 -107 110 C-108.70434207 108.80696055 -110.46564716 107.69467749 -112.25 106.625 C-116.00748068 104.3685235 -118.94165861 102.12153026 -122 99 C-123.30511204 98.12312785 -124.63877899 97.2869559 -126 96.5 C-129.12970526 94.61297183 -131.41389279 92.58610721 -134 90 C-135.96856977 88.72042965 -137.96745157 87.51881706 -140 86.34375 C-142.30127012 84.79758414 -144.04727673 82.96396736 -146 81 C-147.49474206 79.88094177 -149.01753973 78.7986386 -150.5625 77.75 C-154.2229343 75.23278052 -157.84800039 72.68005774 -161.4375 70.0625 C-162.34242188 69.40378906 -163.24734375 68.74507812 -164.1796875 68.06640625 C-166.14889829 66.62359114 -168.11197594 65.17238432 -170.0703125 63.71484375 C-171.05773437 62.98394531 -172.04515625 62.25304687 -173.0625 61.5 C-173.96097656 60.8296875 -174.85945313 60.159375 -175.78515625 59.46875 C-177.83487065 57.81577888 -177.83487065 57.81577888 -180 58 C-180.495 56.515 -180.495 56.515 -181 55 C-181.66 55 -182.32 55 -183 55 Z " transform="translate(395,216)"/>
<path d="M0 0 C4.17313991 1.39104664 5.24046527 4.30013282 7.3125 7.9375 C8.10913002 9.30613221 8.90600579 10.6746214 9.703125 12.04296875 C10.28610352 13.05302979 10.28610352 13.05302979 10.88085938 14.08349609 C12.84683558 17.45018745 14.93170215 20.74482619 17.00390625 24.046875 C18 26 18 26 18 29 C18.99 29.33 19.98 29.66 21 30 C24 35.22222222 24 35.22222222 24 38 C24.66 38 25.32 38 26 38 C26.62648438 39.12019531 27.25296875 40.24039063 27.8984375 41.39453125 C28.72389523 42.86722287 29.54941954 44.33987718 30.375 45.8125 C30.7875 46.55048828 31.2 47.28847656 31.625 48.04882812 C32.02460938 48.76103516 32.42421875 49.47324219 32.8359375 50.20703125 C33.20251465 50.8616333 33.5690918 51.51623535 33.94677734 52.19067383 C34.90206799 53.83176306 35.9466896 55.4200344 37 57 C37.40992188 56.31292969 37.81984375 55.62585938 38.2421875 54.91796875 C38.78101563 54.01691406 39.31984375 53.11585938 39.875 52.1875 C40.40867187 51.29417969 40.94234375 50.40085938 41.4921875 49.48046875 C42.61883092 47.62705276 43.79686611 45.80470083 45 44 C45.66 44 46.32 44 47 44 C47.08765625 43.30390625 47.1753125 42.6078125 47.265625 41.890625 C48.17054932 38.32868883 49.76488927 35.83960843 51.75 32.75 C55.02107952 27.59407858 58.10909499 22.37875114 61 17 C61.66 17 62.32 17 63 17 C63.09539062 16.29488281 63.19078125 15.58976563 63.2890625 14.86328125 C64.12643022 11.49080577 65.51582038 9.11747294 67.375 6.1875 C67.98085938 5.21167969 68.58671875 4.23585937 69.2109375 3.23046875 C69.80132812 2.49441406 70.39171875 1.75835937 71 1 C71.99 1 72.98 1 74 1 C76.31272541 4.20667163 77.66920325 7.52675976 78.9375 11.25 C80.18111982 14.80456086 81.51805696 18.21995342 83.125 21.625 C84.84901151 25.36818453 85.72420495 28.97241329 86.4921875 33.0078125 C86.94317782 35.21575957 86.94317782 35.21575957 88.6875 37.625 C90.56298516 41.01873506 89.82197589 43.30110849 89 47 C88.67 47.99 88.34 48.98 88 50 C87.34 50 86.68 50 86 50 C85.63261719 51.25683594 85.63261719 51.25683594 85.2578125 52.5390625 C83.838539 56.44426847 81.98142234 59.80971271 79.875 63.375 C79.50246094 64.01566406 79.12992187 64.65632813 78.74609375 65.31640625 C77.83565998 66.88048477 76.91851809 68.44065534 76 70 C75.34 70 74.68 70 74 70 C73.74734375 70.84691406 73.4946875 71.69382812 73.234375 72.56640625 C71.90947653 76.25180422 70.20510588 79.56104415 68.25 82.9375 C67.89437988 83.55359131 67.53875977 84.16968262 67.17236328 84.80444336 C64.51181968 89.32019298 61.73994432 93.33257538 58 97 C57.113125 97.886875 56.22625 98.77375 55.3125 99.6875 C48.98554459 104.70256702 40.9215198 106.79215198 33 106 C27.19348214 104.6985391 20.81455738 102.87415666 17 98 C17 97.34 17 96.68 17 96 C16.39800781 95.773125 15.79601562 95.54625 15.17578125 95.3125 C12.35734784 93.61233191 11.63545037 91.93762843 10.1875 89 C8.19175466 85.14389907 6.10620384 81.58148042 3.5625 78.0625 C0.23302369 73.44395654 -2.61158785 68.63044466 -5.4375 63.69140625 C-7.83826485 59.5560888 -10.54159732 55.6442416 -13.3125 51.75 C-15.81232277 47.32118014 -15.28590646 42.78942406 -14 38 C-13.2894043 36.84721558 -13.2894043 36.84721558 -12.56445312 35.67114258 C-11.0266332 33.04547344 -10.15698097 30.74543262 -9.31640625 27.83203125 C-9.02830078 26.85556641 -8.74019531 25.87910156 -8.44335938 24.87304688 C-8.15267578 23.86306641 -7.86199219 22.85308594 -7.5625 21.8125 C-5.40520075 14.36133384 -3.02416715 7.14830001 0 0 Z " transform="translate(253,129)"/>
<path d="M0 0 C2.0625 0.4375 2.0625 0.4375 4 1 C4 1.66 4 2.32 4 3 C4.5775 3.0825 5.155 3.165 5.75 3.25 C8.66692594 4.22230865 9.81346686 5.81346686 12 8 C14.25932701 9.5692053 16.55761475 11.0593942 18.87890625 12.53515625 C21 14 21 14 22.421875 15.484375 C24.59656773 17.57294129 27.02869371 18.77989667 29.6875 20.1875 C30.68136719 20.71730469 31.67523438 21.24710938 32.69921875 21.79296875 C33.45847656 22.19128906 34.21773438 22.58960938 35 23 C35 23.66 35 24.32 35 25 C35.66 25 36.32 25 37 25 C37.75220894 31.86808007 38.25628293 38.71588943 38.5703125 45.6171875 C38.61566132 46.59559601 38.66101013 47.57400452 38.70773315 48.58206177 C38.8016446 50.63748335 38.89400093 52.69297653 38.98486328 54.74853516 C39.12433208 57.86009872 39.27492261 60.97100187 39.42578125 64.08203125 C40.87300004 95.43016623 40.87300004 95.43016623 28.74609375 109.6015625 C27 111 27 111 23 111 C23 111.66 23 112.32 23 113 C18.545 113.495 18.545 113.495 14 114 C13.505 115.485 13.505 115.485 13 117 C11.35 117 9.7 117 8 117 C8 116.34 8 115.68 8 115 C7.48824219 115.21011719 6.97648437 115.42023438 6.44921875 115.63671875 C2.92572375 116.15934241 0.08745325 114.98355378 -3.1875 113.8125 C-4.19550659 113.46457397 -4.19550659 113.46457397 -5.22387695 113.10961914 C-9.51893826 111.60202623 -13.66091207 109.8847506 -17.78515625 107.95703125 C-20.35665331 106.84589054 -22.95915647 105.98529213 -25.625 105.125 C-26.62789062 104.7846875 -27.63078125 104.444375 -28.6640625 104.09375 C-31.09417398 103.29699214 -33.49947211 102.58543871 -35.9609375 101.90625 C-45.87730941 98.91760715 -45.87730941 98.91760715 -48.69921875 94.09765625 C-49.57260586 91.08395291 -50.20950424 88.14134272 -50.66845703 85.03857422 C-51.14082061 82.13412951 -51.86573614 79.30723114 -52.57836914 76.45385742 C-53.43964149 72.98145659 -54.21724249 69.49077312 -55 66 C-55.22945312 64.99195313 -55.45890625 63.98390625 -55.6953125 62.9453125 C-56.72172863 58.18910253 -57.21155844 53.86584409 -57 49 C-55.35 49.33 -53.7 49.66 -52 50 C-52 50.66 -52 51.32 -52 52 C-51.39414062 52.09796875 -50.78828125 52.1959375 -50.1640625 52.296875 C-43.68704181 53.45277408 -38.04137646 55.45074866 -32 58 C-23.28898337 61.4437937 -23.28898337 61.4437937 -14.4375 64.5 C-8.81934179 66.31332345 -3.42309231 68.67843933 2 71 C2.13197391 63.12555676 1.79046603 55.36487372 1.21875 47.51171875 C1.04460264 44.71603172 0.9614775 41.98519681 1 39.1875 C1.1071557 29.97210952 0.35584809 20.72507043 -0.32421875 11.5390625 C-0.37457275 10.84643311 -0.42492676 10.15380371 -0.47680664 9.44018555 C-0.61728523 7.54175737 -0.76545101 5.6439026 -0.9140625 3.74609375 C-0.94242188 2.83988281 -0.97078125 1.93367187 -1 1 C-0.67 0.67 -0.34 0.34 0 0 Z " transform="translate(108,202)"/>
<path d="M0 0 C0.99 0.33 1.98 0.66 3 1 C2.0951285 23.13589196 2.0951285 23.13589196 1.4375 32.875 C1.13510588 37.44347733 0.96045594 41.9444654 1.03125 46.51953125 C0.97772505 50.76807407 0.65353469 55.00481769 0.35546875 59.2421875 C0.08534173 63.1706061 -0.04898873 67.0625305 0 71 C6.46429376 68.90892304 12.77401133 66.73069679 19 64 C22.29814639 62.71031387 25.60504819 61.44510633 28.9140625 60.18359375 C31.61958768 59.14590498 34.31119795 58.08003981 37 57 C55.13636364 50 55.13636364 50 59 50 C58.66665153 57.26699666 57.46851711 64.31487948 56.0625 71.4375 C55.80774902 72.75186035 55.80774902 72.75186035 55.54785156 74.09277344 C55.37866211 74.92711914 55.20947266 75.76146484 55.03515625 76.62109375 C54.8844165 77.3680249 54.73367676 78.11495605 54.57836914 78.88452148 C53.96992774 81.10999413 53.04069336 82.9477916 52 85 C51.65259077 86.99760305 51.32033957 88.99787771 51 91 C49.64036997 96.50516866 49.64036997 96.50516866 47.109375 98.4609375 C44.44213898 99.49427066 41.75683875 100.23694642 39 101 C36.5709734 101.95697142 34.15953138 102.93456202 31.75 103.9375 C25.63061526 106.40998654 19.45563397 108.66358395 13.21875 110.82421875 C9.94053371 111.9520391 9.94053371 111.9520391 6.74609375 113.6328125 C1.88540872 115.40678514 -2.31607398 115.33129814 -7.4375 115.1875 C-8.35982422 115.17396484 -9.28214844 115.16042969 -10.23242188 115.14648438 C-12.48890383 115.11140953 -14.74413226 115.06226387 -17 115 C-17 114.34 -17 113.68 -17 113 C-18.32 113 -19.64 113 -21 113 C-21 112.34 -21 111.68 -21 111 C-22.32 111 -23.64 111 -25 111 C-31.05445401 106.15101894 -35.96092729 98.28528329 -37.45703125 90.67529297 C-38.34916697 80.77296453 -37.75645958 70.90132926 -37.27587891 60.99072266 C-37.12503114 57.87564299 -36.98537962 54.76021616 -36.84765625 51.64453125 C-36.75585919 49.63538682 -36.66343266 47.62627104 -36.5703125 45.6171875 C-36.52858917 44.70025116 -36.48686584 43.78331482 -36.44387817 42.83859253 C-36.31576724 40.22419157 -36.15969102 37.61263863 -36 35 C-35.96114685 34.07157288 -35.9222937 33.14314575 -35.88226318 32.18658447 C-35.82685364 31.2872821 -35.77144409 30.38797974 -35.71435547 29.46142578 C-35.6730954 28.65230743 -35.63183533 27.84318909 -35.58932495 27.009552 C-35 25 -35 25 -33.04714966 23.81246948 C-32.37159027 23.54435455 -31.69603088 23.27623962 -31 23 C-29.9973369 22.00267021 -28.99745224 21.00254128 -28 20 C-26.52860314 19.07771139 -25.02587299 18.20405766 -23.5 17.375 C-22.7265625 16.94960937 -21.953125 16.52421875 -21.15625 16.0859375 C-19 15 -19 15 -16 14 C-16 13.34 -16 12.68 -16 12 C-14.0234375 10.44921875 -14.0234375 10.44921875 -11.375 8.6875 C-8.27065801 6.5930571 -5.34051528 4.51076318 -2.5625 2 C-1.716875 1.34 -0.87125 0.68 0 0 Z " transform="translate(471,203)"/>
<path d="M0 0 C3.96 0 7.92 0 12 0 C8.79619983 2.13586678 7.98060033 2.23132175 4.3125 2.125 C3.10013672 2.09792969 3.10013672 2.09792969 1.86328125 2.0703125 C0.94095703 2.03550781 0.94095703 2.03550781 0 2 C0 1.34 0 0.68 0 0 Z " transform="translate(461,319)"/>
</svg>
