<?xml version="1.0" encoding="UTF-8"?>
<svg version="1.1" xmlns="http://www.w3.org/2000/svg" width="512" height="512">
<path d="M0 0 C5.4521357 2.53134872 6.4759981 4.71399714 10 10 C10 17.26 10 24.52 10 32 C46.96 32 83.92 32 122 32 C122 24.74 122 17.48 122 10 C127.17241379 2.24137931 127.17241379 2.24137931 132 0 C137.5997712 -0.75381535 142.33499991 -0.77303575 147.5 1.625 C150 4 150 4 154 10 C154 17.26 154 24.52 154 32 C190.96 32 227.92 32 266 32 C266 24.74 266 17.48 266 10 C271.17241379 2.24137931 271.17241379 2.24137931 276 0 C281.5997712 -0.75381535 286.33499991 -0.77303575 291.5 1.625 C295.06513686 5.01188002 297.69639119 7.58455122 298.3203125 12.54833984 C298.39313609 15.50022395 298.3490024 18.42396697 298.25 21.375 C298.23195313 22.39722656 298.21390625 23.41945313 298.1953125 24.47265625 C298.14839491 26.98274749 298.08276729 29.49087764 298 32 C299.73902588 31.9685791 299.73902588 31.9685791 301.51318359 31.93652344 C305.85550357 31.8635777 310.1977705 31.81800373 314.54052734 31.78027344 C316.41236509 31.76028137 318.28414138 31.73307832 320.15576172 31.69824219 C343.80301018 31.26943875 343.80301018 31.26943875 353.46875 40.296875 C359.34800344 46.83604464 362.24650235 53.8615584 362.25726891 62.68736267 C362.26077498 63.33744691 362.26428105 63.98753114 362.26789337 64.6573149 C362.27718739 66.83274576 362.27228935 69.00790775 362.26742554 71.18334961 C362.27116279 72.75992774 362.27576461 74.33650402 362.28115618 75.91307735 C362.29339193 80.24336004 362.29312505 84.5735655 362.29076743 88.90386152 C362.29035942 93.57468323 362.30139675 98.24548013 362.31088257 102.91629028 C362.32749562 112.06561368 362.33299221 121.2149113 362.33410732 130.36424851 C362.33505745 137.79922239 362.33916597 145.23418775 362.34550858 152.66915894 C362.36312016 173.74225623 362.37234733 194.81533316 362.37084763 215.88843787 C362.37076772 217.02450142 362.3706878 218.16056497 362.37060547 219.33105469 C362.37052371 220.46850266 362.37044195 221.60595063 362.37035771 222.77786672 C362.36954435 241.22246692 362.38869466 259.66698554 362.4168822 278.11156213 C362.44558747 297.04401464 362.45942387 315.97642733 362.45769465 334.90890217 C362.45703004 345.54069273 362.46255384 356.17239772 362.48405075 366.8041687 C362.50223132 375.85379421 362.50663548 384.90329534 362.4930319 393.95293117 C362.48648704 398.57141098 362.48643974 403.18965196 362.5037384 407.80810928 C362.51940682 412.03469653 362.51666974 416.26085432 362.49917014 420.48743069 C362.49608649 422.0176325 362.49978376 423.54786586 362.51089029 425.07803047 C362.52498106 427.15675427 362.51445175 429.23396528 362.49777794 431.31263733 C362.49843004 433.04497919 362.49843004 433.04497919 362.49909532 434.81231785 C361.6753245 440.07367662 359.22415884 442.97067784 355.21286011 446.34353971 C351.389059 448.31498399 348.88537508 448.50121206 344.59423828 448.50336456 C343.86648886 448.50917833 343.13873943 448.51499209 342.388937 448.52098203 C339.94905796 448.53558615 337.51018429 448.52169555 335.0703125 448.50793457 C333.30399054 448.51254334 331.5376724 448.51889609 329.7713623 448.52684355 C324.91652428 448.54356335 320.0620002 448.53527844 315.20716095 448.52289867 C309.97190712 448.51386137 304.73670789 448.52781136 299.50146484 448.53881836 C289.24518846 448.55662226 278.98902904 448.55275525 268.73274803 448.5411678 C260.39864516 448.53214111 252.06457511 448.53090616 243.73046875 448.53526306 C242.54515942 448.53587599 241.35985008 448.53648893 240.13862228 448.53712043 C237.73082987 448.53839931 235.32303746 448.53969616 232.91524506 448.5410108 C210.32745132 448.55242208 187.73972248 448.53929428 165.15193939 448.51780933 C145.76271876 448.49993787 126.37359391 448.50304182 106.984375 448.52148438 C84.47843854 448.54288139 61.97255898 448.55132339 39.46661377 448.53903532 C37.06758627 448.5377611 34.66855877 448.53650362 32.26953125 448.53526306 C30.49889376 448.53433741 30.49889376 448.53433741 28.69248581 448.53339306 C20.36659125 448.52993665 12.04073273 448.53577476 3.71484375 448.54518127 C-6.42906404 448.55638964 -16.57284799 448.55338565 -26.71674156 448.5320583 C-31.89417717 448.52153228 -37.07140616 448.51745253 -42.24884033 448.53065491 C-46.98614249 448.54255242 -51.72304602 448.53605989 -56.46031189 448.5147447 C-58.17624008 448.51026742 -59.89220178 448.51257006 -61.60810852 448.52224785 C-63.93729994 448.53437938 -66.26511893 448.52197117 -68.59423828 448.50336456 C-69.88886993 448.50271515 -71.18350159 448.50206574 -72.5173645 448.50139666 C-77.71983473 447.75239459 -80.7530112 445.27589251 -84.359375 441.5859375 C-86.90143168 436.02972789 -86.41974844 430.65106953 -86.25 424.625 C-86.23195313 423.41199219 -86.21390625 422.19898438 -86.1953125 420.94921875 C-86.14832216 417.9653321 -86.08263372 414.98307721 -86 412 C-86.60972656 411.70351563 -87.21945313 411.40703125 -87.84765625 411.1015625 C-94.63055347 407.63009786 -98.05362327 402.25393676 -101.13671875 395.515625 C-102.43495132 390.22870504 -102.20799464 385.04518859 -102.125 379.625 C-102.11597656 378.50738281 -102.10695313 377.38976562 -102.09765625 376.23828125 C-102.07418457 373.49209488 -102.03831655 370.74601937 -102 368 C-96.72 368 -91.44 368 -86 368 C-86.00553076 365.60188018 -86.00553076 365.60188018 -86.01117325 363.15531349 C-86.09782835 325.19349275 -86.16377393 287.23168418 -86.20426132 249.26978496 C-86.20926407 244.59603486 -86.21444136 239.92228495 -86.21972656 235.24853516 C-86.2207758 234.31808645 -86.22182505 233.38763775 -86.22290608 232.42899363 C-86.24030528 217.36871017 -86.2718403 202.30848786 -86.30861118 187.24824066 C-86.3460341 171.79188658 -86.36823871 156.33556449 -86.37635398 140.87916696 C-86.38183895 131.34383165 -86.39915483 121.80866921 -86.43166587 112.27338712 C-86.45283042 105.7322519 -86.45919565 99.19120588 -86.45400551 92.65003891 C-86.45144674 88.87763516 -86.45533394 85.10553321 -86.4768219 81.33318329 C-86.49997947 77.23768324 -86.49193123 73.14282259 -86.48101807 69.04727173 C-86.49849512 67.27000055 -86.49849512 67.27000055 -86.51632524 65.4568249 C-86.44724548 55.85728067 -84.38534119 47.68594613 -77.703125 40.53125 C-70.20136136 33.78654508 -62.56271954 31.68361926 -52.6640625 31.8046875 C-51.34503433 31.80893234 -51.34503433 31.80893234 -49.99935913 31.81326294 C-47.20776406 31.82440288 -44.4164971 31.84949589 -41.625 31.875 C-39.72526507 31.8850378 -37.82552508 31.89416225 -35.92578125 31.90234375 C-31.28372893 31.92432194 -26.64191998 31.9588089 -22 32 C-22.0314209 31.04746338 -22.0314209 31.04746338 -22.06347656 30.07568359 C-22.14704581 27.17561924 -22.19878774 24.27580884 -22.25 21.375 C-22.28351563 20.37597656 -22.31703125 19.37695312 -22.3515625 18.34765625 C-22.43315123 12.18770715 -22.1132688 8.68372214 -18 4 C-12.72867143 -1.00776214 -6.89190982 -0.92775709 0 0 Z " fill="#E6EAEE" transform="translate(126,32)"/>
<path d="M0 0 C5.4521357 2.53134872 6.4759981 4.71399714 10 10 C10 17.26 10 24.52 10 32 C46.96 32 83.92 32 122 32 C122 24.74 122 17.48 122 10 C127.17241379 2.24137931 127.17241379 2.24137931 132 0 C137.5997712 -0.75381535 142.33499991 -0.77303575 147.5 1.625 C150 4 150 4 154 10 C154 17.26 154 24.52 154 32 C190.96 32 227.92 32 266 32 C266 24.74 266 17.48 266 10 C271.17241379 2.24137931 271.17241379 2.24137931 276 0 C281.5997712 -0.75381535 286.33499991 -0.77303575 291.5 1.625 C295.06513686 5.01188002 297.69639119 7.58455122 298.3203125 12.54833984 C298.39313609 15.50022395 298.3490024 18.42396697 298.25 21.375 C298.23195313 22.39722656 298.21390625 23.41945313 298.1953125 24.47265625 C298.14839491 26.98274749 298.08276729 29.49087764 298 32 C299.73902588 31.9685791 299.73902588 31.9685791 301.51318359 31.93652344 C305.85550357 31.8635777 310.1977705 31.81800373 314.54052734 31.78027344 C316.41236509 31.76028137 318.28414138 31.73307832 320.15576172 31.69824219 C343.80301018 31.26943875 343.80301018 31.26943875 353.46875 40.296875 C359.34800344 46.83604464 362.24650235 53.8615584 362.25726891 62.68736267 C362.26077498 63.33744691 362.26428105 63.98753114 362.26789337 64.6573149 C362.27718739 66.83274576 362.27228935 69.00790775 362.26742554 71.18334961 C362.27116279 72.75992774 362.27576461 74.33650402 362.28115618 75.91307735 C362.29339193 80.24336004 362.29312505 84.5735655 362.29076743 88.90386152 C362.29035942 93.57468323 362.30139675 98.24548013 362.31088257 102.91629028 C362.32749562 112.06561368 362.33299221 121.2149113 362.33410732 130.36424851 C362.33505745 137.79922239 362.33916597 145.23418775 362.34550858 152.66915894 C362.36312016 173.74225623 362.37234733 194.81533316 362.37084763 215.88843787 C362.37076772 217.02450142 362.3706878 218.16056497 362.37060547 219.33105469 C362.37052371 220.46850266 362.37044195 221.60595063 362.37035771 222.77786672 C362.36954435 241.22246692 362.38869466 259.66698554 362.4168822 278.11156213 C362.44558747 297.04401464 362.45942387 315.97642733 362.45769465 334.90890217 C362.45703004 345.54069273 362.46255384 356.17239772 362.48405075 366.8041687 C362.50223132 375.85379421 362.50663548 384.90329534 362.4930319 393.95293117 C362.48648704 398.57141098 362.48643974 403.18965196 362.5037384 407.80810928 C362.51940682 412.03469653 362.51666974 416.26085432 362.49917014 420.48743069 C362.49608649 422.0176325 362.49978376 423.54786586 362.51089029 425.07803047 C362.52498106 427.15675427 362.51445175 429.23396528 362.49777794 431.31263733 C362.49843004 433.04497919 362.49843004 433.04497919 362.49909532 434.81231785 C361.6753245 440.07367662 359.22415884 442.97067784 355.21286011 446.34353971 C351.389059 448.31498399 348.88537508 448.50121206 344.59423828 448.50336456 C343.86648886 448.50917833 343.13873943 448.51499209 342.388937 448.52098203 C339.94905796 448.53558615 337.51018429 448.52169555 335.0703125 448.50793457 C333.30399054 448.51254334 331.5376724 448.51889609 329.7713623 448.52684355 C324.91652428 448.54356335 320.0620002 448.53527844 315.20716095 448.52289867 C309.97190712 448.51386137 304.73670789 448.52781136 299.50146484 448.53881836 C289.24518846 448.55662226 278.98902904 448.55275525 268.73274803 448.5411678 C260.39864516 448.53214111 252.06457511 448.53090616 243.73046875 448.53526306 C242.54515942 448.53587599 241.35985008 448.53648893 240.13862228 448.53712043 C237.73082987 448.53839931 235.32303746 448.53969616 232.91524506 448.5410108 C210.32745132 448.55242208 187.73972248 448.53929428 165.15193939 448.51780933 C145.76271876 448.49993787 126.37359391 448.50304182 106.984375 448.52148438 C84.47843854 448.54288139 61.97255898 448.55132339 39.46661377 448.53903532 C37.06758627 448.5377611 34.66855877 448.53650362 32.26953125 448.53526306 C30.49889376 448.53433741 30.49889376 448.53433741 28.69248581 448.53339306 C20.36659125 448.52993665 12.04073273 448.53577476 3.71484375 448.54518127 C-6.42906404 448.55638964 -16.57284799 448.55338565 -26.71674156 448.5320583 C-31.89417717 448.52153228 -37.07140616 448.51745253 -42.24884033 448.53065491 C-46.98614249 448.54255242 -51.72304602 448.53605989 -56.46031189 448.5147447 C-58.17624008 448.51026742 -59.89220178 448.51257006 -61.60810852 448.52224785 C-63.93729994 448.53437938 -66.26511893 448.52197117 -68.59423828 448.50336456 C-69.88886993 448.50271515 -71.18350159 448.50206574 -72.5173645 448.50139666 C-77.71983473 447.75239459 -80.7530112 445.27589251 -84.359375 441.5859375 C-86.90143168 436.02972789 -86.41974844 430.65106953 -86.25 424.625 C-86.23195312 423.41199219 -86.21390625 422.19898438 -86.1953125 420.94921875 C-86.14832216 417.9653321 -86.08263372 414.98307721 -86 412 C-84.83269317 412.48714289 -83.66538633 412.97428577 -82.46270657 413.47619057 C-75.64292765 415.72837662 -68.69003391 415.41517009 -61.59669495 415.38095093 C-60.03275172 415.38441102 -58.46881094 415.38917794 -56.90487522 415.39513266 C-52.62325216 415.40762422 -48.34183043 415.40148068 -44.06020677 415.39217401 C-39.43639492 415.38537624 -34.81261728 415.3958684 -30.18881226 415.40411377 C-21.13679701 415.41744583 -12.08485645 415.41457561 -3.03283829 415.40587585 C4.32527755 415.39909723 11.68337248 415.39818336 19.04149055 415.4014473 C20.08924583 415.401907 21.1370011 415.40236669 22.21650653 415.40284032 C24.34509842 415.40379951 26.4736903 415.40477215 28.60228217 415.4057581 C48.55727496 415.41431056 68.51222638 415.40448033 88.46721239 415.388357 C105.58273588 415.37495592 122.69819832 415.37728047 139.8137207 415.39111328 C159.69637671 415.40717501 179.57899647 415.41348453 199.46165806 415.40427649 C201.58266993 415.40332086 203.7036818 415.40237775 205.82469368 415.4014473 C206.86822946 415.40098447 207.91176524 415.40052164 208.98692332 415.40004479 C216.33413509 415.39745654 223.68132383 415.4018224 231.02853203 415.40888596 C239.98536927 415.41730781 248.94212765 415.41500645 257.89895587 415.39904372 C262.46727751 415.39116997 267.03546777 415.38805413 271.60378838 415.39799118 C275.78908419 415.40695723 279.97412733 415.40197386 284.15940035 415.38605852 C285.67006389 415.38271877 287.18074896 415.38438659 288.69139855 415.39168589 C300.6548476 415.44503906 311.80536656 414.42108875 321 406 C327.77006318 397.08439217 329.2973075 389.07580132 329.2784729 378.11709595 C329.28425858 376.91431 329.29004425 375.71152405 329.29600525 374.47229004 C329.31006018 371.13510753 329.31521145 367.79812495 329.31664422 364.46092728 C329.32042407 360.80643375 329.3357535 357.15198522 329.3496151 353.49751854 C329.37479124 346.40504405 329.3897786 339.31258457 329.40119901 332.22007605 C329.41485028 324.01541742 329.44118627 315.81083174 329.4675293 307.60620117 C329.53081144 285.94582962 329.57684902 264.28541047 329.625 242.625 C329.74875 194.23875 329.8725 145.8525 330 96 C203.28 96 76.56 96 -54 96 C-54 185.76 -54 275.52 -54 368 C-64.56 368 -75.12 368 -86 368 C-86.09044982 328.42328011 -86.16205159 288.84658744 -86.20426132 249.26978496 C-86.20926407 244.59603486 -86.21444136 239.92228495 -86.21972656 235.24853516 C-86.2207758 234.31808645 -86.22182505 233.38763775 -86.22290608 232.42899363 C-86.24030528 217.36871017 -86.2718403 202.30848786 -86.30861118 187.24824066 C-86.3460341 171.79188658 -86.36823871 156.33556449 -86.37635398 140.87916696 C-86.38183895 131.34383165 -86.39915483 121.80866921 -86.43166587 112.27338712 C-86.45283042 105.7322519 -86.45919565 99.19120588 -86.45400551 92.65003891 C-86.45144674 88.87763516 -86.45533394 85.10553321 -86.4768219 81.33318329 C-86.49997947 77.23768324 -86.49193123 73.14282259 -86.48101807 69.04727173 C-86.49849512 67.27000055 -86.49849512 67.27000055 -86.51632524 65.4568249 C-86.44724548 55.85728067 -84.38534119 47.68594613 -77.703125 40.53125 C-70.20136136 33.78654508 -62.56271954 31.68361926 -52.6640625 31.8046875 C-51.34503433 31.80893234 -51.34503433 31.80893234 -49.99935913 31.81326294 C-47.20776406 31.82440288 -44.4164971 31.84949589 -41.625 31.875 C-39.72526507 31.8850378 -37.82552508 31.89416225 -35.92578125 31.90234375 C-31.28372893 31.92432194 -26.64191998 31.9588089 -22 32 C-22.02094727 31.36497559 -22.04189453 30.72995117 -22.06347656 30.07568359 C-22.14704581 27.17561924 -22.19878774 24.27580884 -22.25 21.375 C-22.28351563 20.37597656 -22.31703125 19.37695312 -22.3515625 18.34765625 C-22.43315123 12.18770715 -22.1132688 8.68372214 -18 4 C-12.72867143 -1.00776214 -6.89190982 -0.92775709 0 0 Z " fill="#FA89A4" transform="translate(126,32)"/>
<path d="M0 0 C10.56 0 21.12 0 32 0 C32.09039214 43.46663055 32.16202041 86.93323859 32.20426132 130.39994446 C32.20926425 135.52948787 32.21444153 140.65903109 32.21972656 145.78857422 C32.2207758 146.80979061 32.22182505 147.831007 32.22290608 148.88316934 C32.24031986 165.42698662 32.2718629 181.97074842 32.30861118 198.51453276 C32.34599354 215.4850845 32.36823013 232.45560714 32.37635398 249.42619836 C32.38184737 259.90124794 32.39920894 270.37614067 32.43166587 280.85114197 C32.45278036 288.03046559 32.459207 295.20970791 32.45400551 302.38906033 C32.45143895 306.53360664 32.45542291 310.67787852 32.4768219 314.82237625 C32.49626754 318.61620328 32.49728325 322.40957097 32.48359558 326.20341901 C32.48110157 328.22707618 32.4983714 330.25072784 32.51632524 332.27430689 C32.44225033 343.46588916 32.44225033 343.46588916 28 348 C23.40458247 351.6269674 20.41975737 352.50044238 14.59423828 352.50336456 C13.86648886 352.50917833 13.13873943 352.51499209 12.388937 352.52098203 C9.94905796 352.53558615 7.51018429 352.52169555 5.0703125 352.50793457 C3.30399054 352.51254334 1.5376724 352.51889609 -0.2286377 352.52684355 C-5.08347572 352.54356335 -9.9379998 352.53527844 -14.79283905 352.52289867 C-20.02809288 352.51386137 -25.26329211 352.52781136 -30.49853516 352.53881836 C-40.75481154 352.55662226 -51.01097096 352.55275525 -61.26725197 352.5411678 C-69.60135484 352.53214111 -77.93542489 352.53090616 -86.26953125 352.53526306 C-87.45484058 352.53587599 -88.64014992 352.53648893 -89.86137772 352.53712043 C-92.26917013 352.53839931 -94.67696254 352.53969616 -97.08475494 352.5410108 C-119.67254868 352.55242208 -142.26027752 352.53929428 -164.84806061 352.51780933 C-184.23728124 352.49993787 -203.62640609 352.50304182 -223.015625 352.52148438 C-245.52156146 352.54288139 -268.02744102 352.55132339 -290.53338623 352.53903532 C-292.93241373 352.5377611 -295.33144123 352.53650362 -297.73046875 352.53526306 C-299.50110624 352.53433741 -299.50110624 352.53433741 -301.30751419 352.53339306 C-309.63340875 352.52993665 -317.95926727 352.53577476 -326.28515625 352.54518127 C-336.42906404 352.55638964 -346.57284799 352.55338565 -356.71674156 352.5320583 C-361.89417717 352.52153228 -367.07140616 352.51745253 -372.24884033 352.53065491 C-376.98614249 352.54255242 -381.72304602 352.53605989 -386.46031189 352.5147447 C-388.17624008 352.51026742 -389.89220178 352.51257006 -391.60810852 352.52224785 C-393.93729994 352.53437938 -396.26511893 352.52197117 -398.59423828 352.50336456 C-399.88886993 352.50271515 -401.18350159 352.50206574 -402.5173645 352.50139666 C-407.71983473 351.75239459 -410.7530112 349.27589251 -414.359375 345.5859375 C-416.90143168 340.02972789 -416.41974844 334.65106953 -416.25 328.625 C-416.23195313 327.41199219 -416.21390625 326.19898438 -416.1953125 324.94921875 C-416.14832216 321.9653321 -416.08263372 318.98307721 -416 316 C-414.83269317 316.48714289 -413.66538633 316.97428577 -412.46270657 317.47619057 C-405.64292765 319.72837662 -398.69003391 319.41517009 -391.59669495 319.38095093 C-390.03275172 319.38441102 -388.46881094 319.38917794 -386.90487522 319.39513266 C-382.62325216 319.40762422 -378.34183043 319.40148068 -374.06020677 319.39217401 C-369.43639492 319.38537624 -364.81261728 319.3958684 -360.18881226 319.40411377 C-351.13679701 319.41744583 -342.08485645 319.41457561 -333.03283829 319.40587585 C-325.67472245 319.39909723 -318.31662752 319.39818336 -310.95850945 319.4014473 C-309.91075417 319.401907 -308.8629989 319.40236669 -307.78349347 319.40284032 C-305.65490158 319.40379951 -303.5263097 319.40477215 -301.39771783 319.4057581 C-281.44272504 319.41431056 -261.48777362 319.40448033 -241.53278761 319.388357 C-224.41726412 319.37495592 -207.30180168 319.37728047 -190.1862793 319.39111328 C-170.30362329 319.40717501 -150.42100353 319.41348453 -130.53834194 319.40427649 C-128.41733007 319.40332086 -126.2963182 319.40237775 -124.17530632 319.4014473 C-123.13177054 319.40098447 -122.08823476 319.40052164 -121.01307668 319.40004479 C-113.66586491 319.39745654 -106.31867617 319.4018224 -98.97146797 319.40888596 C-90.01463073 319.41730781 -81.05787235 319.41500645 -72.10104413 319.39904372 C-67.53272249 319.39116997 -62.96453223 319.38805413 -58.39621162 319.39799118 C-54.21091581 319.40695723 -50.02587267 319.40197386 -45.84059965 319.38605852 C-44.32993611 319.38271877 -42.81925104 319.38438659 -41.30860145 319.39168589 C-29.3451524 319.44503906 -18.19463344 318.42108875 -9 310 C-2.22994026 301.0843967 -0.70270522 293.07577099 -0.7215271 282.11709595 C-0.7128385 280.30855953 -0.7128385 280.30855953 -0.70397437 278.46348703 C-0.6899248 275.12491871 -0.68474513 271.78655067 -0.68332577 268.44796729 C-0.67962721 264.8447428 -0.66446945 261.24156427 -0.65071106 257.6383667 C-0.62844873 251.39825549 -0.61342928 245.15816065 -0.60334396 238.91801834 C-0.58875185 229.89585173 -0.56321353 220.87374216 -0.53501268 211.85160904 C-0.48955437 197.21342504 -0.45293558 182.57523283 -0.421875 167.93701172 C-0.39168553 153.71824704 -0.35733342 139.49950246 -0.31738281 125.28076172 C-0.31492126 124.40416136 -0.31245972 123.527561 -0.30992357 122.62439699 C-0.2975489 118.22670366 -0.28509238 113.82901056 -0.27259517 109.43131757 C-0.16904175 72.95423882 -0.08037897 36.47713663 0 0 Z " fill="#D86883" transform="translate(456,128)"/>
<path d="M0 0 C5.30732163 4.20210932 9.13979109 9.49670827 10.67578125 16.11328125 C10.73765625 16.93828125 10.79953125 17.76328125 10.86328125 18.61328125 C11.52328125 18.61328125 12.18328125 18.61328125 12.86328125 18.61328125 C12.96769531 17.72511719 13.07210937 16.83695313 13.1796875 15.921875 C14.94480029 7.37872909 21.36911369 1.68552388 28.3359375 -3.01171875 C35.95665297 -7.15776488 44.15453934 -7.6106073 52.578125 -5.8046875 C61.47664079 -2.72605407 68.66909979 3.62170045 72.92578125 11.98828125 C76.53082016 20.07075283 77.26982916 28.27092214 74.9921875 36.921875 C70.42253795 48.68310418 60.80556754 56.81150094 52.0234375 65.55078125 C50.88978982 66.68255989 49.75636566 67.81456245 48.62315369 68.94677734 C45.66464274 71.90150136 42.70313944 74.85320778 39.7409668 77.80426025 C36.708934 80.82599596 33.67979058 83.85062519 30.65039062 86.875 C24.72415158 92.7905693 18.79474283 98.70294854 12.86328125 104.61328125 C8.9797368 103.02669385 6.33802798 100.38390624 3.42382812 97.46435547 C2.89322281 96.94046738 2.36261749 96.41657928 1.81593323 95.8768158 C0.06596442 94.14582009 -1.67638695 92.40739994 -3.41796875 90.66796875 C-4.63563623 89.45673122 -5.85345261 88.24564336 -7.07141113 87.03469849 C-9.62361505 84.49446675 -12.17165338 81.95013727 -14.71728516 79.40332031 C-17.96862617 76.15177647 -21.2334817 72.91418596 -24.50211334 69.68003654 C-27.0226907 67.18177916 -29.53404154 64.67439985 -32.04295349 62.16443253 C-33.24213533 60.96760039 -34.44453774 59.77398567 -35.65028381 58.58376694 C-47.23908134 47.13027797 -47.23908134 47.13027797 -50.13671875 39.61328125 C-50.54148437 38.5975 -50.94625 37.58171875 -51.36328125 36.53515625 C-53.48590993 28.51633678 -53.11983154 19.53691492 -49.58984375 11.9921875 C-44.50388465 3.66598026 -37.40299344 -3.61360866 -27.6875 -5.984375 C-17.31537896 -7.62040634 -8.85941411 -5.74971117 0 0 Z " fill="#E2434B" transform="translate(316.13671875,182.38671875)"/>
<path d="M0 0 C10.56 0 21.12 0 32 0 C32 89.76 32 179.52 32 272 C21.44 272 10.88 272 0 272 C0 182.24 0 92.48 0 0 Z " fill="#D86883" transform="translate(40,128)"/>
<path d="M0 0 C15.84 0 31.68 0 48 0 C48 15.84 48 31.68 48 48 C32.16 48 16.32 48 0 48 C0 32.16 0 16.32 0 0 Z " fill="#DADCDE" transform="translate(344,320)"/>
<path d="M0 0 C15.84 0 31.68 0 48 0 C48 15.84 48 31.68 48 48 C32.16 48 16.32 48 0 48 C0 32.16 0 16.32 0 0 Z " fill="#DADCDE" transform="translate(264,320)"/>
<path d="M0 0 C15.84 0 31.68 0 48 0 C48 15.84 48 31.68 48 48 C32.16 48 16.32 48 0 48 C0 32.16 0 16.32 0 0 Z " fill="#DADCDE" transform="translate(184,320)"/>
<path d="M0 0 C15.84 0 31.68 0 48 0 C48 15.84 48 31.68 48 48 C32.16 48 16.32 48 0 48 C0 32.16 0 16.32 0 0 Z " fill="#DADCDE" transform="translate(104,320)"/>
<path d="M0 0 C15.84 0 31.68 0 48 0 C48 15.84 48 31.68 48 48 C32.16 48 16.32 48 0 48 C0 32.16 0 16.32 0 0 Z " fill="#DADCDE" transform="translate(184,240)"/>
<path d="M0 0 C15.84 0 31.68 0 48 0 C48 15.84 48 31.68 48 48 C32.16 48 16.32 48 0 48 C0 32.16 0 16.32 0 0 Z " fill="#DADCDE" transform="translate(104,240)"/>
<path d="M0 0 C15.84 0 31.68 0 48 0 C48 15.84 48 31.68 48 48 C32.16 48 16.32 48 0 48 C0 32.16 0 16.32 0 0 Z " fill="#DADCDE" transform="translate(184,160)"/>
<path d="M0 0 C15.84 0 31.68 0 48 0 C48 15.84 48 31.68 48 48 C32.16 48 16.32 48 0 48 C0 32.16 0 16.32 0 0 Z " fill="#DADCDE" transform="translate(104,160)"/>
<path d="M0 0 C4.64033987 2.15444351 8.03598049 5.2220809 10 10 C10.54851096 14.13732054 10.46541986 18.23134214 10.390625 22.3984375 C10.38496521 23.58853424 10.37930542 24.77863098 10.37347412 26.00479126 C10.35113451 29.79527486 10.30093963 33.58480345 10.25 37.375 C10.22993201 39.94920507 10.21168177 42.523425 10.1953125 45.09765625 C10.15468424 51.3990989 10.07638201 57.69848405 10 64 C-0.56 64 -11.12 64 -22 64 C-22.09189302 56.41882578 -22.17151794 48.83958846 -22.21972656 41.25830078 C-22.23982563 38.68010912 -22.26710941 36.10196296 -22.30175781 33.52392578 C-22.35034847 29.81531539 -22.37298658 26.10730844 -22.390625 22.3984375 C-22.41127014 21.24822113 -22.43191528 20.09800476 -22.45318604 18.91293335 C-22.45494774 12.61147807 -22.27883437 8.76395187 -18 4 C-12.72867143 -1.00776214 -6.89190982 -0.92775709 0 0 Z " fill="#F8CACB" transform="translate(414,32)"/>
<path d="M0 0 C4.64033987 2.15444351 8.03598049 5.2220809 10 10 C10.54851096 14.13732054 10.46541986 18.23134214 10.390625 22.3984375 C10.38496521 23.58853424 10.37930542 24.77863098 10.37347412 26.00479126 C10.35113451 29.79527486 10.30093963 33.58480345 10.25 37.375 C10.22993201 39.94920507 10.21168177 42.523425 10.1953125 45.09765625 C10.15468424 51.3990989 10.07638201 57.69848405 10 64 C-0.56 64 -11.12 64 -22 64 C-22.09189302 56.41882578 -22.17151794 48.83958846 -22.21972656 41.25830078 C-22.23982563 38.68010912 -22.26710941 36.10196296 -22.30175781 33.52392578 C-22.35034847 29.81531539 -22.37298658 26.10730844 -22.390625 22.3984375 C-22.41127014 21.24822113 -22.43191528 20.09800476 -22.45318604 18.91293335 C-22.45494774 12.61147807 -22.27883437 8.76395187 -18 4 C-12.72867143 -1.00776214 -6.89190982 -0.92775709 0 0 Z " fill="#F8CACB" transform="translate(270,32)"/>
<path d="M0 0 C4.64033987 2.15444351 8.03598049 5.2220809 10 10 C10.54851096 14.13732054 10.46541986 18.23134214 10.390625 22.3984375 C10.38496521 23.58853424 10.37930542 24.77863098 10.37347412 26.00479126 C10.35113451 29.79527486 10.30093963 33.58480345 10.25 37.375 C10.22993201 39.94920507 10.21168177 42.523425 10.1953125 45.09765625 C10.15468424 51.3990989 10.07638201 57.69848405 10 64 C-0.56 64 -11.12 64 -22 64 C-22.09189302 56.41882578 -22.17151794 48.83958846 -22.21972656 41.25830078 C-22.23982563 38.68010912 -22.26710941 36.10196296 -22.30175781 33.52392578 C-22.35034847 29.81531539 -22.37298658 26.10730844 -22.390625 22.3984375 C-22.41127014 21.24822113 -22.43191528 20.09800476 -22.45318604 18.91293335 C-22.45494774 12.61147807 -22.27883437 8.76395187 -18 4 C-12.72867143 -1.00776214 -6.89190982 -0.92775709 0 0 Z " fill="#F8CACB" transform="translate(126,32)"/>
<path d="M0 0 C5.28 0 10.56 0 16 0 C16 26.4 16 52.8 16 80 C10.72 80 5.44 80 0 80 C0 53.6 0 27.2 0 0 Z " fill="#DADCDE" transform="translate(416,328)"/>
<path d="M0 0 C5.28 0 10.56 0 16 0 C16 21.12 16 42.24 16 64 C10.72 64 5.44 64 0 64 C0 42.88 0 21.76 0 0 Z " fill="#DADCDE" transform="translate(416,152)"/>
<path d="M0 0 C5.28 0 10.56 0 16 0 C16 5.28 16 10.56 16 16 C10.72 16 5.44 16 0 16 C0 10.72 0 5.44 0 0 Z " fill="#DADCDE" transform="translate(416,296)"/>
<path d="M0 0 C5.28 0 10.56 0 16 0 C16 5.28 16 10.56 16 16 C10.72 16 5.44 16 0 16 C0 10.72 0 5.44 0 0 Z " fill="#DADCDE" transform="translate(416,264)"/>
<path d="M0 0 C5.28 0 10.56 0 16 0 C16 5.28 16 10.56 16 16 C10.72 16 5.44 16 0 16 C0 10.72 0 5.44 0 0 Z " fill="#DADCDE" transform="translate(416,232)"/>
</svg>
