<?xml version="1.0" encoding="UTF-8"?>
<svg version="1.1" xmlns="http://www.w3.org/2000/svg" width="512" height="512">
<path d="M0 0 C4.46279226 2.15170341 7.2358803 4.90500786 10 9 C11.02987787 12.13898054 11.12135941 15.02904942 11.11352539 18.31933594 C11.11340454 19.39489746 11.11328369 20.47045898 11.11315918 21.57861328 C11.10804321 22.70251465 11.10292725 23.82641602 11.09765625 24.984375 C11.09664917 26.02223145 11.09564209 27.06008789 11.09460449 28.12939453 C11.08937608 32.00294094 11.07541481 35.87647159 11.0625 39.75 C11.041875 48.4125 11.02125 57.075 11 66 C33.77 66 56.54 66 80 66 C79.88141774 48.49863927 79.88141774 48.49863927 79.72973633 30.99755859 C79.72097163 28.797856 79.71332765 26.59814854 79.70703125 24.3984375 C79.6840094 22.69554565 79.6840094 22.69554565 79.66052246 20.95825195 C79.65804601 13.47441952 80.39346687 8.93234977 85.5 3.1875 C89.93813443 -0.69586763 94.3961515 -0.34164775 100.05078125 -0.2734375 C104.09326049 0.1013619 106.09908599 1.17160884 109 4 C113.73875211 10.3521637 113.5282264 15.97043132 113.390625 23.71484375 C113.38659668 24.78899536 113.38256836 25.86314697 113.37841797 26.96984863 C113.3575849 30.95924102 113.30173974 34.94838875 113.25 38.9375 C113.1675 47.868125 113.085 56.79875 113 66 C135.77 66 158.54 66 182 66 C181.8815356 49.24692288 181.8815356 49.24692288 181.72973633 32.49414062 C181.72096795 30.38151506 181.71332485 28.26888439 181.70703125 26.15625 C181.6840094 24.53348145 181.6840094 24.53348145 181.66052246 22.87792969 C181.65826831 16.31986518 181.69356906 9.53777306 186.45222473 4.44616699 C191.69704436 -0.06056794 195.27618378 -0.34989754 202.015625 -0.27734375 C206.04015882 0.09666397 208.08009163 1.22608705 211 4 C214.98010098 9.16337424 216.12907132 12.8226158 216.11352539 19.22753906 C216.11340454 20.28279785 216.11328369 21.33805664 216.11315918 22.42529297 C216.10804321 23.52760254 216.10292725 24.62991211 216.09765625 25.765625 C216.09664917 26.78382324 216.09564209 27.80202148 216.09460449 28.85107422 C216.08937665 32.65072762 216.07541538 36.45036495 216.0625 40.25 C216.041875 48.7475 216.02125 57.245 216 66 C238.77 66 261.54 66 285 66 C284.80251697 48.25937954 284.80251697 48.25937954 284.54956055 30.51953125 C284.53494784 28.28386634 284.52220903 26.04818806 284.51171875 23.8125 C284.48613892 22.66587891 284.46055908 21.51925781 284.4342041 20.33789062 C284.43038192 13.28061365 285.24549515 8.39813308 290 3 C293.62113808 0.06362842 296.38832633 -0.41029342 301 -0.375 C302.010625 -0.38273438 303.02125 -0.39046875 304.0625 -0.3984375 C308.70496206 0.23125815 311.84970467 2.38404738 314.75 6 C317.71520303 9.95360404 318.12472067 12.49483207 318.11352539 17.29760742 C318.11340454 18.39359253 318.11328369 19.48957764 318.11315918 20.61877441 C318.10804321 21.76938354 318.10292725 22.91999268 318.09765625 24.10546875 C318.09664917 25.16399048 318.09564209 26.22251221 318.09460449 27.31311035 C318.08936829 31.27125124 318.07540705 35.22937669 318.0625 39.1875 C318.041875 48.035625 318.02125 56.88375 318 66 C340.77 66 363.54 66 387 66 C386.88147535 48.87278117 386.88147535 48.87278117 386.72973633 31.74584961 C386.72096983 29.58968553 386.71332628 27.43351646 386.70703125 25.27734375 C386.6840094 23.61451355 386.6840094 23.61451355 386.66052246 21.91809082 C386.65824641 15.16807862 386.87386698 9.54772348 391.53515625 4.2578125 C397.79444782 -0.38462882 402.24633823 -0.72056281 410 0 C414.63737929 2.15306896 418.05811871 5.21304679 420 10 C420.55142788 14.28242104 420.46517571 18.5244702 420.390625 22.8359375 C420.38496521 24.07042633 420.37930542 25.30491516 420.37347412 26.57681274 C420.35112875 30.50994042 420.30093247 34.44214881 420.25 38.375 C420.22767659 41.0455596 420.21168254 43.71611055 420.1953125 46.38671875 C420.15126972 52.92479149 420.08437431 59.46233006 420 66 C421.032033 66.0912188 421.032033 66.0912188 422.08491516 66.1842804 C422.98671005 66.2682457 423.88850494 66.352211 424.81762695 66.4387207 C425.71189896 66.52015823 426.60617096 66.60159576 427.52754211 66.6855011 C434.86720618 67.61911307 442.14394581 72.52655017 447 78 C452.10927997 85.23323007 455.24651886 91.82130735 455.25726891 100.79833508 C455.26077498 101.46042832 455.26428105 102.12252156 455.26789337 102.80467823 C455.27718972 105.02100812 455.2722887 107.23707422 455.26742554 109.45341492 C455.2711627 111.05942794 455.27576449 112.66543915 455.28115618 114.27144748 C455.29339363 118.68328928 455.29312483 123.0950553 455.29076743 127.5069102 C455.29035945 132.2657627 455.30139671 137.02459084 455.31088257 141.78343201 C455.32749811 151.10688804 455.33299238 160.43031878 455.33410732 169.75378837 C455.33505763 177.33317004 455.33916703 184.91254336 455.34550858 192.49192238 C455.36312323 213.98239151 455.37234721 235.47284066 455.37084763 256.96331706 C455.37072776 258.70128591 455.37072776 258.70128591 455.37060547 260.47436523 C455.37052371 261.63442657 455.37044195 262.79448791 455.37035771 263.98970262 C455.36954496 282.78658333 455.38867933 301.58338389 455.4168822 320.38024142 C455.44561433 339.68223201 455.45942228 358.98418353 455.45769465 378.28619605 C455.45703082 389.12214881 455.46252009 399.95801755 455.48405075 410.79395103 C455.50226694 420.02093219 455.50660632 429.24779125 455.4930319 438.47478261 C455.48650423 443.18096678 455.4863778 447.88691676 455.5037384 452.59307861 C455.5194832 456.90566026 455.51659118 461.21782231 455.49917014 465.53039382 C455.49610332 467.08625641 455.49972064 468.64215043 455.51089029 470.19797596 C455.59925346 483.38489766 453.74689375 493.14869989 444.3671875 502.8359375 C436.86615793 509.69331437 429.26242221 512.31640337 419.04787064 512.25726891 C418.27319089 512.26077498 417.49851114 512.26428105 416.70035625 512.26789337 C414.10707054 512.27718993 411.51401027 512.27228857 408.92071533 512.26742554 C407.04160274 512.27116267 405.1624917 512.27576445 403.28338313 512.28115618 C398.12129985 512.29339373 392.95928133 512.29312482 387.79718685 512.29076743 C382.22921181 512.29035946 376.66125759 512.30139657 371.09329224 512.31088257 C360.18512711 512.32749768 349.27698359 512.33299235 338.36880687 512.33410732 C329.50226409 512.33505755 320.63572845 512.3391666 311.76918793 512.34550858 C290.72277998 512.36025614 269.6763764 512.37255816 248.62996292 512.37151146 C247.95701816 512.3714803 247.28407339 512.37144914 246.59073636 512.37141704 C243.18005327 512.37125083 239.76937017 512.37105275 236.35868707 512.37084763 C235.68132613 512.37080774 235.0039652 512.37076785 234.30607817 512.37072675 C232.9362893 512.37064587 231.56650043 512.37056228 230.19671157 512.37047596 C208.88762417 512.3692506 187.57860043 512.38426146 166.26953125 512.41162109 C142.32278291 512.44235477 118.37608239 512.45952748 94.42930865 512.45769465 C81.75231456 512.45703056 69.07539226 512.46253122 56.39841461 512.48405075 C45.60507719 512.50225528 34.8118441 512.50661581 24.01849797 512.4930319 C18.51233902 512.48649865 13.00638028 512.48639818 7.50024033 512.5037384 C2.45680212 512.51945801 -2.58627691 512.51661662 -7.62970629 512.49917014 C-9.45135122 512.49609783 -11.27302289 512.49974133 -13.09463629 512.51089029 C-26.96021927 512.59011255 -37.41684978 511.44287855 -47.8359375 501.37109375 C-54.09637618 494.51173224 -57.24605644 487.57491881 -57.25726891 478.18325424 C-57.26077498 477.51917303 -57.26428105 476.85509182 -57.26789337 476.17088693 C-57.27719005 473.94780459 -57.27228862 471.72498521 -57.26742554 469.50189209 C-57.27116268 467.89104158 -57.27576445 466.28019287 -57.28115618 464.66934705 C-57.29339379 460.24417312 -57.29312482 455.81907475 -57.29076743 451.39388776 C-57.29035946 446.62073936 -57.3013966 441.84761525 -57.31088257 437.07447815 C-57.32749789 427.72328366 -57.33299236 418.37211438 -57.33410732 409.02090636 C-57.33505758 401.41958629 -57.33916674 393.81827453 -57.34550858 386.21695709 C-57.3631227 364.66608478 -57.37234722 343.1152324 -57.37084763 321.56435284 C-57.37076772 320.40245722 -57.3706878 319.24056161 -57.37060547 318.04345703 C-57.37052371 316.88014277 -57.37044195 315.71682851 -57.37035771 314.5182623 C-57.36954483 295.66574065 -57.38868242 276.81329891 -57.4168822 257.96080038 C-57.44560868 238.60344402 -57.45942262 219.24612663 -57.45769465 199.88874841 C-57.45703065 189.02096957 -57.46252727 178.15327448 -57.48405075 167.28551483 C-57.50225944 158.03215478 -57.50661244 148.77891644 -57.4930319 139.52554622 C-57.48650062 134.80530935 -57.4863909 130.085306 -57.5037384 125.36509132 C-57.51946705 121.04084292 -57.51660765 116.71701326 -57.49917014 112.39277509 C-57.49609978 110.83154675 -57.49973402 109.27028718 -57.51089029 107.70909569 C-57.59827118 94.60967901 -55.32773892 84.62268718 -46 75 C-39.02904925 69.06562185 -31.16220084 65.89160534 -22 66 C-22.00888245 65.3117514 -22.01776489 64.62350281 -22.0269165 63.91439819 C-22.11548295 56.74428623 -22.17577339 49.57432994 -22.21972656 42.40380859 C-22.23756825 39.72836625 -22.26711049 37.05377984 -22.30175781 34.37841797 C-22.35033506 30.53081429 -22.37298365 26.68379213 -22.390625 22.8359375 C-22.41127014 21.64197357 -22.43191528 20.44800964 -22.45318604 19.21786499 C-22.45490751 12.83218717 -22.37327664 8.8130083 -18 4 C-12.73351415 -1.00316155 -6.88754912 -0.93663099 0 0 Z " fill="#C8E1F6" transform="translate(57,0)"/>
<path d="M0 0 C4.46279226 2.15170341 7.2358803 4.90500786 10 9 C11.02987787 12.13898054 11.12135941 15.02904942 11.11352539 18.31933594 C11.11340454 19.39489746 11.11328369 20.47045898 11.11315918 21.57861328 C11.10804321 22.70251465 11.10292725 23.82641602 11.09765625 24.984375 C11.09664917 26.02223145 11.09564209 27.06008789 11.09460449 28.12939453 C11.08937608 32.00294094 11.07541481 35.87647159 11.0625 39.75 C11.041875 48.4125 11.02125 57.075 11 66 C33.77 66 56.54 66 80 66 C79.88141774 48.49863927 79.88141774 48.49863927 79.72973633 30.99755859 C79.72097163 28.797856 79.71332765 26.59814854 79.70703125 24.3984375 C79.6840094 22.69554565 79.6840094 22.69554565 79.66052246 20.95825195 C79.65804601 13.47441952 80.39346687 8.93234977 85.5 3.1875 C89.93813443 -0.69586763 94.3961515 -0.34164775 100.05078125 -0.2734375 C104.09326049 0.1013619 106.09908599 1.17160884 109 4 C113.73875211 10.3521637 113.5282264 15.97043132 113.390625 23.71484375 C113.38659668 24.78899536 113.38256836 25.86314697 113.37841797 26.96984863 C113.3575849 30.95924102 113.30173974 34.94838875 113.25 38.9375 C113.1675 47.868125 113.085 56.79875 113 66 C135.77 66 158.54 66 182 66 C181.8815356 49.24692288 181.8815356 49.24692288 181.72973633 32.49414062 C181.72096795 30.38151506 181.71332485 28.26888439 181.70703125 26.15625 C181.6840094 24.53348145 181.6840094 24.53348145 181.66052246 22.87792969 C181.65826831 16.31986518 181.69356906 9.53777306 186.45222473 4.44616699 C191.69704436 -0.06056794 195.27618378 -0.34989754 202.015625 -0.27734375 C206.04015882 0.09666397 208.08009163 1.22608705 211 4 C214.98010098 9.16337424 216.12907132 12.8226158 216.11352539 19.22753906 C216.11340454 20.28279785 216.11328369 21.33805664 216.11315918 22.42529297 C216.10804321 23.52760254 216.10292725 24.62991211 216.09765625 25.765625 C216.09664917 26.78382324 216.09564209 27.80202148 216.09460449 28.85107422 C216.08937665 32.65072762 216.07541538 36.45036495 216.0625 40.25 C216.041875 48.7475 216.02125 57.245 216 66 C238.77 66 261.54 66 285 66 C284.80251697 48.25937954 284.80251697 48.25937954 284.54956055 30.51953125 C284.53494784 28.28386634 284.52220903 26.04818806 284.51171875 23.8125 C284.48613892 22.66587891 284.46055908 21.51925781 284.4342041 20.33789062 C284.43038192 13.28061365 285.24549515 8.39813308 290 3 C293.62113808 0.06362842 296.38832633 -0.41029342 301 -0.375 C302.010625 -0.38273438 303.02125 -0.39046875 304.0625 -0.3984375 C308.70496206 0.23125815 311.84970467 2.38404738 314.75 6 C317.71520303 9.95360404 318.12472067 12.49483207 318.11352539 17.29760742 C318.11340454 18.39359253 318.11328369 19.48957764 318.11315918 20.61877441 C318.10804321 21.76938354 318.10292725 22.91999268 318.09765625 24.10546875 C318.09664917 25.16399048 318.09564209 26.22251221 318.09460449 27.31311035 C318.08936829 31.27125124 318.07540705 35.22937669 318.0625 39.1875 C318.041875 48.035625 318.02125 56.88375 318 66 C340.77 66 363.54 66 387 66 C386.88147535 48.87278117 386.88147535 48.87278117 386.72973633 31.74584961 C386.72096983 29.58968553 386.71332628 27.43351646 386.70703125 25.27734375 C386.6840094 23.61451355 386.6840094 23.61451355 386.66052246 21.91809082 C386.65824641 15.16807862 386.87386698 9.54772348 391.53515625 4.2578125 C397.79444782 -0.38462882 402.24633823 -0.72056281 410 0 C414.63737929 2.15306896 418.05811871 5.21304679 420 10 C420.55142788 14.28242104 420.46517571 18.5244702 420.390625 22.8359375 C420.38496521 24.07042633 420.37930542 25.30491516 420.37347412 26.57681274 C420.35112875 30.50994042 420.30093247 34.44214881 420.25 38.375 C420.22767659 41.0455596 420.21168254 43.71611055 420.1953125 46.38671875 C420.15126972 52.92479149 420.08437431 59.46233006 420 66 C421.032033 66.0912188 421.032033 66.0912188 422.08491516 66.1842804 C422.98671005 66.2682457 423.88850494 66.352211 424.81762695 66.4387207 C425.71189896 66.52015823 426.60617096 66.60159576 427.52754211 66.6855011 C434.86720618 67.61911307 442.14394581 72.52655017 447 78 C468.2789946 108.12476603 455 146.56901393 455 183 C286.04 183 117.08 183 -57 183 C-57 86.34782609 -57 86.34782609 -46 75 C-39.02904925 69.06562185 -31.16220084 65.89160534 -22 66 C-22.00888245 65.3117514 -22.01776489 64.62350281 -22.0269165 63.91439819 C-22.11548295 56.74428623 -22.17577339 49.57432994 -22.21972656 42.40380859 C-22.23756825 39.72836625 -22.26711049 37.05377984 -22.30175781 34.37841797 C-22.35033506 30.53081429 -22.37298365 26.68379213 -22.390625 22.8359375 C-22.41127014 21.64197357 -22.43191528 20.44800964 -22.45318604 19.21786499 C-22.45490751 12.83218717 -22.37327664 8.8130083 -18 4 C-12.73351415 -1.00316155 -6.88754912 -0.93663099 0 0 Z " fill="#D73D44" transform="translate(57,0)"/>
<path d="M0 0 C4.32563469 3.8116318 8.21280727 7.82352791 11.75 12.375 C12.35714844 13.14585937 12.96429688 13.91671875 13.58984375 14.7109375 C20.21627519 23.59287732 24.70841062 34.13545733 23.75 45.375 C19.65434383 71.59364932 5.40636276 87.93997911 -12.8125 106 C-13.83161754 107.01408446 -14.85049899 108.02840625 -15.86914062 109.04296875 C-18.32672412 111.48970835 -20.78744246 113.93326544 -23.25 116.375 C-21.71521462 120.01874563 -19.53513222 122.3263294 -16.74023438 125.09594727 C-15.80586548 126.02693741 -14.87149658 126.95792755 -13.90881348 127.91712952 C-12.88715603 128.92525255 -11.86546745 129.93334403 -10.84375 130.94140625 C-9.7971397 131.9817428 -8.75104511 133.02259841 -7.70544434 134.06394958 C-4.95512848 136.80097896 -2.19929909 139.53238295 0.5581665 142.26220703 C4.97285694 146.63373642 9.38082825 151.01201509 13.78556824 155.39356804 C15.32427889 156.9220644 16.86636196 158.44709695 18.40881348 159.97181702 C19.34318237 160.899655 20.27755127 161.82749298 21.24023438 162.78344727 C22.06471069 163.59967056 22.88918701 164.41589386 23.73864746 165.2568512 C26.03828886 167.67859606 27.60903839 169.45874951 28.125 172.8125 C27.62537723 176.22658895 26.3154806 177.12195357 23.75 179.375 C22.16734353 180.26839235 20.56149672 181.12166543 18.9375 181.9375 C13.62891918 184.98327867 11.1592968 188.7027512 8.22265625 193.984375 C6.75 196.375 6.75 196.375 3.75 198.375 C-2.03324424 198.23513865 -4.6289776 196.73832809 -8.63452148 192.67163086 C-9.36757256 191.93989403 -9.36757256 191.93989403 -10.11543274 191.19337463 C-11.71530447 189.58934748 -13.29290785 187.96518757 -14.87109375 186.33984375 C-15.98078366 185.21895447 -17.09181232 184.09938912 -18.20411682 182.98109436 C-21.11915576 180.04321582 -24.01572211 177.08776705 -26.90875244 174.12823486 C-29.86763227 171.10782804 -32.84370573 168.10446813 -35.81835938 165.09960938 C-41.6458274 159.20791466 -47.45388253 153.29753861 -53.25 147.375 C-59.35805101 152.42359223 -64.9127216 157.92493278 -70.48828125 163.55078125 C-71.45968106 164.52659496 -72.43138136 165.50210962 -73.40336609 166.4773407 C-76.45925864 169.54456713 -79.51115467 172.61575075 -82.5625 175.6875 C-86.11811037 179.26673753 -89.67535404 182.84432067 -93.23680687 186.41774559 C-94.65808406 187.84550336 -96.07631913 189.27623657 -97.49446106 190.70710754 C-98.35262924 191.56857895 -99.21079742 192.43005035 -100.0949707 193.31762695 C-101.22912163 194.4596331 -101.22912163 194.4596331 -102.38618469 195.62471008 C-104.76131958 197.85517499 -105.86811919 198.32518946 -109.125 198.75 C-112.25 198.375 -112.25 198.375 -114.3125 196.375 C-115.36508358 194.74519316 -116.40774433 193.10796524 -117.39453125 191.4375 C-121.24934046 184.97610552 -124.97535624 181.00195469 -132.25 178.375 C-134.25 176.375 -134.25 176.375 -134.8125 173.25 C-133.53054912 164.41878283 -123.25516248 157.24772455 -117.16015625 151.1875 C-116.20587007 150.23508388 -115.25180812 149.28244305 -114.29795837 148.32958984 C-111.8129203 145.84833075 -109.32489204 143.37009209 -106.83618164 140.89251709 C-104.28672504 138.35337515 -101.74017312 135.81132354 -99.19335938 133.26953125 C-94.21504369 128.30187118 -89.23355629 123.33740314 -84.25 118.375 C-85.9892522 113.53668122 -88.65128656 110.64390887 -92.32421875 107.1484375 C-93.56196527 105.9389211 -94.79959153 104.72928162 -96.03710938 103.51953125 C-97.97775975 101.64060112 -99.92168964 99.76520081 -101.86889648 97.89306641 C-116.7571723 83.53563135 -116.7571723 83.53563135 -121.25 74.375 C-121.25 73.715 -121.25 73.055 -121.25 72.375 C-121.91 72.375 -122.57 72.375 -123.25 72.375 C-124.23188561 69.79267086 -125.21059589 67.20921317 -126.1875 64.625 C-126.46529297 63.89539063 -126.74308594 63.16578125 -127.02929688 62.4140625 C-127.29677734 61.70507812 -127.56425781 60.99609375 -127.83984375 60.265625 C-128.08597412 59.61625977 -128.33210449 58.96689453 -128.58569336 58.29785156 C-130.35113723 53.18773177 -130.46691963 48.49229046 -130.5 43.125 C-130.520625 42.30386719 -130.54125 41.48273438 -130.5625 40.63671875 C-130.59926048 34.83775365 -129.59013509 30.68574347 -127.25 25.375 C-126.92 24.61832031 -126.59 23.86164063 -126.25 23.08203125 C-116.44851868 4.51281859 -99.29241534 -8.34003852 -79.57421875 -14.8359375 C-51.36626616 -23.23577132 -23.14792835 -18.2214934 0 0 Z " fill="#FA78B3" transform="translate(175.25,245.625)"/>
<path d="M0 0 C-0.02320313 0.9178125 -0.04640625 1.835625 -0.0703125 2.78125 C-0.30263889 18.57944425 3.56100795 28.01159785 14.42578125 39.33984375 C15.61498928 40.56203858 16.80653913 41.78195768 18 43 C18.67337402 43.68852051 19.34674805 44.37704102 20.04052734 45.08642578 C22.16606011 47.25196169 24.29925963 49.40951314 26.4375 51.5625 C27.11135742 52.24119141 27.78521484 52.91988281 28.47949219 53.61914062 C31.08599817 56.2165284 33.6239094 58.7085153 36.53515625 60.96484375 C39.40953128 63.33813914 41.6711993 65.99759191 44.09033203 68.82373047 C47.37407387 72.56590316 50.90888102 76.05293747 54.4375 79.5625 C55.14970703 80.27857422 55.86191406 80.99464844 56.59570312 81.73242188 C57.30533203 82.44076172 58.01496094 83.14910156 58.74609375 83.87890625 C59.68473267 84.81585327 59.68473267 84.81585327 60.64233398 85.77172852 C62.59536178 87.61756932 64.5824809 89.3698993 66.61987305 91.11987305 C71.7516856 95.58702749 76.53211231 100.38867106 81.3359375 105.203125 C82.30605774 106.17256991 83.27632623 107.14186648 84.24673462 108.11102295 C86.26360885 110.12643448 88.27869242 112.14361429 90.29248047 114.16210938 C92.87139022 116.74675413 95.4548164 119.32683089 98.03957176 121.9056282 C100.0367921 123.89923685 102.03162705 125.89521862 104.02574539 127.89192963 C105.43918497 129.30635726 106.85463283 130.7187771 108.27011108 132.13116455 C109.55252182 133.41830353 109.55252182 133.41830353 110.86083984 134.73144531 C111.61392426 135.48532532 112.36700867 136.23920532 113.14291382 137.01593018 C115.36749716 139.39262584 116.87242859 141.17078585 117.375 144.4375 C116.87537723 147.85158895 115.5654806 148.74695357 113 151 C111.41734353 151.89339235 109.81149672 152.74666543 108.1875 153.5625 C102.87891918 156.60827867 100.4092968 160.3277512 97.47265625 165.609375 C96 168 96 168 93 170 C87.21675576 169.86013865 84.6210224 168.36332809 80.61547852 164.29663086 C79.88242744 163.56489403 79.88242744 163.56489403 79.13456726 162.81837463 C77.53469553 161.21434748 75.95709215 159.59018757 74.37890625 157.96484375 C73.26921634 156.84395447 72.15818768 155.72438912 71.04588318 154.60609436 C68.13084424 151.66821582 65.23427789 148.71276705 62.34124756 145.75323486 C59.38236773 142.73282804 56.40629427 139.72946813 53.43164062 136.72460938 C47.6041726 130.83291466 41.79611747 124.92253861 36 119 C29.89194899 124.04859223 24.3372784 129.54993278 18.76171875 135.17578125 C17.79031894 136.15159496 16.81861864 137.12710962 15.84663391 138.1023407 C12.79074136 141.16956713 9.73884533 144.24075075 6.6875 147.3125 C3.13188963 150.89173753 -0.42535404 154.46932067 -3.98680687 158.04274559 C-5.40808406 159.47050336 -6.82631913 160.90123657 -8.24446106 162.33210754 C-9.10262924 163.19357895 -9.96079742 164.05505035 -10.8449707 164.94262695 C-11.97912163 166.0846331 -11.97912163 166.0846331 -13.13618469 167.24971008 C-15.51131958 169.48017499 -16.61811919 169.95018946 -19.875 170.375 C-23 170 -23 170 -25.0625 168 C-26.11508358 166.37019316 -27.15774433 164.73296524 -28.14453125 163.0625 C-31.99934046 156.60110552 -35.72535624 152.62695469 -43 150 C-45 148 -45 148 -45.5625 144.875 C-44.28054912 136.04378283 -34.00516248 128.87272455 -27.91015625 122.8125 C-26.95587007 121.86008388 -26.00180812 120.90744305 -25.04795837 119.95458984 C-22.5629203 117.47333075 -20.07489204 114.99509209 -17.58618164 112.51751709 C-15.03672504 109.97837515 -12.49017312 107.43632354 -9.94335938 104.89453125 C-4.96504369 99.92687118 0.01644371 94.96240314 5 90 C3.2607478 85.16168122 0.59871344 82.26890887 -3.07421875 78.7734375 C-4.31196527 77.5639211 -5.54959153 76.35428162 -6.78710938 75.14453125 C-8.72775975 73.26560112 -10.67168964 71.39020081 -12.61889648 69.51806641 C-27.5071723 55.16063135 -27.5071723 55.16063135 -32 46 C-32 45.34 -32 44.68 -32 44 C-32.66 44 -33.32 44 -34 44 C-37.80542377 35.89813004 -37.03511303 29.10533908 -34.24609375 20.73828125 C-31.75245737 15.04652825 -27.53431206 11.12851759 -23 7 C-22.48179688 6.47921875 -21.96359375 5.9584375 -21.4296875 5.421875 C-17.42436635 1.61353686 -14.27262468 1.4468326 -9 1 C-8.67 0.34 -8.34 -0.32 -8 -1 C-4.37673261 -2.2077558 -3.35853631 -1.54311128 0 0 Z " fill="#FC7AB4" transform="translate(86,274)"/>
<path d="M0 0 C0.83249268 0.10916748 1.66498535 0.21833496 2.52270508 0.33081055 C7.96028334 1.21344033 7.96028334 1.21344033 9.9453125 3.4453125 C11.9451429 12.80959769 11.186837 23.47707078 6.21875 31.7890625 C4.7199433 33.87906518 3.12732141 35.81092077 1.4375 37.75 C0.72980469 38.56597656 0.02210938 39.38195312 -0.70703125 40.22265625 C-7.00744877 47.33880074 -13.54552256 53.99146731 -20.765625 60.171875 C-22.43590058 61.63881269 -24.01038672 63.15956293 -25.5625 64.75 C-29.40271169 63.16531072 -31.85176575 60.71907199 -34.7734375 57.8046875 C-35.2640567 57.31598175 -35.7546759 56.827276 -36.26016235 56.32376099 C-37.29634484 55.28893662 -38.3300174 54.25159372 -39.36132812 53.21191406 C-40.91846015 51.64416962 -42.48584115 50.08726124 -44.0546875 48.53125 C-55.94396287 36.65964882 -62.52387888 27.67980842 -62.79296875 10.43359375 C-62.53343282 7.41153973 -62.06667977 5.39247798 -60.5625 2.75 C-45.22568804 -5.9903337 -16.65793956 -2.3164635 0 0 Z " fill="#CBDEED" transform="translate(147.5625,269.25)"/>
<path d="M0 0 C6.55377097 5.38640924 12.47246635 11.35885127 18.4375 17.375 C19.46525983 18.40778595 20.49325285 19.44033991 21.52148438 20.47265625 C24.01701598 22.97910287 26.50938082 25.4886708 29 28 C23.88804535 34.18039349 18.31531705 39.83110407 12.640625 45.4921875 C11.64493475 46.48855262 10.64939287 47.48506605 9.6539917 48.48171997 C7.58133044 50.55584617 5.50689465 52.62817614 3.43115234 54.69921875 C0.76903184 57.35560524 -1.88852344 60.01650689 -4.54479599 62.67873955 C-6.59327016 64.73082022 -8.64411122 66.78052204 -10.69568634 68.82950211 C-11.67724271 69.81039138 -12.65805673 70.79202408 -13.63811493 71.77441025 C-15.00209531 73.14092257 -16.36961434 74.50390007 -17.73730469 75.86669922 C-18.5141864 76.64278534 -19.29106812 77.41887146 -20.0914917 78.21847534 C-22.49517339 80.46222676 -23.59091549 80.94664115 -26.875 81.375 C-30 81 -30 81 -32.0625 79 C-33.11508358 77.37019316 -34.15774433 75.73296524 -35.14453125 74.0625 C-38.99934046 67.60110552 -42.72535624 63.62695469 -50 61 C-52 59 -52 59 -52.5625 55.875 C-51.97974647 51.86047565 -51.66482155 51.21372959 -49.09106445 48.39233398 C-48.45319 47.69300751 -47.81531555 46.99368103 -47.15811157 46.27316284 C-43.16360171 42.06570132 -39.08733773 37.94526946 -34.98046875 33.84765625 C-34.03104843 32.89756065 -33.08177646 31.9473168 -32.13264465 30.99693298 C-30.16011503 29.02294123 -28.18581861 27.05073914 -26.21020508 25.07983398 C-23.67702339 22.552396 -21.14842172 20.0204305 -18.62108898 17.48714542 C-16.66955192 15.53200245 -14.71564907 13.57923782 -12.76101112 11.62719536 C-11.37368135 10.24085585 -9.98836335 8.85250409 -8.60307312 7.46412659 C-7.34585197 6.21163368 -7.34585197 6.21163368 -6.06323242 4.93383789 C-5.3248967 4.19629776 -4.58656097 3.45875763 -3.82585144 2.6988678 C-2 1 -2 1 0 0 Z " fill="#F96FAA" transform="translate(93,363)"/>
<path d="M0 0 C4.93461319 2.29107041 7.35281968 5.29390165 10 10 C11.00285548 13.11860818 11.12145126 15.96208039 11.11352539 19.22753906 C11.11344986 20.26831604 11.11337433 21.30909302 11.11329651 22.38140869 C11.10813522 23.49820007 11.10297394 24.61499146 11.09765625 25.765625 C11.0962413 26.91415955 11.09482635 28.06269409 11.09336853 29.24603271 C11.08777143 32.91404831 11.07521944 36.58200285 11.0625 40.25 C11.05748463 42.73697829 11.05292178 45.22395753 11.04882812 47.7109375 C11.0386539 53.80733411 11.01907775 59.90359871 11 66 C-0.22 66 -11.44 66 -23 66 C-23.06901613 58.74052551 -23.12870892 51.48219787 -23.16479492 44.22265625 C-23.17984452 41.75516901 -23.2002889 39.28770835 -23.22631836 36.8203125 C-23.26286926 33.26555809 -23.27976518 29.71115861 -23.29296875 26.15625 C-23.30845261 25.06010376 -23.32393646 23.96395752 -23.33988953 22.83459473 C-23.34131484 16.28980293 -23.29561208 9.52619723 -18.54777527 4.44616699 C-12.63196006 -0.63713671 -7.58604661 -0.70498601 0 0 Z " fill="#FED043" transform="translate(262,0)"/>
<path d="M0 0 C4.63737929 2.15306896 8.05811871 5.21304679 10 10 C10.55142788 14.28242104 10.46517571 18.5244702 10.390625 22.8359375 C10.38496521 24.07042633 10.37930542 25.30491516 10.37347412 26.57681274 C10.35112875 30.50994042 10.30093247 34.44214881 10.25 38.375 C10.22767659 41.0455596 10.21168254 43.71611055 10.1953125 46.38671875 C10.1546761 52.9251161 10.07637406 59.46153211 10 66 C-0.89 66 -11.78 66 -23 66 C-23.06896563 58.5798088 -23.12867373 51.16073514 -23.16479492 43.74047852 C-23.17985705 41.21765367 -23.20031077 38.6948549 -23.22631836 36.17211914 C-23.26281383 32.54046176 -23.2797526 28.90915142 -23.29296875 25.27734375 C-23.30845261 24.15416245 -23.32393646 23.03098114 -23.33988953 21.87376404 C-23.34132844 15.13891654 -23.11477352 9.53483204 -18.46484375 4.2578125 C-12.20555218 -0.38462882 -7.75366177 -0.72056281 0 0 Z " fill="#FED043" transform="translate(467,0)"/>
<path d="M0 0 C4.46279226 2.15170341 7.2358803 4.90500786 10 9 C11.02987787 12.13898054 11.12135941 15.02904942 11.11352539 18.31933594 C11.11344986 19.38013367 11.11337433 20.4409314 11.11329651 21.53387451 C11.10813522 22.67253967 11.10297394 23.81120483 11.09765625 24.984375 C11.0962413 26.15510559 11.09482635 27.32583618 11.09336853 28.53204346 C11.0877709 32.27138829 11.0752188 36.01067326 11.0625 39.75 C11.0574847 42.28515539 11.05292184 44.82031171 11.04882812 47.35546875 C11.03865313 53.57035412 11.01907708 59.78511004 11 66 C0.11 66 -10.78 66 -22 66 C-22.09188039 58.13401748 -22.17150974 50.26990039 -22.21972656 42.40380859 C-22.23756825 39.72836625 -22.26711049 37.05377984 -22.30175781 34.37841797 C-22.35033506 30.53081429 -22.37298365 26.68379213 -22.390625 22.8359375 C-22.41127014 21.64197357 -22.43191528 20.44800964 -22.45318604 19.21786499 C-22.45490751 12.83218717 -22.37327664 8.8130083 -18 4 C-12.73351415 -1.00316155 -6.88754912 -0.93663099 0 0 Z " fill="#FECF42" transform="translate(57,0)"/>
<path d="M0 0 C1.010625 -0.00773438 2.02125 -0.01546875 3.0625 -0.0234375 C7.70496206 0.60625815 10.84970467 2.75904738 13.75 6.375 C16.71520303 10.32860404 17.12472067 12.86983207 17.11352539 17.67260742 C17.11344986 18.75350143 17.11337433 19.83439545 17.11329651 20.94804382 C17.10813522 22.11374405 17.10297394 23.27944427 17.09765625 24.48046875 C17.0962413 25.67481033 17.09482635 26.86915192 17.09336853 28.09968567 C17.0877635 31.92064908 17.07521011 35.74155425 17.0625 39.5625 C17.05748565 42.15038978 17.05292263 44.73828048 17.04882812 47.32617188 C17.03864261 53.67582183 17.01906803 60.02534559 17 66.375 C6.11 66.375 -4.78 66.375 -16 66.375 C-16.11500287 58.6876969 -16.21448695 51.003397 -16.2746582 43.31591797 C-16.29974952 40.70285916 -16.33383029 38.08987018 -16.37719727 35.47705078 C-16.43808146 31.71369159 -16.46626517 27.9512631 -16.48828125 24.1875 C-16.51408768 23.02573242 -16.5398941 21.86396484 -16.56648254 20.66699219 C-16.56889804 13.62791041 -15.74117754 8.75800162 -11 3.375 C-7.37886192 0.43862842 -4.61167367 -0.03529342 0 0 Z " fill="#FED043" transform="translate(358,-0.375)"/>
<path d="M0 0 C4.87848373 4.75652164 6.72192571 8.5283805 6.95410156 15.28100586 C6.9534728 17.57154947 6.93114264 19.86215845 6.890625 22.15234375 C6.88496521 23.36322159 6.87930542 24.57409943 6.87347412 25.82167053 C6.85115882 29.67318958 6.80096835 33.52376409 6.75 37.375 C6.72992887 39.99282507 6.71167918 42.61066478 6.6953125 45.22851562 C6.65471885 51.63216336 6.57641164 58.03377966 6.5 64.4375 C-4.39 64.4375 -15.28 64.4375 -26.5 64.4375 C-26.56891735 56.85659165 -26.62863996 49.27677294 -26.66479492 41.69580078 C-26.67986905 39.11763829 -26.70033167 36.53950138 -26.72631836 33.96142578 C-26.76276086 30.25286539 -26.77974052 26.54464446 -26.79296875 22.8359375 C-26.81619453 21.11061295 -26.81619453 21.11061295 -26.83988953 19.35043335 C-26.84145491 11.88480712 -26.09301348 7.35464016 -21 1.625 C-15.42778502 -3.2506881 -6.5102902 -2.90637955 0 0 Z " fill="#FED043" transform="translate(163.5,1.5625)"/>
<path d="M0 0 C1.27219139 -0.00218285 1.27219139 -0.00218285 2.57008362 -0.00440979 C4.3612919 -0.00275209 6.15251461 0.00879481 7.94360352 0.02954102 C10.67851621 0.05845746 13.41148502 0.05015545 16.14648438 0.03710938 C17.8893323 0.04334839 19.63217412 0.0517406 21.375 0.0625 C22.59708412 0.05809654 22.59708412 0.05809654 23.84385681 0.05360413 C28.41863436 0.12920763 31.59616338 0.44007285 35.25390625 3.49609375 C36.37890625 6.87109375 36.37890625 6.87109375 36.25390625 10.49609375 C34.27204972 13.24244838 32.68259343 15.16261031 29.28219604 15.95632935 C26.89265388 16.14155517 24.5526971 16.1629784 22.15625 16.125 C20.84932945 16.12861794 20.84932945 16.12861794 19.51600647 16.13230896 C17.67948847 16.13133201 15.84294047 16.11797453 14.0065918 16.09301758 C11.19673707 16.05865893 8.39002018 16.07237728 5.58007812 16.09179688 C3.79295538 16.08489942 2.00584073 16.07522793 0.21875 16.0625 C-0.61987076 16.06745987 -1.45849152 16.07241974 -2.32252502 16.07752991 C-6.12371708 16.00078621 -8.12542847 15.94192543 -11.27514648 13.67944336 C-13.44069483 10.4650867 -13.28650466 8.27897012 -12.74609375 4.49609375 C-9.45382753 -0.35541054 -5.39563584 -0.07421448 0 0 Z " fill="#7BACDF" transform="translate(435.74609375,405.50390625)"/>
<path d="M0 0 C0.87032364 -0.00619858 1.74064728 -0.01239716 2.63734436 -0.01878357 C4.47558475 -0.02587832 6.31388943 -0.02271369 8.15209961 -0.01000977 C10.96002943 0.00384395 13.7646179 -0.03020195 16.57226562 -0.06835938 C18.3606779 -0.06931074 20.14909433 -0.06745083 21.9375 -0.0625 C23.19239479 -0.08238731 23.19239479 -0.08238731 24.47264099 -0.10267639 C28.78618496 -0.0340297 30.54843069 0.19910352 34.09985352 2.87915039 C36.03515625 5.56640625 36.03515625 5.56640625 36.09765625 9.19140625 C34.88981945 13.02806432 34.51742001 13.73024781 31.03515625 15.56640625 C28.03527439 16.01741188 25.06447362 16.01056477 22.03515625 16 C21.16246094 16.00524185 20.28976562 16.0104837 19.390625 16.0158844 C17.54818789 16.02229891 15.7057098 16.02097498 13.86328125 16.01245117 C11.04483185 16.00393548 8.22840576 16.0327183 5.41015625 16.06445312 C3.61849019 16.06606513 1.82682054 16.06548762 0.03515625 16.0625 C-1.22748047 16.07935097 -1.22748047 16.07935097 -2.515625 16.09654236 C-6.33062186 16.05110366 -8.33091785 16.02026735 -11.49609375 13.75415039 C-13.65648733 10.53618382 -13.50537066 8.35009465 -12.96484375 4.56640625 C-9.58437919 -0.45126919 -5.53296621 -0.03272372 0 0 Z " fill="#7BACDF" transform="translate(372.96484375,405.43359375)"/>
<path d="M0 0 C1.27219139 -0.00786278 1.27219139 -0.00786278 2.57008362 -0.0158844 C4.3612458 -0.0222988 6.15245013 -0.02097511 7.94360352 -0.01245117 C10.67866348 -0.00394588 13.41163093 -0.03270116 16.14648438 -0.06445312 C17.88932229 -0.06606545 19.6321639 -0.06548702 21.375 -0.0625 C22.18972275 -0.07373398 23.0044455 -0.08496796 23.84385681 -0.09654236 C27.78182812 -0.04841088 29.82251263 0.17470177 33.27368164 2.24584961 C35.25390625 4.43359375 35.25390625 4.43359375 35.81640625 7.93359375 C35.25390625 11.43359375 35.25390625 11.43359375 33.79492188 13.61694336 C30.00588896 16.32583978 26.5888743 16.02615218 22.03515625 16 C20.69281921 16.00929787 20.69281921 16.00929787 19.32336426 16.01878357 C17.43384895 16.02587842 15.54427108 16.02271354 13.65478516 16.01000977 C10.76347935 15.99613967 7.87540764 16.03022235 4.984375 16.06835938 C3.14713462 16.06931056 1.3098902 16.06745181 -0.52734375 16.0625 C-1.39097534 16.07575821 -2.25460693 16.08901642 -3.14440918 16.10267639 C-9.10381388 16.01019698 -9.10381388 16.01019698 -12.32226562 13.12084961 C-14.27746462 9.43071323 -13.91820176 7.38945829 -12.74609375 3.43359375 C-9.24300909 -0.45765684 -4.87741478 -0.01753092 0 0 Z " fill="#7BACDF" transform="translate(310.74609375,405.56640625)"/>
<path d="M0 0 C1.27219139 -0.00786278 1.27219139 -0.00786278 2.57008362 -0.0158844 C4.3612458 -0.0222988 6.15245013 -0.02097511 7.94360352 -0.01245117 C10.67866348 -0.00394588 13.41163093 -0.03270116 16.14648438 -0.06445312 C17.88932229 -0.06606545 19.6321639 -0.06548702 21.375 -0.0625 C22.18972275 -0.07373398 23.0044455 -0.08496796 23.84385681 -0.09654236 C27.78182812 -0.04841088 29.82251263 0.17470177 33.27368164 2.24584961 C35.25390625 4.43359375 35.25390625 4.43359375 35.81640625 7.93359375 C35.25390625 11.43359375 35.25390625 11.43359375 33.77905273 13.61694336 C30.05588055 16.29548191 26.77298928 16.02651937 22.2890625 16 C21.41873886 16.00619858 20.54841522 16.01239716 19.65171814 16.01878357 C17.81347775 16.02587832 15.97517307 16.02271369 14.13696289 16.01000977 C11.32903307 15.99615605 8.5244446 16.03020195 5.71679688 16.06835938 C3.9283846 16.06931074 2.13996817 16.06745083 0.3515625 16.0625 C-0.90333229 16.08238731 -0.90333229 16.08238731 -2.18357849 16.10267639 C-6.49712246 16.0340297 -8.25936819 15.80089648 -11.81079102 13.12084961 C-13.74609375 10.43359375 -13.74609375 10.43359375 -13.80859375 6.80859375 C-11.57145893 -0.29759922 -6.68581934 -0.02403088 0 0 Z " fill="#7CACDF" transform="translate(247.74609375,405.56640625)"/>
<path d="M0 0 C0.89489136 -0.0038269 1.78978271 -0.00765381 2.71179199 -0.01159668 C4.60132982 -0.0143152 6.49090532 -0.00695816 8.38037109 0.00976562 C11.2713619 0.03117677 14.15986767 0.00996266 17.05078125 -0.015625 C18.88802631 -0.01298171 20.72526983 -0.00785671 22.5625 0 C23.85794739 -0.01214539 23.85794739 -0.01214539 25.17956543 -0.02453613 C31.14566286 0.0686051 31.14566286 0.0686051 34.32226562 2.38085938 C36.35257435 5.37332243 36.43250074 6.98555153 35.78125 10.53125 C33.79112893 13.19144385 32.18726014 15.18835442 28.85693359 16.00054932 C26.53646635 16.19284265 24.26578795 16.2243482 21.9375 16.1953125 C20.66743103 16.20248795 20.66743103 16.20248795 19.3717041 16.20980835 C17.5864882 16.21320175 15.80120968 16.20403841 14.01611328 16.18310547 C11.28927577 16.15632881 8.5665538 16.18286898 5.83984375 16.21484375 C4.10155345 16.21153955 2.3632657 16.20513309 0.625 16.1953125 C-0.59237854 16.21049423 -0.59237854 16.21049423 -1.83435059 16.22598267 C-6.09747151 16.1380711 -7.75854091 15.88966203 -11.23632812 13.18115234 C-13.21875 10.53125 -13.21875 10.53125 -13.78125 7.46875 C-12.29442236 -0.29579435 -6.62691747 -0.06213025 0 0 Z " fill="#7BACDF" transform="translate(310.21875,353.46875)"/>
<path d="M0 0 C0.80771347 -0.01268417 1.61542694 -0.02536835 2.44761658 -0.03843689 C3.75080589 -0.03403343 3.75080589 -0.03403343 5.08032227 -0.02954102 C5.97662857 -0.03478287 6.87293488 -0.04002472 7.79640198 -0.04542542 C9.69189417 -0.05184837 11.5874262 -0.05050508 13.48291016 -0.04199219 C16.38264028 -0.03348858 19.28039655 -0.06222853 22.17993164 -0.09399414 C24.02172793 -0.0956064 25.8635277 -0.09502814 27.70532227 -0.09204102 C29.00547523 -0.10889198 29.00547523 -0.10889198 30.33189392 -0.12608337 C36.31236168 -0.056895 36.31236168 -0.056895 39.50244141 2.21630859 C41.66534668 5.46447253 41.57093436 7.59788301 40.95922852 11.40405273 C38.17209116 14.4736795 35.94300468 15.64409853 31.89086914 15.9375 C30.29937595 15.97047611 28.70728358 15.98018703 27.11547852 15.97045898 C26.26876587 15.97665756 25.42205322 15.98285614 24.54968262 15.98924255 C22.76449734 15.99632744 20.97924581 15.99318994 19.1940918 15.98046875 C16.4674294 15.96659446 13.74419546 16.0006993 11.01782227 16.03881836 C9.27954018 16.03976956 7.54125381 16.03791066 5.80297852 16.03295898 C4.99139282 16.04621719 4.17980713 16.0594754 3.34362793 16.07313538 C-0.90816166 16.00341324 -2.59190197 15.74411519 -6.09350586 13.09130859 C-8.04077148 10.40405273 -8.04077148 10.40405273 -8.04077148 6.77905273 C-6.6305738 2.01963555 -5.05582487 0.03849385 0 0 Z " fill="#7CADDF" transform="translate(242.040771484375,301.595947265625)"/>
<path d="M0 0 C0.87032364 -0.00619858 1.74064728 -0.01239716 2.63734436 -0.01878357 C4.47558475 -0.02587832 6.31388943 -0.02271369 8.15209961 -0.01000977 C10.96002943 0.00384395 13.7646179 -0.03020195 16.57226562 -0.06835938 C18.3606779 -0.06931074 20.14909433 -0.06745083 21.9375 -0.0625 C23.19239479 -0.08238731 23.19239479 -0.08238731 24.47264099 -0.10267639 C28.82385866 -0.03343015 30.53044003 0.17055438 34.06860352 2.94555664 C36.03515625 5.56640625 36.03515625 5.56640625 36.59765625 8.12890625 C35.86482322 11.30451606 34.52113538 12.51912932 32.03515625 14.56640625 C28.73977571 16.21409652 25.07340563 15.77244056 21.44921875 15.8046875 C20.16922501 15.81679512 20.16922501 15.81679512 18.8633728 15.82914734 C17.05607129 15.84298773 15.24874365 15.85371009 13.44140625 15.86157227 C10.67788212 15.87879577 7.91555109 15.92268217 5.15234375 15.96679688 C3.39714422 15.97692291 1.64193452 15.98543929 -0.11328125 15.9921875 C-1.35251846 16.01844963 -1.35251846 16.01844963 -2.61679077 16.04524231 C-6.40510126 16.0309242 -8.34228975 16.01268044 -11.48681641 13.75854492 C-13.65752798 10.5390505 -13.50634527 8.35691692 -12.96484375 4.56640625 C-9.58437919 -0.45126919 -5.53296621 -0.03272372 0 0 Z " fill="#7BACDF" transform="translate(435.96484375,353.43359375)"/>
<path d="M0 0 C0.87032364 -0.00619858 1.74064728 -0.01239716 2.63734436 -0.01878357 C4.47558475 -0.02587832 6.31388943 -0.02271369 8.15209961 -0.01000977 C10.96002943 0.00384395 13.7646179 -0.03020195 16.57226562 -0.06835938 C18.3606779 -0.06931074 20.14909433 -0.06745083 21.9375 -0.0625 C23.19239479 -0.08238731 23.19239479 -0.08238731 24.47264099 -0.10267639 C28.78519204 -0.0340455 30.54705954 0.19759871 34.09594727 2.87915039 C36.03515625 5.56640625 36.03515625 5.56640625 36.16015625 9.19140625 C35.03515625 12.56640625 35.03515625 12.56640625 33.01977539 14.25024414 C28.98927056 16.02762259 25.51573324 16.01570825 21.15625 16 C20.30716568 16.00524185 19.45808136 16.0104837 18.58326721 16.0158844 C16.7938852 16.02228999 15.00446101 16.02098657 13.21508789 16.01245117 C10.47791829 16.00392265 7.74282398 16.03275083 5.00585938 16.06445312 C3.26432354 16.06606485 1.52278402 16.06548815 -0.21875 16.0625 C-1.44387047 16.07935097 -1.44387047 16.07935097 -2.69374084 16.09654236 C-6.30113644 16.05226948 -8.51320437 15.89179877 -11.48022461 13.75415039 C-13.66200055 10.53907158 -13.50656082 8.35842572 -12.96484375 4.56640625 C-9.58437919 -0.45126919 -5.53296621 -0.03272372 0 0 Z " fill="#7BACDF" transform="translate(372.96484375,353.43359375)"/>
<path d="M0 0 C0.87269531 -0.00524185 1.74539062 -0.0104837 2.64453125 -0.0158844 C4.48696836 -0.02229891 6.32944645 -0.02097498 8.171875 -0.01245117 C10.9903244 -0.00393548 13.80675049 -0.0327183 16.625 -0.06445312 C18.41666606 -0.06606513 20.20833571 -0.06548762 22 -0.0625 C23.26263672 -0.07935097 23.26263672 -0.07935097 24.55078125 -0.09654236 C28.36451827 -0.05111867 30.36485203 -0.02184514 33.52734375 2.24584961 C35.71162393 5.49076584 35.61297673 7.61951633 35 11.43359375 C32.21286264 14.50322052 29.98377617 15.67363955 25.93164062 15.96704102 C24.34014744 16.00001713 22.74805506 16.00972805 21.15625 16 C20.30953735 16.00619858 19.46282471 16.01239716 18.5904541 16.01878357 C16.80526882 16.02586845 15.02001729 16.02273096 13.23486328 16.01000977 C10.50820089 15.99613548 7.78496695 16.03024032 5.05859375 16.06835938 C3.32031166 16.06931058 1.58202529 16.06745167 -0.15625 16.0625 C-0.96783569 16.07575821 -1.77942139 16.08901642 -2.61560059 16.10267639 C-6.86643045 16.03297 -8.54973373 15.77515143 -12.04882812 13.12084961 C-14 10.43359375 -14 10.43359375 -14.0625 6.80859375 C-11.76934167 -0.47555623 -6.67634871 -0.02328383 0 0 Z " fill="#7CACDF" transform="translate(248,353.56640625)"/>
<path d="M0 0 C0.89489136 -0.0038269 1.78978271 -0.00765381 2.71179199 -0.01159668 C4.60132982 -0.0143152 6.49090532 -0.00695816 8.38037109 0.00976562 C11.2713619 0.03117677 14.15986767 0.00996266 17.05078125 -0.015625 C18.88802631 -0.01298171 20.72526983 -0.00785671 22.5625 0 C23.85794739 -0.01214539 23.85794739 -0.01214539 25.17956543 -0.02453613 C31.14328743 0.06856801 31.14328743 0.06856801 34.32617188 2.37695312 C36.32164733 5.3313282 36.36359696 7.03716826 35.78125 10.53125 C33.9141509 12.83400556 32.42477259 14.20948871 29.78125 15.53125 C24.41335889 15.81599008 19.04440738 15.84500869 13.66967773 15.88134766 C11.87429842 15.89790091 10.07898484 15.9251829 8.28393555 15.96337891 C5.69284959 16.01821923 3.10330732 16.04003148 0.51171875 16.0546875 C-0.28740433 16.07735687 -1.0865274 16.10002625 -1.90986633 16.12338257 C-6.16159665 16.10731055 -7.75354304 15.8930483 -11.22924805 13.18994141 C-13.21875 10.53125 -13.21875 10.53125 -13.78125 7.46875 C-12.29442236 -0.29579435 -6.62691747 -0.06213025 0 0 Z " fill="#7CADDF" transform="translate(373.21875,301.46875)"/>
<path d="M0 0 C0.89489136 -0.0038269 1.78978271 -0.00765381 2.71179199 -0.01159668 C4.60132982 -0.0143152 6.49090532 -0.00695816 8.38037109 0.00976562 C11.2713619 0.03117677 14.15986767 0.00996266 17.05078125 -0.015625 C18.88802631 -0.01298171 20.72526983 -0.00785671 22.5625 0 C23.85794739 -0.01214539 23.85794739 -0.01214539 25.17956543 -0.02453613 C31.14566286 0.0686051 31.14566286 0.0686051 34.32226562 2.38085938 C36.35257435 5.37332243 36.43250074 6.98555153 35.78125 10.53125 C33.79112893 13.19144385 32.18726014 15.18835442 28.85693359 16.00054932 C26.53646635 16.19284265 24.26578795 16.2243482 21.9375 16.1953125 C20.66743103 16.20248795 20.66743103 16.20248795 19.3717041 16.20980835 C17.5864882 16.21320175 15.80120968 16.20403841 14.01611328 16.18310547 C11.28927577 16.15632881 8.5665538 16.18286898 5.83984375 16.21484375 C4.10155345 16.21153955 2.3632657 16.20513309 0.625 16.1953125 C-0.59237854 16.21049423 -0.59237854 16.21049423 -1.83435059 16.22598267 C-6.09747151 16.1380711 -7.75854091 15.88966203 -11.23632812 13.18115234 C-13.21875 10.53125 -13.21875 10.53125 -13.78125 7.46875 C-12.29442236 -0.29579435 -6.62691747 -0.06213025 0 0 Z " fill="#7CADDF" transform="translate(310.21875,301.46875)"/>
<path d="M0 0 C0.89489136 -0.00761353 1.78978271 -0.01522705 2.71179199 -0.02307129 C4.60129001 -0.03386277 6.49084763 -0.03672926 8.38037109 -0.03222656 C11.27151731 -0.03125328 14.16001753 -0.07290346 17.05078125 -0.1171875 C18.8880153 -0.12239394 20.72525857 -0.1250827 22.5625 -0.125 C23.42613159 -0.14139526 24.28976318 -0.15779053 25.17956543 -0.17468262 C31.15111897 -0.10587974 31.15111897 -0.10587974 34.35351562 2.81445312 C35.78125 5.46875 35.78125 5.46875 35.84375 8.53125 C34.47681542 12.31042207 33.18979413 13.34792786 29.78125 15.46875 C26.90087048 16.03997238 24.08562088 16.03003487 21.15625 16 C20.3317334 16.0038269 19.5072168 16.00765381 18.65771484 16.01159668 C16.91958389 16.01431097 15.18141175 16.00698358 13.44335938 15.99023438 C10.78943442 15.96881605 8.1382162 15.99005055 5.484375 16.015625 C3.79166072 16.01298164 2.09894811 16.00785647 0.40625 16 C-0.38346191 16.00809692 -1.17317383 16.01619385 -1.98681641 16.02453613 C-5.92100387 15.95788747 -7.81093236 15.72787202 -11.21850586 13.56274414 C-13.21875 11.46875 -13.21875 11.46875 -13.84765625 9.43359375 C-13.66965543 3.9993335 -13.66965543 3.9993335 -11.75976562 1.75195312 C-7.9089142 -0.19271204 -4.2587954 0.00099324 0 0 Z " fill="#7CADDF" transform="translate(436.21875,301.53125)"/>
<path d="M0 0 C0.82773422 -0.01591187 1.65546844 -0.03182373 2.50828552 -0.04821777 C3.39895218 -0.04841919 4.28961884 -0.04862061 5.20727539 -0.04882812 C6.12577774 -0.05644165 7.04428009 -0.06405518 7.99061584 -0.07189941 C9.93316937 -0.08270472 11.87578101 -0.08555177 13.81835938 -0.08105469 C16.79078076 -0.08008275 19.76061779 -0.12168978 22.73266602 -0.16601562 C24.62003042 -0.17122289 26.5074038 -0.17391081 28.39477539 -0.17382812 C29.28341782 -0.19022339 30.17206024 -0.20661865 31.08763123 -0.22351074 C37.23043045 -0.15471514 37.23043045 -0.15471514 40.46337891 2.76171875 C41.86743164 5.41992188 41.86743164 5.41992188 41.80493164 8.54492188 C40.83655645 11.51460581 40.26385971 12.52528678 37.86743164 14.41992188 C35.93237305 14.8008728 35.93237305 14.8008728 33.71899414 14.80810547 C32.47255127 14.82229019 32.47255127 14.82229019 31.20092773 14.83676147 C30.30712402 14.83068878 29.41332031 14.82461609 28.49243164 14.81835938 C27.11112061 14.82266464 27.11112061 14.82266464 25.7019043 14.82705688 C23.7551207 14.82909819 21.80831662 14.82356371 19.86157227 14.81103516 C16.87868465 14.79498243 13.89715203 14.8108816 10.91430664 14.83007812 C9.02367864 14.8280957 7.13305149 14.82425205 5.24243164 14.81835938 C4.34862793 14.82443207 3.45482422 14.83050476 2.53393555 14.83676147 C1.70297363 14.82730499 0.87201172 14.81784851 0.01586914 14.80810547 C-0.7145459 14.80571869 -1.44496094 14.80333191 -2.19750977 14.8008728 C-4.68284995 14.31158909 -5.57821269 13.38104408 -7.13256836 11.41992188 C-7.53100586 9.48242188 -7.53100586 9.48242188 -7.50756836 7.41992188 C-7.51530273 6.73929687 -7.52303711 6.05867187 -7.53100586 5.35742188 C-6.67179778 1.179312 -3.97942619 0.04605939 0 0 Z " fill="#7BACDF" transform="translate(430.132568359375,249.580078125)"/>
<path d="M0 0 C0.89489136 -0.0038269 1.78978271 -0.00765381 2.71179199 -0.01159668 C4.60132982 -0.0143152 6.49090532 -0.00695816 8.38037109 0.00976562 C11.2713619 0.03117677 14.15986767 0.00996266 17.05078125 -0.015625 C18.88802631 -0.01298171 20.72526983 -0.00785671 22.5625 0 C23.85794739 -0.01214539 23.85794739 -0.01214539 25.17956543 -0.02453613 C31.14328743 0.06856801 31.14328743 0.06856801 34.32617188 2.37695312 C36.32164733 5.3313282 36.36359696 7.03716826 35.78125 10.53125 C34.12791503 12.9765768 32.81627664 14.32628169 29.86157227 14.91140747 C27.42011356 15.07888599 25.00971681 15.11171071 22.5625 15.09765625 C21.22016296 15.10695412 21.22016296 15.10695412 19.85070801 15.11643982 C17.9611927 15.12353467 16.07161483 15.12036979 14.18212891 15.10766602 C11.2908231 15.09379592 8.40275139 15.1278786 5.51171875 15.16601562 C3.67447837 15.16696681 1.83723395 15.16510806 0 15.16015625 C-0.86363159 15.17341446 -1.72726318 15.18667267 -2.61706543 15.20033264 C-8.60240138 15.10745082 -8.60240138 15.10745082 -11.76367188 12.15209961 C-13.40145948 9.20215835 -13.89670978 7.83630392 -13.21875 4.53125 C-9.73617898 -0.54068229 -5.62786019 -0.05276365 0 0 Z " fill="#7BACDF" transform="translate(310.21875,249.46875)"/>
<path d="M0 0 C0.89489136 -0.0038269 1.78978271 -0.00765381 2.71179199 -0.01159668 C4.60132982 -0.0143152 6.49090532 -0.00695816 8.38037109 0.00976562 C11.2713619 0.03117677 14.15986767 0.00996266 17.05078125 -0.015625 C18.88802631 -0.01298171 20.72526983 -0.00785671 22.5625 0 C23.85794739 -0.01214539 23.85794739 -0.01214539 25.17956543 -0.02453613 C29.04859451 0.03586619 31.13310751 0.07642177 34.36132812 2.34179688 C35.78125 4.53125 35.78125 4.53125 35.71875 8.09375 C34.79006397 11.49893209 34.45859994 12.46010524 31.78125 14.53125 C29.8908844 14.91893005 29.8908844 14.91893005 27.74047852 14.93530273 C26.93276505 14.94798691 26.12505157 14.96067108 25.29286194 14.97373962 C24.42406906 14.97080399 23.55527618 14.96786835 22.66015625 14.96484375 C21.31569679 14.97270653 21.31569679 14.97270653 19.94407654 14.98072815 C18.04858435 14.9871511 16.15305231 14.98580781 14.25756836 14.97729492 C11.35783824 14.96879131 8.46008197 14.99753127 5.56054688 15.02929688 C3.71875059 15.03090914 1.87695082 15.03033087 0.03515625 15.02734375 C-0.8316124 15.03857773 -1.69838104 15.04981171 -2.59141541 15.06138611 C-8.582034 14.9920803 -8.582034 14.9920803 -11.76586914 12.68774414 C-13.7575151 9.73156724 -13.80104118 8.02499707 -13.21875 4.53125 C-9.78225666 -0.55660523 -5.60466897 -0.05254622 0 0 Z " fill="#7BACDF" transform="translate(373.21875,249.46875)"/>
<path d="M0 0 C0.83096191 -0.01268417 1.66192383 -0.02536835 2.51806641 -0.03843689 C3.41187012 -0.03550125 4.30567383 -0.03256561 5.2265625 -0.02954102 C6.14743652 -0.03478287 7.06831055 -0.04002472 8.01708984 -0.04542542 C9.96385693 -0.05184825 11.91066281 -0.05050524 13.85742188 -0.04199219 C16.84054417 -0.03347871 19.82175431 -0.0622451 22.8046875 -0.09399414 C24.69531192 -0.09560611 26.58593975 -0.09502871 28.4765625 -0.09204102 C29.81726807 -0.10889198 29.81726807 -0.10889198 31.18505859 -0.12608337 C37.33712927 -0.05663101 37.33712927 -0.05663101 39.91015625 2.24755859 C41.20634049 5.21674826 41.3191164 7.19796884 40.8515625 10.40405273 C39.20063012 12.85239878 37.88723519 14.19898256 34.93164062 14.78421021 C32.49026399 14.95170139 30.07994833 14.98451298 27.6328125 14.97045898 C26.29047546 14.97975685 26.29047546 14.97975685 24.92102051 14.98924255 C23.0315052 14.9963374 21.14192733 14.99317253 19.25244141 14.98046875 C16.3611356 14.96659866 13.47306389 15.00068133 10.58203125 15.03881836 C8.74479087 15.03976954 6.90754645 15.03791079 5.0703125 15.03295898 C4.20668091 15.04621719 3.34304932 15.0594754 2.45324707 15.07313538 C-3.51389167 14.98053594 -3.51389167 14.98053594 -6.72851562 12.06005859 C-8.1484375 9.40405273 -8.1484375 9.40405273 -8.0859375 6.27905273 C-6.60437271 1.73558738 -4.80328972 0.03553062 0 0 Z " fill="#7BACDF" transform="translate(242.1484375,249.595947265625)"/>
<path d="M0 0 C1.94171143 0.83531189 1.94171143 0.83531189 3.94171143 3.83531189 C4.31671143 6.27281189 4.31671143 6.27281189 3.94171143 8.83531189 C1.30934431 11.89148414 -1.29568115 13.60181304 -4.87078857 15.39781189 C-10.17936939 18.44359056 -12.64899177 22.16306309 -15.58563232 27.44468689 C-17.05828857 29.83531189 -17.05828857 29.83531189 -20.05828857 31.83531189 C-23.62078857 31.71031189 -23.62078857 31.71031189 -27.05828857 30.83531189 C-28.27313232 28.78062439 -28.27313232 28.78062439 -29.05828857 26.83531189 C-25.30227139 22.95589139 -21.53026426 19.09303849 -17.74237061 15.24473572 C-16.4555912 13.93277949 -15.17333072 12.61637537 -13.89569092 11.29551697 C-12.06049978 9.3998172 -10.20975795 7.52060249 -8.35516357 5.64390564 C-7.78521667 5.04815231 -7.21526978 4.45239899 -6.62805176 3.83859253 C-2.5854201 -0.20686504 -2.5854201 -0.20686504 0 0 Z " fill="#F33D81" transform="translate(199.05828857421875,412.16468811035156)"/>
<path d="M0 0 C0.25 2.25 0.25 2.25 0 5 C-2.61669793 8.06970258 -5.23944223 9.76753082 -8.8125 11.5625 C-14.12108082 14.60827867 -16.5907032 18.3277512 -19.52734375 23.609375 C-21 26 -21 26 -24 28 C-26.6875 28.125 -26.6875 28.125 -29 28 C-27.39556679 24.03271699 -24.63677803 21.33062719 -21.66015625 18.359375 C-20.87601601 17.56880707 -20.87601601 17.56880707 -20.07603455 16.76226807 C-18.97324225 15.65374872 -17.86784127 14.54781922 -16.76000977 13.44433594 C-15.06307143 11.75057036 -13.37991904 10.04388105 -11.69726562 8.3359375 C-10.62320676 7.25960684 -9.54836345 6.18405828 -8.47265625 5.109375 C-7.71783714 4.34074127 -7.71783714 4.34074127 -6.94776917 3.55657959 C-3.34381192 0 -3.34381192 0 0 0 Z " fill="#EA3478" transform="translate(203,416)"/>
<path d="M0 0 C2.88164201 1.33586054 5.25276708 2.83637331 7.6875 4.875 C8.28949219 5.36742187 8.89148438 5.85984375 9.51171875 6.3671875 C11.20487499 8.22477098 11.60184921 9.54739113 12 12 C7.47384007 8.32167983 3.60575001 4.58913637 0 0 Z " fill="#AAB0C4" transform="translate(46,425)"/>
<path d="M0 0 C0.66 0.33 1.32 0.66 2 1 C-1.63 4.63 -5.26 8.26 -9 12 C-9 8.47601214 -8.44884893 7.98495633 -6.1875 5.4375 C-5.40439453 4.53837891 -5.40439453 4.53837891 -4.60546875 3.62109375 C-3 2 -3 2 0 0 Z " fill="#F97580" transform="translate(15,72)"/>
</svg>
